{"glyphs":{"0":{"ha":794,"x_min":28,"x_max":779,"o":"m 494 944 q 719 847 658 944 q 779 589 779 749 q 751 356 779 467 q 664 158 722 244 q 518 21 606 71 q 313 -29 431 -29 q 88 69 147 -29 q 28 326 28 167 q 56 560 28 449 q 143 758 85 671 q 289 894 201 844 q 494 944 376 944 m 468 833 q 360 735 399 833 q 294 433 322 638 q 281 314 288 378 q 275 199 275 250 q 287 115 275 147 q 342 83 299 83 q 450 181 411 83 q 515 483 489 279 q 528 603 522 539 q 535 718 535 667 q 523 801 535 769 q 468 833 511 833 z "},"1":{"ha":794,"x_min":0,"x_max":750,"o":"m 675 890 l 543 165 l 606 165 q 682 170 650 165 q 732 181 714 175 q 750 101 750 151 q 708 14 750 38 q 579 -10 665 -10 q 489 -8 546 -10 q 365 -5 432 -7 q 230 -1 297 -3 q 110 0 163 0 q 52 -1 76 0 q 6 -6 28 -3 q 1 19 3 7 q 0 43 0 32 q 28 132 0 99 q 111 165 56 165 l 256 165 l 399 804 l 403 713 q 312 656 363 678 q 200 633 261 633 q 113 672 143 633 q 76 769 83 710 q 317 826 193 788 q 606 932 442 865 l 675 890 z "},"2":{"ha":794,"x_min":25,"x_max":740,"o":"m 381 492 q 451 566 425 526 q 476 654 476 606 q 438 727 476 707 q 344 747 400 747 q 223 708 271 747 q 164 613 175 669 q 101 643 133 614 q 69 717 69 672 q 124 841 69 790 q 260 918 179 892 q 422 944 342 944 q 642 891 544 944 q 740 708 740 838 q 698 563 740 631 q 563 426 656 496 q 492 376 533 404 q 399 316 450 349 q 289 247 349 283 q 414 229 347 235 q 529 224 481 224 q 617 233 581 224 q 681 267 654 242 q 709 209 701 236 q 717 154 717 182 q 660 28 717 72 q 478 -17 604 -17 q 293 2 376 -17 q 144 21 210 21 q 99 15 115 21 q 72 0 83 10 q 38 53 51 17 q 25 125 25 89 q 51 212 25 176 q 124 285 78 247 l 381 492 z "},"3":{"ha":794,"x_min":-12,"x_max":751,"o":"m 279 531 q 399 561 353 542 q 467 607 444 581 q 489 665 489 633 q 449 727 489 706 q 339 749 408 749 q 240 727 289 749 q 149 663 192 706 q 100 738 100 672 q 158 857 100 811 q 299 924 217 903 q 454 944 381 944 q 663 899 575 944 q 751 756 751 853 q 691 606 751 672 q 522 501 631 539 q 665 420 618 479 q 713 281 713 361 q 590 61 713 150 q 263 -28 468 -28 q 58 16 128 -28 q -12 132 -12 60 q 3 199 -12 168 q 42 249 18 229 q 124 174 71 197 q 239 150 178 150 q 380 183 328 150 q 432 281 432 217 q 390 374 432 342 q 256 406 349 406 l 279 531 z "},"4":{"ha":794,"x_min":-22,"x_max":781,"o":"m 508 917 l 739 917 q 688 691 717 822 q 621 347 660 560 l 651 347 q 715 353 688 349 q 760 363 743 357 q 775 326 769 349 q 781 285 781 303 q 740 199 781 231 q 636 168 700 168 l 593 168 l 565 0 l 307 0 l 339 168 l -4 168 q -22 250 -22 214 q -10 321 -22 286 q 26 383 3 356 l 508 917 m 374 347 q 421 542 397 449 q 467 713 444 636 l 136 347 l 374 347 z "},"5":{"ha":794,"x_min":8,"x_max":763,"o":"m 569 917 q 671 919 618 917 q 750 933 724 922 q 760 897 757 914 q 763 864 763 881 q 702 735 763 769 q 549 701 642 701 l 303 701 l 264 571 q 340 576 303 574 q 408 578 376 578 q 626 525 535 578 q 717 338 717 472 q 599 83 717 193 q 271 -28 481 -28 q 151 -15 211 -28 q 49 34 90 -1 q 8 133 8 69 q 21 197 8 167 q 57 249 33 228 q 251 150 119 150 q 388 184 338 150 q 439 290 439 218 q 381 396 439 372 q 232 419 322 419 q 152 418 192 419 q 83 414 113 417 l 214 917 l 569 917 z "},"6":{"ha":794,"x_min":29,"x_max":767,"o":"m 563 944 q 701 917 636 944 q 767 815 767 889 q 717 711 767 749 q 651 753 689 740 q 571 765 614 765 q 392 691 456 765 q 304 500 328 617 q 391 592 343 561 q 513 622 439 622 q 688 550 631 622 q 744 364 744 478 q 690 157 744 244 q 542 21 635 69 q 338 -28 450 -28 q 105 65 181 -28 q 29 314 29 158 q 97 614 29 469 q 285 851 165 758 q 563 944 406 944 m 417 476 q 333 434 364 476 q 290 335 303 392 q 278 236 278 278 q 297 153 278 181 q 354 126 315 126 q 438 169 407 126 q 481 268 468 211 q 493 367 493 325 q 474 449 493 422 q 417 476 456 476 z "},"7":{"ha":794,"x_min":54,"x_max":815,"o":"m 789 917 l 815 779 q 728 675 772 729 q 651 568 685 621 q 499 299 547 401 q 438 134 451 196 q 425 31 425 72 q 425 16 425 24 q 426 1 425 8 q 281 -28 354 -28 q 175 8 214 -28 q 136 114 136 44 q 149 189 136 153 q 189 260 161 225 l 546 708 l 268 708 q 119 729 183 708 q 54 835 54 750 q 64 891 54 868 q 88 933 74 914 q 159 920 114 924 q 272 917 204 917 l 789 917 z "},"8":{"ha":794,"x_min":22,"x_max":771,"o":"m 522 944 q 695 901 619 944 q 771 758 771 857 q 708 607 771 667 q 576 515 646 547 q 694 402 661 444 q 726 294 726 360 q 669 122 726 194 q 520 11 613 50 q 321 -28 428 -28 q 113 24 204 -28 q 22 193 22 76 q 73 337 22 271 q 231 454 124 403 q 162 534 185 493 q 139 632 139 575 q 193 797 139 726 q 335 906 247 867 q 522 944 422 944 m 490 583 q 547 636 528 606 q 567 710 567 667 q 545 780 567 753 q 479 807 524 807 q 407 782 438 807 q 376 711 376 757 q 385 672 376 689 q 408 644 393 656 l 490 583 m 314 378 q 260 315 278 350 q 243 233 243 279 q 265 149 243 182 q 332 117 286 117 q 410 151 381 117 q 440 231 440 186 q 433 266 440 250 q 411 296 426 282 l 314 378 z "},"9":{"ha":794,"x_min":42,"x_max":779,"o":"m 471 944 q 703 851 628 944 q 779 603 779 758 q 711 303 779 447 q 523 65 643 158 q 246 -28 403 -28 q 107 0 172 -28 q 42 101 42 28 q 92 206 42 168 q 238 151 144 151 q 417 226 353 151 q 504 417 481 300 q 417 325 465 356 q 296 294 369 294 q 121 367 178 294 q 64 553 64 439 q 119 760 64 672 q 266 896 174 847 q 471 944 358 944 m 454 790 q 371 748 401 790 q 328 649 340 706 q 315 550 315 592 q 334 467 315 494 q 392 440 353 440 q 475 483 444 440 q 518 582 506 525 q 531 681 531 639 q 512 763 531 736 q 454 790 493 790 z "},"A":{"ha":818,"x_min":-83,"x_max":785,"o":"m 667 917 l 711 242 q 732 130 715 182 q 785 56 749 78 q 626 -28 744 -28 q 508 14 549 -28 q 450 129 468 56 q 442 171 444 151 q 435 222 439 190 l 194 222 q 148 104 168 158 q 111 0 128 50 l -83 0 l 354 917 l 667 917 m 408 721 q 313 507 353 601 q 238 332 272 413 l 429 332 l 408 721 z "},"Á":{"ha":818,"x_min":-83,"x_max":785,"o":"m 667 917 l 711 242 q 732 130 715 182 q 785 56 749 78 q 626 -28 744 -28 q 508 14 549 -28 q 450 129 468 56 q 442 171 444 151 q 435 222 439 190 l 194 222 q 148 104 168 158 q 111 0 128 50 l -83 0 l 354 917 l 667 917 m 408 721 q 313 507 353 601 q 238 332 272 413 l 429 332 l 408 721 m 417 986 l 400 1054 l 740 1196 q 769 1165 758 1182 q 779 1121 779 1147 q 719 1022 779 1049 q 582 992 658 994 l 417 986 z "},"Ă":{"ha":818,"x_min":-83,"x_max":825,"o":"m 667 917 l 711 242 q 732 130 715 182 q 785 56 749 78 q 626 -28 744 -28 q 508 14 549 -28 q 450 129 468 56 q 442 171 444 151 q 435 222 439 190 l 194 222 q 148 104 168 158 q 111 0 128 50 l -83 0 l 354 917 l 667 917 m 408 721 q 313 507 353 601 q 238 332 272 413 l 429 332 l 408 721 m 488 1158 q 483 1131 485 1144 q 482 1106 482 1118 q 489 1066 482 1090 q 532 1042 496 1042 q 599 1081 583 1042 q 625 1158 615 1119 l 825 1158 q 735 1028 808 1082 q 518 974 663 974 q 335 1018 396 974 q 275 1121 275 1063 q 279 1158 275 1138 l 488 1158 z "},"Â":{"ha":818,"x_min":-83,"x_max":785,"o":"m 667 917 l 711 242 q 732 130 715 182 q 785 56 749 78 q 626 -28 744 -28 q 508 14 549 -28 q 450 129 468 56 q 442 171 444 151 q 435 222 439 190 l 194 222 q 148 104 168 158 q 111 0 128 50 l -83 0 l 354 917 l 667 917 m 408 721 q 313 507 353 601 q 238 332 272 413 l 429 332 l 408 721 z "},"Ä":{"ha":818,"x_min":-83,"x_max":836,"o":"m 667 917 l 711 242 q 732 130 715 182 q 785 56 749 78 q 626 -28 744 -28 q 508 14 549 -28 q 450 129 468 56 q 442 171 444 151 q 435 222 439 190 l 194 222 q 148 104 168 158 q 111 0 128 50 l -83 0 l 354 917 l 667 917 m 408 721 q 313 507 353 601 q 238 332 272 413 l 429 332 l 408 721 z "},"À":{"ha":818,"x_min":-83,"x_max":785,"o":"m 667 917 l 711 242 q 732 130 715 182 q 785 56 749 78 q 626 -28 744 -28 q 508 14 549 -28 q 450 129 468 56 q 442 171 444 151 q 435 222 439 190 l 194 222 q 148 104 168 158 q 111 0 128 50 l -83 0 l 354 917 l 667 917 m 408 721 q 313 507 353 601 q 238 332 272 413 l 429 332 l 408 721 m 674 1056 l 657 988 l 492 993 q 355 1022 415 994 q 294 1122 294 1050 q 333 1197 294 1169 l 674 1056 z "},"Ā":{"ha":818,"x_min":-83,"x_max":785,"o":"m 667 917 l 711 242 q 732 130 715 182 q 785 56 749 78 q 626 -28 744 -28 q 508 14 549 -28 q 450 129 468 56 q 442 171 444 151 q 435 222 439 190 l 194 222 q 148 104 168 158 q 111 0 128 50 l -83 0 l 354 917 l 667 917 m 408 721 q 313 507 353 601 q 238 332 272 413 l 429 332 l 408 721 m 738 1156 q 743 1117 743 1133 q 717 1053 743 1079 q 638 1028 690 1028 l 313 1028 q 309 1048 310 1038 q 308 1065 308 1058 q 336 1131 310 1106 q 403 1156 363 1156 l 738 1156 z "},"Ą":{"ha":818,"x_min":-83,"x_max":801,"o":"m 667 917 l 711 242 q 732 130 715 182 q 785 56 749 78 q 626 -28 744 -28 q 508 14 549 -28 q 450 129 468 56 q 442 171 444 151 q 435 222 439 190 l 194 222 q 148 104 168 158 q 111 0 128 50 l -83 0 l 354 917 l 667 917 m 408 721 q 313 507 353 601 q 238 332 272 413 l 429 332 l 408 721 m 751 22 l 751 14 q 663 -70 700 -21 q 625 -171 625 -119 q 690 -242 625 -242 q 738 -233 715 -242 q 776 -207 760 -225 q 801 -272 801 -239 q 763 -333 801 -307 q 651 -358 725 -358 q 518 -319 567 -358 q 469 -203 469 -281 q 536 -51 469 -108 q 690 31 603 6 l 751 22 z "},"Å":{"ha":818,"x_min":-83,"x_max":785,"o":"m 667 917 l 711 242 q 732 130 715 182 q 785 56 749 78 q 626 -28 744 -28 q 508 14 549 -28 q 450 129 468 56 q 442 171 444 151 q 435 222 439 190 l 194 222 q 148 104 168 158 q 111 0 128 50 l -83 0 l 354 917 l 667 917 m 408 721 q 313 507 353 601 q 238 332 272 413 l 429 332 l 408 721 m 696 1090 q 641 993 696 1028 q 517 958 586 958 q 424 983 460 958 q 389 1054 389 1008 q 445 1151 389 1115 q 571 1186 501 1186 q 662 1162 628 1186 q 696 1090 696 1138 m 601 1086 q 557 1132 601 1132 q 503 1110 522 1132 q 483 1054 483 1089 q 528 1008 483 1008 q 583 1030 564 1008 q 601 1086 601 1051 z "},"Ǻ":{"ha":818,"x_min":-83,"x_max":792,"o":"m 678 997 q 622 902 678 936 q 499 868 567 868 q 406 892 442 868 q 371 961 371 917 q 427 1057 371 1022 q 553 1092 483 1092 q 643 1067 608 1092 q 678 997 678 1043 m 583 993 q 539 1038 583 1038 q 484 1017 503 1038 q 465 961 465 996 q 510 917 465 917 q 564 938 544 917 q 583 993 583 958 m 667 917 l 711 242 q 732 130 715 182 q 785 56 749 78 q 626 -28 744 -28 q 508 14 549 -28 q 450 129 468 56 q 442 171 444 151 q 435 222 439 190 l 194 222 q 148 104 168 158 q 111 0 128 50 l -83 0 l 354 917 l 667 917 m 408 721 q 313 507 353 601 q 238 332 272 413 l 429 332 l 408 721 m 429 1101 l 413 1169 l 753 1311 q 782 1281 772 1297 q 792 1236 792 1264 q 731 1136 792 1164 q 594 1107 671 1108 l 429 1101 z "},"Ã":{"ha":818,"x_min":-83,"x_max":796,"o":"m 667 917 l 711 242 q 732 130 715 182 q 785 56 749 78 q 626 -28 744 -28 q 508 14 549 -28 q 450 129 468 56 q 442 171 444 151 q 435 222 439 190 l 194 222 q 148 104 168 158 q 111 0 128 50 l -83 0 l 354 917 l 667 917 m 408 721 q 313 507 353 601 q 238 332 272 413 l 429 332 l 408 721 m 769 1176 q 796 1106 796 1144 q 663 1003 796 1003 q 572 1009 628 1003 q 460 1022 515 1015 q 378 1028 406 1028 q 323 1020 349 1028 q 285 1004 297 1013 q 257 1083 257 1044 q 394 1176 257 1176 q 490 1170 433 1176 q 600 1158 546 1164 q 686 1153 654 1153 q 769 1176 746 1153 z "},"Æ":{"ha":1054,"x_min":-89,"x_max":1113,"o":"m 243 246 q 213 185 228 215 q 184 123 199 154 q 156 61 169 92 q 128 0 142 31 l -89 0 l 449 917 l 1113 917 q 1065 785 1113 828 q 944 743 1018 743 q 864 752 908 743 q 781 781 819 761 l 747 538 l 1010 538 q 972 422 1010 461 q 867 382 935 382 q 799 390 836 382 q 731 414 761 399 q 719 342 724 376 q 714 281 714 308 q 744 193 714 215 q 840 171 775 171 q 912 176 874 171 q 983 193 950 181 q 993 157 990 175 q 996 125 996 139 q 917 1 996 31 q 756 -28 839 -28 q 544 26 628 -28 q 460 204 460 81 q 460 229 460 218 q 461 246 461 240 l 243 246 m 475 353 q 498 515 483 414 q 536 781 513 617 q 411 567 471 674 q 296 353 351 460 l 475 353 z "},"Ǽ":{"ha":1054,"x_min":-89,"x_max":1113,"o":"m 243 246 q 213 185 228 215 q 184 123 199 154 q 156 61 169 92 q 128 0 142 31 l -89 0 l 449 917 l 1113 917 q 1065 785 1113 828 q 944 743 1018 743 q 864 752 908 743 q 781 781 819 761 l 747 538 l 1010 538 q 972 422 1010 461 q 867 382 935 382 q 799 390 836 382 q 731 414 761 399 q 719 342 724 376 q 714 281 714 308 q 744 193 714 215 q 840 171 775 171 q 912 176 874 171 q 983 193 950 181 q 993 157 990 175 q 996 125 996 139 q 917 1 996 31 q 756 -28 839 -28 q 544 26 628 -28 q 460 204 460 81 q 460 229 460 218 q 461 246 461 240 l 243 246 m 475 353 q 498 515 483 414 q 536 781 513 617 q 411 567 471 674 q 296 353 351 460 l 475 353 m 558 986 l 542 1054 l 882 1196 q 910 1165 900 1182 q 921 1121 921 1147 q 860 1022 921 1049 q 724 992 800 994 l 558 986 z "},"B":{"ha":835,"x_min":-8,"x_max":815,"o":"m 167 917 q 310 922 244 919 q 439 924 375 924 q 617 913 531 924 q 760 864 704 903 q 815 740 815 825 q 762 601 815 657 q 632 518 708 544 q 709 489 671 510 q 773 425 747 468 q 799 308 799 382 q 651 65 799 136 q 265 -7 504 -7 q 160 -6 235 -7 q -8 0 86 -4 l 167 917 m 385 535 q 392 535 388 535 q 399 535 396 535 q 540 591 500 535 q 581 718 581 647 q 469 833 581 833 q 457 833 464 833 q 443 832 450 833 l 385 535 m 300 94 q 328 93 313 93 q 483 157 439 93 q 526 296 526 221 q 485 406 526 375 q 367 440 444 436 l 300 94 z "},"C":{"ha":840,"x_min":29,"x_max":869,"o":"m 590 944 q 722 930 657 944 q 828 878 786 915 q 869 776 869 842 q 813 651 869 699 q 681 603 756 603 q 649 605 667 603 q 617 613 631 607 q 624 660 621 635 q 626 719 626 686 q 615 801 626 757 q 550 846 603 846 q 456 796 497 846 q 387 670 415 746 q 344 515 358 594 q 329 378 329 436 q 372 233 329 282 q 508 185 414 185 q 640 212 581 185 q 738 288 699 239 q 767 243 761 271 q 774 197 774 215 q 672 40 774 108 q 399 -28 569 -28 q 122 65 214 -28 q 29 353 29 158 q 94 651 29 517 q 285 865 160 786 q 590 944 411 944 z "},"Ć":{"ha":840,"x_min":29,"x_max":869,"o":"m 590 944 q 722 930 657 944 q 828 878 786 915 q 869 776 869 842 q 813 651 869 699 q 681 603 756 603 q 649 605 667 603 q 617 613 631 607 q 624 660 621 635 q 626 719 626 686 q 615 801 626 757 q 550 846 603 846 q 456 796 497 846 q 387 670 415 746 q 344 515 358 594 q 329 378 329 436 q 372 233 329 282 q 508 185 414 185 q 640 212 581 185 q 738 288 699 239 q 767 243 761 271 q 774 197 774 215 q 672 40 774 108 q 399 -28 569 -28 q 122 65 214 -28 q 29 353 29 158 q 94 651 29 517 q 285 865 160 786 q 590 944 411 944 m 482 986 l 465 1054 l 806 1196 q 834 1165 824 1182 q 844 1121 844 1147 q 784 1022 844 1049 q 647 992 724 994 l 482 986 z "},"Č":{"ha":840,"x_min":29,"x_max":869,"o":"m 590 944 q 722 930 657 944 q 828 878 786 915 q 869 776 869 842 q 813 651 869 699 q 681 603 756 603 q 649 605 667 603 q 617 613 631 607 q 624 660 621 635 q 626 719 626 686 q 615 801 626 757 q 550 846 603 846 q 456 796 497 846 q 387 670 415 746 q 344 515 358 594 q 329 378 329 436 q 372 233 329 282 q 508 185 414 185 q 640 212 581 185 q 738 288 699 239 q 767 243 761 271 q 774 197 774 215 q 672 40 774 108 q 399 -28 569 -28 q 122 65 214 -28 q 29 353 29 158 q 94 651 29 517 q 285 865 160 786 q 590 944 411 944 m 376 1122 l 446 1186 l 608 1114 l 814 1186 l 857 1122 l 639 961 l 547 961 l 376 1122 z "},"Ç":{"ha":840,"x_min":29,"x_max":869,"o":"m 590 944 q 722 930 657 944 q 828 878 786 915 q 869 776 869 842 q 813 651 869 699 q 681 603 756 603 q 649 605 667 603 q 617 613 631 607 q 624 660 621 635 q 626 719 626 686 q 615 801 626 757 q 550 846 603 846 q 456 796 497 846 q 387 670 415 746 q 344 515 358 594 q 329 378 329 436 q 372 233 329 282 q 508 185 414 185 q 640 212 581 185 q 738 288 699 239 q 767 243 761 271 q 774 197 774 215 q 672 40 774 108 q 399 -28 569 -28 q 122 65 214 -28 q 29 353 29 158 q 94 651 29 517 q 285 865 160 786 q 590 944 411 944 m 460 15 l 425 -101 l 410 -83 q 438 -80 415 -81 q 476 -79 461 -79 q 584 -105 539 -79 q 629 -192 629 -131 q 561 -312 629 -265 q 397 -358 493 -358 q 301 -339 336 -358 q 265 -285 265 -319 q 290 -219 265 -242 q 327 -252 304 -240 q 390 -264 350 -264 q 442 -250 422 -264 q 461 -204 461 -236 q 435 -162 461 -172 q 381 -153 408 -153 q 350 -153 364 -153 q 322 -156 336 -154 l 374 15 l 460 15 z "},"Ĉ":{"ha":840,"x_min":29,"x_max":869,"o":"m 590 944 q 722 930 657 944 q 828 878 786 915 q 869 776 869 842 q 813 651 869 699 q 681 603 756 603 q 649 605 667 603 q 617 613 631 607 q 624 660 621 635 q 626 719 626 686 q 615 801 626 757 q 550 846 603 846 q 456 796 497 846 q 387 670 415 746 q 344 515 358 594 q 329 378 329 436 q 372 233 329 282 q 508 185 414 185 q 640 212 581 185 q 738 288 699 239 q 767 243 761 271 q 774 197 774 215 q 672 40 774 108 q 399 -28 569 -28 q 122 65 214 -28 q 29 353 29 158 q 94 651 29 517 q 285 865 160 786 q 590 944 411 944 z "},"Ċ":{"ha":840,"x_min":29,"x_max":869,"o":"m 590 944 q 722 930 657 944 q 828 878 786 915 q 869 776 869 842 q 813 651 869 699 q 681 603 756 603 q 649 605 667 603 q 617 613 631 607 q 624 660 621 635 q 626 719 626 686 q 615 801 626 757 q 550 846 603 846 q 456 796 497 846 q 387 670 415 746 q 344 515 358 594 q 329 378 329 436 q 372 233 329 282 q 508 185 414 185 q 640 212 581 185 q 738 288 699 239 q 767 243 761 271 q 774 197 774 215 q 672 40 774 108 q 399 -28 569 -28 q 122 65 214 -28 q 29 353 29 158 q 94 651 29 517 q 285 865 160 786 q 590 944 411 944 m 593 1169 q 693 1142 654 1169 q 732 1064 732 1115 q 690 985 732 1011 q 588 958 649 958 q 486 985 526 958 q 446 1061 446 1011 q 489 1142 446 1114 q 593 1169 532 1169 z "},"D":{"ha":939,"x_min":-10,"x_max":907,"o":"m 167 917 q 309 922 236 921 q 418 924 382 924 q 697 894 589 924 q 856 785 804 865 q 907 556 907 706 q 831 242 907 367 q 610 55 756 117 q 253 -7 464 -7 q 128 -5 214 -7 q -10 0 43 -3 l 167 917 m 303 97 q 328 94 317 94 q 350 93 339 93 q 522 194 464 93 q 610 463 579 294 q 628 589 621 528 q 635 688 635 650 q 603 793 635 761 q 500 825 572 825 q 472 824 486 825 q 443 821 457 822 l 303 97 z "},"Ǳ":{"ha":1688,"x_min":-10,"x_max":1719,"o":"m 167 917 q 309 922 236 921 q 418 924 382 924 q 697 894 589 924 q 856 785 804 865 q 907 556 907 706 q 831 242 907 367 q 610 55 756 117 q 253 -7 464 -7 q 128 -5 214 -7 q -10 0 43 -3 l 167 917 m 303 97 q 328 94 317 94 q 350 93 339 93 q 522 194 464 93 q 610 463 579 294 q 628 589 621 528 q 635 688 635 650 q 603 793 635 761 q 500 825 572 825 q 472 824 486 825 q 443 821 457 822 l 303 97 m 1451 665 q 1282 689 1333 683 q 1207 694 1231 694 q 1131 685 1171 694 q 1061 663 1090 676 q 1034 721 1044 689 q 1024 788 1024 753 q 1076 902 1024 867 q 1217 938 1129 938 q 1379 920 1294 938 q 1543 903 1464 903 q 1602 906 1569 903 q 1664 917 1635 910 q 1708 855 1696 889 q 1719 786 1719 821 q 1696 692 1719 731 q 1625 615 1672 653 l 1178 253 q 1305 231 1238 238 q 1428 224 1372 224 q 1514 231 1474 224 q 1583 267 1554 239 q 1613 212 1606 239 q 1619 156 1619 185 q 1572 31 1619 78 q 1393 -17 1525 -17 q 1206 2 1294 -17 q 1056 21 1118 21 q 983 0 1007 21 q 945 60 961 19 q 929 144 929 100 q 949 225 929 186 q 1015 303 968 264 l 1451 665 z "},"Ǆ":{"ha":1688,"x_min":-10,"x_max":1719,"o":"m 167 917 q 309 922 236 921 q 418 924 382 924 q 697 894 589 924 q 856 785 804 865 q 907 556 907 706 q 831 242 907 367 q 610 55 756 117 q 253 -7 464 -7 q 128 -5 214 -7 q -10 0 43 -3 l 167 917 m 303 97 q 328 94 317 94 q 350 93 339 93 q 522 194 464 93 q 610 463 579 294 q 628 589 621 528 q 635 688 635 650 q 603 793 635 761 q 500 825 572 825 q 472 824 486 825 q 443 821 457 822 l 303 97 m 1451 665 q 1282 689 1333 683 q 1207 694 1231 694 q 1131 685 1171 694 q 1061 663 1090 676 q 1034 721 1044 689 q 1024 788 1024 753 q 1076 902 1024 867 q 1217 938 1129 938 q 1379 920 1294 938 q 1543 903 1464 903 q 1602 906 1569 903 q 1664 917 1635 910 q 1708 855 1696 889 q 1719 786 1719 821 q 1696 692 1719 731 q 1625 615 1672 653 l 1178 253 q 1305 231 1238 238 q 1428 224 1372 224 q 1514 231 1474 224 q 1583 267 1554 239 q 1613 212 1606 239 q 1619 156 1619 185 q 1572 31 1619 78 q 1393 -17 1525 -17 q 1206 2 1294 -17 q 1056 21 1118 21 q 983 0 1007 21 q 945 60 961 19 q 929 144 929 100 q 949 225 929 186 q 1015 303 968 264 l 1451 665 m 1176 1122 l 1246 1186 l 1408 1114 l 1614 1186 l 1657 1122 l 1439 961 l 1347 961 l 1176 1122 z "},"Ð":{"ha":939,"x_min":-32,"x_max":907,"o":"m 167 917 q 309 922 236 921 q 418 924 382 924 q 697 894 589 924 q 856 785 804 865 q 907 556 907 706 q 831 242 907 367 q 610 55 756 117 q 253 -7 464 -7 q 128 -5 214 -7 q -10 0 43 -3 l 68 404 l -28 404 q -31 424 -31 414 q -32 442 -32 435 q -4 507 -31 482 q 63 532 22 532 l 93 532 l 167 917 m 303 97 q 328 94 317 94 q 350 93 339 93 q 522 194 464 93 q 610 463 579 294 q 628 589 621 528 q 635 688 635 650 q 603 793 635 761 q 500 825 572 825 q 472 824 486 825 q 443 821 457 822 l 388 532 l 508 532 q 513 513 511 524 q 514 493 514 503 q 488 430 514 456 q 408 404 461 404 l 363 404 l 303 97 z "},"Ď":{"ha":939,"x_min":-10,"x_max":907,"o":"m 167 917 q 309 922 236 921 q 418 924 382 924 q 697 894 589 924 q 856 785 804 865 q 907 556 907 706 q 831 242 907 367 q 610 55 756 117 q 253 -7 464 -7 q 128 -5 214 -7 q -10 0 43 -3 l 167 917 m 303 97 q 328 94 317 94 q 350 93 339 93 q 522 194 464 93 q 610 463 579 294 q 628 589 621 528 q 635 688 635 650 q 603 793 635 761 q 500 825 572 825 q 472 824 486 825 q 443 821 457 822 l 303 97 m 321 1122 l 390 1186 l 553 1114 l 758 1186 l 801 1122 l 583 961 l 492 961 l 321 1122 z "},"Đ":{"ha":939,"x_min":-32,"x_max":907,"o":"m 167 917 q 309 922 236 921 q 418 924 382 924 q 697 894 589 924 q 856 785 804 865 q 907 556 907 706 q 831 242 907 367 q 610 55 756 117 q 253 -7 464 -7 q 128 -5 214 -7 q -10 0 43 -3 l 68 404 l -28 404 q -31 424 -31 414 q -32 442 -32 435 q -4 507 -31 482 q 63 532 22 532 l 93 532 l 167 917 m 303 97 q 328 94 317 94 q 350 93 339 93 q 522 194 464 93 q 610 463 579 294 q 628 589 621 528 q 635 688 635 650 q 603 793 635 761 q 500 825 572 825 q 472 824 486 825 q 443 821 457 822 l 388 532 l 508 532 q 513 513 511 524 q 514 493 514 503 q 488 430 514 456 q 408 404 461 404 l 363 404 l 303 97 z "},"Ḍ":{"ha":939,"x_min":-10,"x_max":907,"o":"m 167 917 q 309 922 236 921 q 418 924 382 924 q 697 894 589 924 q 856 785 804 865 q 907 556 907 706 q 831 242 907 367 q 610 55 756 117 q 253 -7 464 -7 q 128 -5 214 -7 q -10 0 43 -3 l 167 917 m 303 97 q 328 94 317 94 q 350 93 339 93 q 522 194 464 93 q 610 463 579 294 q 628 589 621 528 q 635 688 635 650 q 603 793 635 761 q 500 825 572 825 q 472 824 486 825 q 443 821 457 822 l 303 97 m 340 -58 q 440 -85 401 -58 q 479 -164 479 -112 q 438 -243 479 -217 q 335 -269 396 -269 q 233 -243 274 -269 q 193 -167 193 -217 q 236 -86 193 -114 q 340 -58 279 -58 z "},"ǲ":{"ha":1568,"x_min":-10,"x_max":1597,"o":"m 167 917 q 309 922 236 921 q 418 924 382 924 q 697 894 589 924 q 856 785 804 865 q 907 556 907 706 q 831 242 907 367 q 610 55 756 117 q 253 -7 464 -7 q 128 -5 214 -7 q -10 0 43 -3 l 167 917 m 303 97 q 328 94 317 94 q 350 93 339 93 q 522 194 464 93 q 610 463 579 294 q 628 589 621 528 q 635 688 635 650 q 603 793 635 761 q 500 825 572 825 q 472 824 486 825 q 443 821 457 822 l 303 97 m 1351 492 q 1256 512 1307 504 q 1169 519 1206 519 q 1088 504 1119 519 q 1042 458 1057 489 q 1007 523 1019 485 q 994 599 994 561 q 1044 706 994 675 q 1168 736 1094 736 q 1329 719 1239 736 q 1483 701 1419 701 q 1561 717 1535 701 q 1590 675 1583 696 q 1597 633 1597 654 q 1572 552 1597 586 q 1508 490 1546 518 l 1167 235 q 1263 212 1214 221 q 1349 203 1313 203 q 1428 215 1388 203 q 1497 258 1469 228 q 1536 143 1536 214 q 1483 14 1536 56 q 1346 -28 1431 -28 q 1201 -8 1274 -28 q 1060 13 1129 13 q 1013 9 1033 13 q 972 -1 992 6 q 938 35 951 13 q 925 94 925 58 q 949 178 925 142 q 1008 244 972 215 l 1351 492 z "},"ǅ":{"ha":1568,"x_min":-10,"x_max":1608,"o":"m 167 917 q 309 922 236 921 q 418 924 382 924 q 697 894 589 924 q 856 785 804 865 q 907 556 907 706 q 831 242 907 367 q 610 55 756 117 q 253 -7 464 -7 q 128 -5 214 -7 q -10 0 43 -3 l 167 917 m 303 97 q 328 94 317 94 q 350 93 339 93 q 522 194 464 93 q 610 463 579 294 q 628 589 621 528 q 635 688 635 650 q 603 793 635 761 q 500 825 572 825 q 472 824 486 825 q 443 821 457 822 l 303 97 m 1351 492 q 1256 512 1307 504 q 1169 519 1206 519 q 1088 504 1119 519 q 1042 458 1057 489 q 1007 523 1019 485 q 994 599 994 561 q 1044 706 994 675 q 1168 736 1094 736 q 1329 719 1239 736 q 1483 701 1419 701 q 1561 717 1535 701 q 1590 675 1583 696 q 1597 633 1597 654 q 1572 552 1597 586 q 1508 490 1546 518 l 1167 235 q 1263 212 1214 221 q 1349 203 1313 203 q 1428 215 1388 203 q 1497 258 1469 228 q 1536 143 1536 214 q 1483 14 1536 56 q 1346 -28 1431 -28 q 1201 -8 1274 -28 q 1060 13 1129 13 q 1013 9 1033 13 q 972 -1 992 6 q 938 35 951 13 q 925 94 925 58 q 949 178 925 142 q 1008 244 972 215 l 1351 492 m 1128 914 l 1197 978 l 1360 906 l 1565 978 l 1608 914 l 1390 753 l 1299 753 l 1128 914 z "},"E":{"ha":690,"x_min":-4,"x_max":765,"o":"m 765 917 q 725 788 765 832 q 601 743 685 743 q 502 758 546 743 q 440 781 458 772 l 397 538 l 644 538 q 609 423 644 464 q 501 382 574 382 q 415 396 453 382 q 372 414 376 410 l 326 167 l 450 167 q 533 171 497 167 q 588 181 568 175 q 602 144 597 167 q 607 104 607 121 q 552 19 607 39 q 433 0 497 0 l -4 0 l 167 917 l 765 917 z "},"É":{"ha":690,"x_min":-4,"x_max":765,"o":"m 765 917 q 725 788 765 832 q 601 743 685 743 q 502 758 546 743 q 440 781 458 772 l 397 538 l 644 538 q 609 423 644 464 q 501 382 574 382 q 415 396 453 382 q 372 414 376 410 l 326 167 l 450 167 q 533 171 497 167 q 588 181 568 175 q 602 144 597 167 q 607 104 607 121 q 552 19 607 39 q 433 0 497 0 l -4 0 l 167 917 l 765 917 m 385 986 l 368 1054 l 708 1196 q 737 1165 726 1182 q 747 1121 747 1147 q 687 1022 747 1049 q 550 992 626 994 l 385 986 z "},"Ĕ":{"ha":690,"x_min":-4,"x_max":793,"o":"m 765 917 q 725 788 765 832 q 601 743 685 743 q 502 758 546 743 q 440 781 458 772 l 397 538 l 644 538 q 609 423 644 464 q 501 382 574 382 q 415 396 453 382 q 372 414 376 410 l 326 167 l 450 167 q 533 171 497 167 q 588 181 568 175 q 602 144 597 167 q 607 104 607 121 q 552 19 607 39 q 433 0 497 0 l -4 0 l 167 917 l 765 917 m 456 1158 q 451 1131 453 1144 q 450 1106 450 1118 q 457 1066 450 1090 q 500 1042 464 1042 q 567 1081 551 1042 q 593 1158 583 1119 l 793 1158 q 703 1028 776 1082 q 486 974 631 974 q 303 1018 364 974 q 243 1121 243 1063 q 247 1158 243 1138 l 456 1158 z "},"Ě":{"ha":690,"x_min":-4,"x_max":765,"o":"m 765 917 q 725 788 765 832 q 601 743 685 743 q 502 758 546 743 q 440 781 458 772 l 397 538 l 644 538 q 609 423 644 464 q 501 382 574 382 q 415 396 453 382 q 372 414 376 410 l 326 167 l 450 167 q 533 171 497 167 q 588 181 568 175 q 602 144 597 167 q 607 104 607 121 q 552 19 607 39 q 433 0 497 0 l -4 0 l 167 917 l 765 917 m 279 1122 l 349 1186 l 511 1114 l 717 1186 l 760 1122 l 542 961 l 450 961 l 279 1122 z "},"Ê":{"ha":690,"x_min":-4,"x_max":765,"o":"m 765 917 q 725 788 765 832 q 601 743 685 743 q 502 758 546 743 q 440 781 458 772 l 397 538 l 644 538 q 609 423 644 464 q 501 382 574 382 q 415 396 453 382 q 372 414 376 410 l 326 167 l 450 167 q 533 171 497 167 q 588 181 568 175 q 602 144 597 167 q 607 104 607 121 q 552 19 607 39 q 433 0 497 0 l -4 0 l 167 917 l 765 917 z "},"Ë":{"ha":690,"x_min":-4,"x_max":804,"o":"m 765 917 q 725 788 765 832 q 601 743 685 743 q 502 758 546 743 q 440 781 458 772 l 397 538 l 644 538 q 609 423 644 464 q 501 382 574 382 q 415 396 453 382 q 372 414 376 410 l 326 167 l 450 167 q 533 171 497 167 q 588 181 568 175 q 602 144 597 167 q 607 104 607 121 q 552 19 607 39 q 433 0 497 0 l -4 0 l 167 917 l 765 917 z "},"Ė":{"ha":690,"x_min":-4,"x_max":765,"o":"m 765 917 q 725 788 765 832 q 601 743 685 743 q 502 758 546 743 q 440 781 458 772 l 397 538 l 644 538 q 609 423 644 464 q 501 382 574 382 q 415 396 453 382 q 372 414 376 410 l 326 167 l 450 167 q 533 171 497 167 q 588 181 568 175 q 602 144 597 167 q 607 104 607 121 q 552 19 607 39 q 433 0 497 0 l -4 0 l 167 917 l 765 917 m 496 1169 q 596 1142 557 1169 q 635 1064 635 1115 q 593 985 635 1011 q 490 958 551 958 q 389 985 429 958 q 349 1061 349 1011 q 392 1142 349 1114 q 496 1169 435 1169 z "},"Ẹ":{"ha":690,"x_min":-4,"x_max":765,"o":"m 765 917 q 725 788 765 832 q 601 743 685 743 q 502 758 546 743 q 440 781 458 772 l 397 538 l 644 538 q 609 423 644 464 q 501 382 574 382 q 415 396 453 382 q 372 414 376 410 l 326 167 l 450 167 q 533 171 497 167 q 588 181 568 175 q 602 144 597 167 q 607 104 607 121 q 552 19 607 39 q 433 0 497 0 l -4 0 l 167 917 l 765 917 m 282 -58 q 382 -85 343 -58 q 421 -164 421 -112 q 379 -243 421 -217 q 276 -269 338 -269 q 175 -243 215 -269 q 135 -167 135 -217 q 178 -86 135 -114 q 282 -58 221 -58 z "},"È":{"ha":690,"x_min":-4,"x_max":765,"o":"m 765 917 q 725 788 765 832 q 601 743 685 743 q 502 758 546 743 q 440 781 458 772 l 397 538 l 644 538 q 609 423 644 464 q 501 382 574 382 q 415 396 453 382 q 372 414 376 410 l 326 167 l 450 167 q 533 171 497 167 q 588 181 568 175 q 602 144 597 167 q 607 104 607 121 q 552 19 607 39 q 433 0 497 0 l -4 0 l 167 917 l 765 917 m 642 1056 l 625 988 l 460 993 q 323 1022 383 994 q 263 1122 263 1050 q 301 1197 263 1169 l 642 1056 z "},"Ē":{"ha":690,"x_min":-4,"x_max":765,"o":"m 765 917 q 725 788 765 832 q 601 743 685 743 q 502 758 546 743 q 440 781 458 772 l 397 538 l 644 538 q 609 423 644 464 q 501 382 574 382 q 415 396 453 382 q 372 414 376 410 l 326 167 l 450 167 q 533 171 497 167 q 588 181 568 175 q 602 144 597 167 q 607 104 607 121 q 552 19 607 39 q 433 0 497 0 l -4 0 l 167 917 l 765 917 m 706 1156 q 711 1117 711 1133 q 685 1053 711 1079 q 606 1028 658 1028 l 281 1028 q 277 1048 278 1038 q 276 1065 276 1058 q 304 1131 278 1106 q 371 1156 331 1156 l 706 1156 z "},"Ę":{"ha":690,"x_min":-4,"x_max":765,"o":"m 765 917 q 725 788 765 832 q 601 743 685 743 q 502 758 546 743 q 440 781 458 772 l 397 538 l 644 538 q 609 423 644 464 q 501 382 574 382 q 415 396 453 382 q 372 414 376 410 l 326 167 l 450 167 q 533 171 497 167 q 588 181 568 175 q 602 144 597 167 q 607 104 607 121 q 552 19 607 39 q 433 0 497 0 l -4 0 l 167 917 l 765 917 m 536 22 l 536 14 q 447 -70 485 -21 q 410 -171 410 -119 q 475 -242 410 -242 q 522 -233 500 -242 q 561 -207 544 -225 q 586 -272 586 -239 q 548 -333 586 -307 q 436 -358 510 -358 q 303 -319 351 -358 q 254 -203 254 -281 q 321 -51 254 -108 q 475 31 388 6 l 536 22 z "},"Ẽ":{"ha":690,"x_min":-4,"x_max":765,"o":"m 765 917 q 725 788 765 832 q 601 743 685 743 q 502 758 546 743 q 440 781 458 772 l 397 538 l 644 538 q 609 423 644 464 q 501 382 574 382 q 415 396 453 382 q 372 414 376 410 l 326 167 l 450 167 q 533 171 497 167 q 588 181 568 175 q 602 144 597 167 q 607 104 607 121 q 552 19 607 39 q 433 0 497 0 l -4 0 l 167 917 l 765 917 m 738 1176 q 764 1106 764 1144 q 631 1003 764 1003 q 540 1009 596 1003 q 428 1022 483 1015 q 346 1028 374 1028 q 291 1020 317 1028 q 253 1004 265 1013 q 225 1083 225 1044 q 363 1176 225 1176 q 458 1170 401 1176 q 568 1158 514 1164 q 654 1153 622 1153 q 738 1176 714 1153 z "},"F":{"ha":710,"x_min":-4,"x_max":783,"o":"m 783 917 q 749 783 783 831 q 624 736 714 736 q 524 747 576 736 q 440 774 472 758 l 399 549 l 667 549 q 633 430 667 478 q 515 382 599 382 q 428 395 468 382 q 372 415 388 408 l 299 0 l -4 0 l 167 917 l 783 917 z "},"G":{"ha":890,"x_min":29,"x_max":881,"o":"m 881 472 q 806 242 831 363 q 781 -1 781 122 q 694 -28 742 -28 q 599 -1 635 -28 q 557 50 563 25 q 450 -10 513 7 q 329 -28 388 -28 q 101 75 174 -28 q 29 349 29 178 q 95 653 29 518 q 288 866 161 788 q 594 944 414 944 q 726 931 661 944 q 834 880 792 917 q 876 776 876 843 q 819 651 876 699 q 688 603 763 603 q 656 605 672 603 q 624 613 639 607 q 631 660 628 635 q 633 721 633 686 q 622 801 633 756 q 557 846 611 846 q 463 799 506 846 q 391 680 421 753 q 344 524 361 607 q 328 367 328 440 q 338 265 328 318 q 378 174 349 211 q 465 138 408 138 q 515 144 488 138 q 556 168 542 151 l 600 447 l 881 472 z "},"Ğ":{"ha":890,"x_min":29,"x_max":913,"o":"m 881 472 q 806 242 831 363 q 781 -1 781 122 q 694 -28 742 -28 q 599 -1 635 -28 q 557 50 563 25 q 450 -10 513 7 q 329 -28 388 -28 q 101 75 174 -28 q 29 349 29 178 q 95 653 29 518 q 288 866 161 788 q 594 944 414 944 q 726 931 661 944 q 834 880 792 917 q 876 776 876 843 q 819 651 876 699 q 688 603 763 603 q 656 605 672 603 q 624 613 639 607 q 631 660 628 635 q 633 721 633 686 q 622 801 633 756 q 557 846 611 846 q 463 799 506 846 q 391 680 421 753 q 344 524 361 607 q 328 367 328 440 q 338 265 328 318 q 378 174 349 211 q 465 138 408 138 q 515 144 488 138 q 556 168 542 151 l 600 447 l 881 472 m 575 1158 q 571 1131 572 1144 q 569 1106 569 1118 q 576 1066 569 1090 q 619 1042 583 1042 q 687 1081 671 1042 q 713 1158 703 1119 l 913 1158 q 823 1028 896 1082 q 606 974 750 974 q 423 1018 483 974 q 363 1121 363 1063 q 367 1158 363 1138 l 575 1158 z "},"Ĝ":{"ha":890,"x_min":29,"x_max":881,"o":"m 881 472 q 806 242 831 363 q 781 -1 781 122 q 694 -28 742 -28 q 599 -1 635 -28 q 557 50 563 25 q 450 -10 513 7 q 329 -28 388 -28 q 101 75 174 -28 q 29 349 29 178 q 95 653 29 518 q 288 866 161 788 q 594 944 414 944 q 726 931 661 944 q 834 880 792 917 q 876 776 876 843 q 819 651 876 699 q 688 603 763 603 q 656 605 672 603 q 624 613 639 607 q 631 660 628 635 q 633 721 633 686 q 622 801 633 756 q 557 846 611 846 q 463 799 506 846 q 391 680 421 753 q 344 524 361 607 q 328 367 328 440 q 338 265 328 318 q 378 174 349 211 q 465 138 408 138 q 515 144 488 138 q 556 168 542 151 l 600 447 l 881 472 z "},"Ģ":{"ha":890,"x_min":29,"x_max":881,"o":"m 881 472 q 806 242 831 363 q 781 -1 781 122 q 694 -28 742 -28 q 599 -1 635 -28 q 557 50 563 25 q 450 -10 513 7 q 329 -28 388 -28 q 101 75 174 -28 q 29 349 29 178 q 95 653 29 518 q 288 866 161 788 q 594 944 414 944 q 726 931 661 944 q 834 880 792 917 q 876 776 876 843 q 819 651 876 699 q 688 603 763 603 q 656 605 672 603 q 624 613 639 607 q 631 660 628 635 q 633 721 633 686 q 622 801 633 756 q 557 846 611 846 q 463 799 506 846 q 391 680 421 753 q 344 524 361 607 q 328 367 328 440 q 338 265 328 318 q 378 174 349 211 q 465 138 408 138 q 515 144 488 138 q 556 168 542 151 l 600 447 l 881 472 m 493 -165 q 456 -271 493 -228 q 368 -336 419 -314 q 272 -358 317 -358 q 218 -353 238 -358 q 284 -265 261 -306 q 307 -162 307 -224 q 293 -92 307 -122 q 332 -78 304 -85 q 379 -71 360 -71 q 463 -98 433 -71 q 493 -165 493 -125 z "},"Ġ":{"ha":890,"x_min":29,"x_max":881,"o":"m 881 472 q 806 242 831 363 q 781 -1 781 122 q 694 -28 742 -28 q 599 -1 635 -28 q 557 50 563 25 q 450 -10 513 7 q 329 -28 388 -28 q 101 75 174 -28 q 29 349 29 178 q 95 653 29 518 q 288 866 161 788 q 594 944 414 944 q 726 931 661 944 q 834 880 792 917 q 876 776 876 843 q 819 651 876 699 q 688 603 763 603 q 656 605 672 603 q 624 613 639 607 q 631 660 628 635 q 633 721 633 686 q 622 801 633 756 q 557 846 611 846 q 463 799 506 846 q 391 680 421 753 q 344 524 361 607 q 328 367 328 440 q 338 265 328 318 q 378 174 349 211 q 465 138 408 138 q 515 144 488 138 q 556 168 542 151 l 600 447 l 881 472 m 615 1169 q 715 1142 676 1169 q 754 1064 754 1115 q 713 985 754 1011 q 610 958 671 958 q 508 985 549 958 q 468 1061 468 1011 q 511 1142 468 1114 q 615 1169 554 1169 z "},"H":{"ha":944,"x_min":-10,"x_max":954,"o":"m 954 917 l 822 222 q 813 162 817 193 q 810 107 810 131 q 815 56 810 81 q 828 19 821 32 q 751 -16 793 -4 q 669 -28 708 -28 q 558 11 593 -28 q 524 110 524 50 q 527 163 524 131 q 538 235 531 194 l 564 396 l 357 396 l 281 0 l -10 0 l 167 917 l 460 917 l 379 507 l 585 507 l 661 917 l 954 917 z "},"Ħ":{"ha":944,"x_min":-10,"x_max":1013,"o":"m 954 917 l 932 799 l 1007 799 q 1013 760 1013 776 q 986 697 1013 722 q 907 671 960 671 l 854 671 l 918 722 l 822 222 q 813 162 817 193 q 810 107 810 131 q 815 56 810 81 q 828 19 821 32 q 751 -16 793 -4 q 669 -28 708 -28 q 558 11 593 -28 q 524 110 524 50 q 527 163 524 131 q 538 235 531 194 l 564 396 l 357 396 l 281 0 l -10 0 l 119 671 l 40 671 q 37 691 38 681 q 36 708 36 701 q 64 774 38 749 q 131 799 90 799 l 144 799 l 167 917 l 460 917 l 436 799 l 639 799 l 661 917 l 954 917 m 615 671 l 411 671 l 379 507 l 585 507 l 615 671 z "},"Ĥ":{"ha":944,"x_min":-10,"x_max":954,"o":"m 954 917 l 822 222 q 813 162 817 193 q 810 107 810 131 q 815 56 810 81 q 828 19 821 32 q 751 -16 793 -4 q 669 -28 708 -28 q 558 11 593 -28 q 524 110 524 50 q 527 163 524 131 q 538 235 531 194 l 564 396 l 357 396 l 281 0 l -10 0 l 167 917 l 460 917 l 379 507 l 585 507 l 661 917 l 954 917 z "},"Ḥ":{"ha":944,"x_min":-10,"x_max":954,"o":"m 954 917 l 822 222 q 813 162 817 193 q 810 107 810 131 q 815 56 810 81 q 828 19 821 32 q 751 -16 793 -4 q 669 -28 708 -28 q 558 11 593 -28 q 524 110 524 50 q 527 163 524 131 q 538 235 531 194 l 564 396 l 357 396 l 281 0 l -10 0 l 167 917 l 460 917 l 379 507 l 585 507 l 661 917 l 954 917 m 381 -58 q 481 -85 442 -58 q 519 -164 519 -112 q 478 -243 519 -217 q 375 -269 436 -269 q 274 -243 314 -269 q 233 -167 233 -217 q 276 -86 233 -114 q 381 -58 319 -58 z "},"I":{"ha":467,"x_min":-10,"x_max":472,"o":"m 472 917 l 293 0 l -10 0 l 167 917 l 472 917 z "},"Ĳ":{"ha":933,"x_min":-10,"x_max":938,"o":"m 472 917 l 293 0 l -10 0 l 167 917 l 472 917 m 938 917 l 803 215 q 724 -66 769 39 q 613 -217 678 -171 q 457 -264 547 -264 q 299 -192 329 -264 q 366 -153 338 -175 q 417 -90 394 -132 q 458 24 439 -49 q 501 215 478 97 l 636 917 l 938 917 z "},"Í":{"ha":467,"x_min":-10,"x_max":599,"o":"m 472 917 l 293 0 l -10 0 l 167 917 l 472 917 m 236 986 l 219 1054 l 560 1196 q 588 1165 578 1182 q 599 1121 599 1147 q 538 1022 599 1049 q 401 992 478 994 l 236 986 z "},"Ĭ":{"ha":467,"x_min":-10,"x_max":644,"o":"m 472 917 l 293 0 l -10 0 l 167 917 l 472 917 m 307 1158 q 303 1131 304 1144 q 301 1106 301 1118 q 308 1066 301 1090 q 351 1042 315 1042 q 419 1081 403 1042 q 444 1158 435 1119 l 644 1158 q 555 1028 628 1082 q 338 974 482 974 q 155 1018 215 974 q 94 1121 94 1063 q 99 1158 94 1138 l 307 1158 z "},"Î":{"ha":467,"x_min":-10,"x_max":572,"o":"m 472 917 l 293 0 l -10 0 l 167 917 l 472 917 z "},"Ï":{"ha":467,"x_min":-10,"x_max":656,"o":"m 472 917 l 293 0 l -10 0 l 167 917 l 472 917 z "},"İ":{"ha":467,"x_min":-10,"x_max":486,"o":"m 472 917 l 293 0 l -10 0 l 167 917 l 472 917 m 347 1169 q 447 1142 408 1169 q 486 1064 486 1115 q 444 985 486 1011 q 342 958 403 958 q 240 985 281 958 q 200 1061 200 1011 q 243 1142 200 1114 q 347 1169 286 1169 z "},"Ị":{"ha":467,"x_min":-35,"x_max":472,"o":"m 472 917 l 293 0 l -10 0 l 167 917 l 472 917 m 113 -58 q 213 -85 174 -58 q 251 -164 251 -112 q 210 -243 251 -217 q 107 -269 168 -269 q 6 -243 46 -269 q -35 -167 -35 -217 q 8 -86 -35 -114 q 113 -58 51 -58 z "},"Ì":{"ha":467,"x_min":-10,"x_max":493,"o":"m 472 917 l 293 0 l -10 0 l 167 917 l 472 917 m 493 1056 l 476 988 l 311 993 q 174 1022 235 994 q 114 1122 114 1050 q 153 1197 114 1169 l 493 1056 z "},"Ī":{"ha":467,"x_min":-10,"x_max":563,"o":"m 472 917 l 293 0 l -10 0 l 167 917 l 472 917 m 557 1156 q 563 1117 563 1133 q 536 1053 563 1079 q 457 1028 510 1028 l 132 1028 q 128 1048 129 1038 q 128 1065 128 1058 q 156 1131 129 1106 q 222 1156 182 1156 l 557 1156 z "},"Į":{"ha":467,"x_min":-10,"x_max":472,"o":"m 472 917 l 293 0 l -10 0 l 167 917 l 472 917 m 296 22 l 296 14 q 207 -70 244 -21 q 169 -171 169 -119 q 235 -242 169 -242 q 282 -233 260 -242 q 321 -207 304 -225 q 346 -272 346 -239 q 308 -333 346 -307 q 196 -358 269 -358 q 63 -319 111 -358 q 14 -203 14 -281 q 81 -51 14 -108 q 235 31 147 6 l 296 22 z "},"Ĩ":{"ha":467,"x_min":-10,"x_max":615,"o":"m 472 917 l 293 0 l -10 0 l 167 917 l 472 917 m 589 1176 q 615 1106 615 1144 q 482 1003 615 1003 q 391 1009 447 1003 q 280 1022 335 1015 q 197 1028 225 1028 q 142 1020 168 1028 q 104 1004 117 1013 q 76 1083 76 1044 q 214 1176 76 1176 q 309 1170 253 1176 q 419 1158 365 1164 q 506 1153 474 1153 q 589 1176 565 1153 z "},"J":{"ha":467,"x_min":-168,"x_max":471,"o":"m 471 917 l 336 215 q 257 -66 303 39 q 146 -217 211 -171 q -10 -264 81 -264 q -168 -192 -137 -264 q -101 -153 -129 -175 q -50 -90 -72 -132 q -8 24 -28 -49 q 35 215 11 97 l 169 917 l 471 917 z "},"Ĵ":{"ha":467,"x_min":-168,"x_max":568,"o":"m 471 917 l 336 215 q 257 -66 303 39 q 146 -217 211 -171 q -10 -264 81 -264 q -168 -192 -137 -264 q -101 -153 -129 -175 q -50 -90 -72 -132 q -8 24 -28 -49 q 35 215 11 97 l 169 917 l 471 917 z "},"K":{"ha":892,"x_min":-7,"x_max":1047,"o":"m 464 917 l 289 0 l -7 0 q 44 274 17 128 q 97 556 71 421 q 142 790 122 692 q 167 917 161 888 l 464 917 m 1047 917 q 782 617 878 736 q 660 467 686 499 q 758 215 703 314 q 876 82 813 115 q 711 -28 842 -28 q 557 35 614 -28 q 467 206 500 97 q 406 456 433 315 l 743 917 l 1047 917 z "},"Ķ":{"ha":892,"x_min":-7,"x_max":1047,"o":"m 464 917 l 289 0 l -7 0 q 44 274 17 128 q 97 556 71 421 q 142 790 122 692 q 167 917 161 888 l 464 917 m 1047 917 q 782 617 878 736 q 660 467 686 499 q 758 215 703 314 q 876 82 813 115 q 711 -28 842 -28 q 557 35 614 -28 q 467 206 500 97 q 406 456 433 315 l 743 917 l 1047 917 m 496 -165 q 459 -271 496 -228 q 371 -336 422 -314 q 275 -358 319 -358 q 221 -353 240 -358 q 287 -265 264 -306 q 310 -162 310 -224 q 296 -92 310 -122 q 335 -78 307 -85 q 382 -71 363 -71 q 466 -98 436 -71 q 496 -165 496 -125 z "},"L":{"ha":615,"x_min":-1,"x_max":615,"o":"m -1 0 l 167 917 l 471 917 l 335 167 l 458 167 q 541 171 506 167 q 596 181 576 175 q 610 144 606 167 q 615 104 615 121 q 562 19 615 39 q 443 0 508 0 l -1 0 z "},"Ǉ":{"ha":1082,"x_min":-1,"x_max":1086,"o":"m -1 0 l 167 917 l 471 917 l 335 167 l 458 167 q 541 171 506 167 q 596 181 576 175 q 610 144 606 167 q 615 104 615 121 q 562 19 615 39 q 443 0 508 0 l -1 0 m 1086 917 l 951 215 q 872 -66 918 39 q 761 -217 826 -171 q 606 -264 696 -264 q 447 -192 478 -264 q 515 -153 486 -175 q 565 -90 543 -132 q 607 24 588 -49 q 650 215 626 97 l 785 917 l 1086 917 z "},"Ĺ":{"ha":615,"x_min":-1,"x_max":615,"o":"m -1 0 l 167 917 l 471 917 l 335 167 l 458 167 q 541 171 506 167 q 596 181 576 175 q 610 144 606 167 q 615 104 615 121 q 562 19 615 39 q 443 0 508 0 l -1 0 m 224 986 l 207 1054 l 547 1196 q 576 1165 565 1182 q 586 1121 586 1147 q 526 1022 586 1049 q 389 992 465 994 l 224 986 z "},"Ľ":{"ha":615,"x_min":-1,"x_max":740,"o":"m -1 0 l 167 917 l 471 917 l 335 167 l 458 167 q 541 171 506 167 q 596 181 576 175 q 610 144 606 167 q 615 104 615 121 q 562 19 615 39 q 443 0 508 0 l -1 0 m 558 978 q 596 990 571 983 q 643 997 621 997 q 713 969 686 997 q 740 889 740 940 q 688 782 740 836 q 553 728 636 728 q 525 731 536 728 q 504 736 514 733 q 558 824 546 783 q 571 900 571 864 q 568 941 571 924 q 558 978 565 958 z "},"Ļ":{"ha":615,"x_min":-1,"x_max":615,"o":"m -1 0 l 167 917 l 471 917 l 335 167 l 458 167 q 541 171 506 167 q 596 181 576 175 q 610 144 606 167 q 615 104 615 121 q 562 19 615 39 q 443 0 508 0 l -1 0 m 356 -165 q 319 -271 356 -228 q 231 -336 282 -314 q 135 -358 179 -358 q 81 -353 100 -358 q 147 -265 124 -306 q 169 -162 169 -224 q 156 -92 169 -122 q 194 -78 167 -85 q 242 -71 222 -71 q 326 -98 296 -71 q 356 -165 356 -125 z "},"Ŀ":{"ha":615,"x_min":-1,"x_max":625,"o":"m 546 549 q 606 523 588 549 q 617 453 625 497 q 577 382 607 408 q 503 356 547 356 q 440 381 458 356 q 429 449 421 407 q 471 522 439 494 q 546 549 503 549 m -1 0 l 167 917 l 471 917 l 335 167 l 458 167 q 541 171 506 167 q 596 181 576 175 q 610 144 606 167 q 615 104 615 121 q 562 19 615 39 q 443 0 508 0 l -1 0 z "},"ǈ":{"ha":615,"x_min":-118,"x_max":615,"o":"m -1 0 l 167 917 l 471 917 l 335 167 l 458 167 q 541 171 506 167 q 596 181 576 175 q 610 144 606 167 q 615 104 615 121 q 562 19 615 39 q 443 0 508 0 l -1 0 m 465 944 l 347 336 q 240 31 307 132 q 47 -69 174 -69 q -58 -46 -11 -69 q -118 33 -104 -22 q 4 112 -36 36 q 79 364 44 188 l 186 917 l 465 944 m 357 1250 q 462 1221 421 1250 q 503 1139 503 1192 q 459 1056 503 1083 q 351 1028 415 1028 q 245 1056 288 1028 q 203 1136 203 1083 q 248 1221 203 1192 q 357 1250 293 1250 z "},"Ł":{"ha":694,"x_min":-10,"x_max":694,"o":"m 538 167 q 620 171 585 167 q 675 181 656 175 q 690 144 686 167 q 694 104 694 121 q 641 19 694 39 q 522 0 588 0 l 78 0 l 136 318 l 19 276 q -1 303 7 288 q -10 340 -10 319 q 3 387 -10 364 q 53 422 17 410 l 163 463 l 246 917 l 550 917 l 489 582 l 610 626 q 631 594 625 614 q 636 558 636 574 q 539 463 636 496 l 463 435 l 414 167 l 538 167 z "},"M":{"ha":1128,"x_min":-29,"x_max":1096,"o":"m 817 917 l 1096 917 l 1051 244 q 1049 208 1050 232 q 1049 172 1049 183 q 1058 97 1049 131 q 1093 46 1067 64 q 1030 -7 1075 14 q 925 -28 985 -28 q 815 13 850 -28 q 779 129 779 54 q 780 160 779 142 q 782 193 781 179 l 819 624 l 542 0 l 379 0 l 265 624 l 131 0 l -29 0 l 194 917 l 485 917 l 581 403 l 817 917 z "},"N":{"ha":954,"x_min":0,"x_max":951,"o":"m 163 0 l 0 0 l 167 917 l 465 917 l 682 286 l 788 917 l 951 917 l 782 0 l 464 0 l 264 607 l 163 0 z "},"Ǌ":{"ha":1421,"x_min":0,"x_max":1425,"o":"m 163 0 l 0 0 l 167 917 l 465 917 l 682 286 l 788 917 l 951 917 l 782 0 l 464 0 l 264 607 l 163 0 m 1425 917 l 1290 215 q 1211 -66 1257 39 q 1100 -217 1165 -171 q 944 -264 1035 -264 q 786 -192 817 -264 q 853 -153 825 -175 q 904 -90 882 -132 q 946 24 926 -49 q 989 215 965 97 l 1124 917 l 1425 917 z "},"Ń":{"ha":954,"x_min":0,"x_max":951,"o":"m 163 0 l 0 0 l 167 917 l 465 917 l 682 286 l 788 917 l 951 917 l 782 0 l 464 0 l 264 607 l 163 0 m 483 986 l 467 1054 l 807 1196 q 835 1165 825 1182 q 846 1121 846 1147 q 785 1022 846 1049 q 649 992 725 994 l 483 986 z "},"Ň":{"ha":954,"x_min":0,"x_max":951,"o":"m 163 0 l 0 0 l 167 917 l 465 917 l 682 286 l 788 917 l 951 917 l 782 0 l 464 0 l 264 607 l 163 0 m 378 1122 l 447 1186 l 610 1114 l 815 1186 l 858 1122 l 640 961 l 549 961 l 378 1122 z "},"Ņ":{"ha":954,"x_min":0,"x_max":951,"o":"m 163 0 l 0 0 l 167 917 l 465 917 l 682 286 l 788 917 l 951 917 l 782 0 l 464 0 l 264 607 l 163 0 m 518 -165 q 481 -271 518 -228 q 393 -336 444 -314 q 297 -358 342 -358 q 243 -353 263 -358 q 309 -265 286 -306 q 332 -162 332 -224 q 318 -92 332 -122 q 357 -78 329 -85 q 404 -71 385 -71 q 488 -98 458 -71 q 518 -165 518 -125 z "},"Ṅ":{"ha":954,"x_min":0,"x_max":951,"o":"m 163 0 l 0 0 l 167 917 l 465 917 l 682 286 l 788 917 l 951 917 l 782 0 l 464 0 l 264 607 l 163 0 m 594 1169 q 694 1142 656 1169 q 733 1064 733 1115 q 692 985 733 1011 q 589 958 650 958 q 488 985 528 958 q 447 1061 447 1011 q 490 1142 447 1114 q 594 1169 533 1169 z "},"Ŋ":{"ha":954,"x_min":0,"x_max":951,"o":"m 264 607 l 163 0 l 0 0 l 167 917 l 465 917 l 682 286 l 788 917 l 951 917 l 796 76 q 709 -192 761 -110 q 560 -274 657 -274 q 460 -226 481 -274 q 533 -191 501 -211 q 588 -127 564 -171 q 629 0 611 -83 l 471 0 l 264 607 z "},"ǋ":{"ha":954,"x_min":0,"x_max":951,"o":"m 163 0 l 0 0 l 167 917 l 465 917 l 682 286 l 788 917 l 951 917 l 782 0 l 464 0 l 264 607 l 163 0 m 725 944 l 607 336 q 500 31 567 132 q 307 -69 433 -69 q 202 -46 249 -69 q 142 33 156 -22 q 264 112 224 36 q 339 364 304 188 l 446 917 l 725 944 m 617 1250 q 722 1221 681 1250 q 763 1139 763 1192 q 719 1056 763 1083 q 611 1028 675 1028 q 505 1056 547 1028 q 463 1136 463 1083 q 508 1221 463 1192 q 617 1250 553 1250 z "},"Ñ":{"ha":954,"x_min":0,"x_max":951,"o":"m 163 0 l 0 0 l 167 917 l 465 917 l 682 286 l 788 917 l 951 917 l 782 0 l 464 0 l 264 607 l 163 0 m 836 1176 q 863 1106 863 1144 q 729 1003 863 1003 q 638 1009 694 1003 q 527 1022 582 1015 q 444 1028 472 1028 q 390 1020 415 1028 q 351 1004 364 1013 q 324 1083 324 1044 q 461 1176 324 1176 q 556 1170 500 1176 q 667 1158 613 1164 q 753 1153 721 1153 q 836 1176 813 1153 z "},"O":{"ha":958,"x_min":31,"x_max":928,"o":"m 567 944 q 835 851 742 944 q 928 560 928 758 q 893 334 928 440 q 790 147 858 228 q 622 19 722 65 q 392 -28 522 -28 q 124 65 217 -28 q 31 357 31 158 q 65 583 31 476 q 168 770 100 689 q 336 898 236 851 q 567 944 436 944 m 550 847 q 430 749 476 847 q 354 433 383 651 q 340 310 347 379 q 333 190 333 240 q 347 106 333 140 q 408 71 361 71 q 494 114 458 71 q 558 248 531 157 q 604 485 585 339 q 618 608 611 539 q 625 728 625 678 q 611 813 625 778 q 550 847 597 847 z "},"Ó":{"ha":958,"x_min":31,"x_max":928,"o":"m 567 944 q 835 851 742 944 q 928 560 928 758 q 893 334 928 440 q 790 147 858 228 q 622 19 722 65 q 392 -28 522 -28 q 124 65 217 -28 q 31 357 31 158 q 65 583 31 476 q 168 770 100 689 q 336 898 236 851 q 567 944 436 944 m 550 847 q 430 749 476 847 q 354 433 383 651 q 340 310 347 379 q 333 190 333 240 q 347 106 333 140 q 408 71 361 71 q 494 114 458 71 q 558 248 531 157 q 604 485 585 339 q 618 608 611 539 q 625 728 625 678 q 611 813 625 778 q 550 847 597 847 m 472 986 l 456 1054 l 796 1196 q 824 1165 814 1182 q 835 1121 835 1147 q 774 1022 835 1049 q 638 992 714 994 l 472 986 z "},"Ŏ":{"ha":958,"x_min":31,"x_max":928,"o":"m 567 944 q 835 851 742 944 q 928 560 928 758 q 893 334 928 440 q 790 147 858 228 q 622 19 722 65 q 392 -28 522 -28 q 124 65 217 -28 q 31 357 31 158 q 65 583 31 476 q 168 770 100 689 q 336 898 236 851 q 567 944 436 944 m 550 847 q 430 749 476 847 q 354 433 383 651 q 340 310 347 379 q 333 190 333 240 q 347 106 333 140 q 408 71 361 71 q 494 114 458 71 q 558 248 531 157 q 604 485 585 339 q 618 608 611 539 q 625 728 625 678 q 611 813 625 778 q 550 847 597 847 m 543 1158 q 539 1131 540 1144 q 538 1106 538 1118 q 544 1066 538 1090 q 588 1042 551 1042 q 655 1081 639 1042 q 681 1158 671 1119 l 881 1158 q 791 1028 864 1082 q 574 974 718 974 q 391 1018 451 974 q 331 1121 331 1063 q 335 1158 331 1138 l 543 1158 z "},"Ô":{"ha":958,"x_min":31,"x_max":928,"o":"m 567 944 q 835 851 742 944 q 928 560 928 758 q 893 334 928 440 q 790 147 858 228 q 622 19 722 65 q 392 -28 522 -28 q 124 65 217 -28 q 31 357 31 158 q 65 583 31 476 q 168 770 100 689 q 336 898 236 851 q 567 944 436 944 m 550 847 q 430 749 476 847 q 354 433 383 651 q 340 310 347 379 q 333 190 333 240 q 347 106 333 140 q 408 71 361 71 q 494 114 458 71 q 558 248 531 157 q 604 485 585 339 q 618 608 611 539 q 625 728 625 678 q 611 813 625 778 q 550 847 597 847 z "},"Ö":{"ha":958,"x_min":31,"x_max":928,"o":"m 567 944 q 835 851 742 944 q 928 560 928 758 q 893 334 928 440 q 790 147 858 228 q 622 19 722 65 q 392 -28 522 -28 q 124 65 217 -28 q 31 357 31 158 q 65 583 31 476 q 168 770 100 689 q 336 898 236 851 q 567 944 436 944 m 550 847 q 430 749 476 847 q 354 433 383 651 q 340 310 347 379 q 333 190 333 240 q 347 106 333 140 q 408 71 361 71 q 494 114 458 71 q 558 248 531 157 q 604 485 585 339 q 618 608 611 539 q 625 728 625 678 q 611 813 625 778 q 550 847 597 847 z "},"Ọ":{"ha":958,"x_min":31,"x_max":928,"o":"m 567 944 q 835 851 742 944 q 928 560 928 758 q 893 334 928 440 q 790 147 858 228 q 622 19 722 65 q 392 -28 522 -28 q 124 65 217 -28 q 31 357 31 158 q 65 583 31 476 q 168 770 100 689 q 336 898 236 851 q 567 944 436 944 m 550 847 q 430 749 476 847 q 354 433 383 651 q 340 310 347 379 q 333 190 333 240 q 347 106 333 140 q 408 71 361 71 q 494 114 458 71 q 558 248 531 157 q 604 485 585 339 q 618 608 611 539 q 625 728 625 678 q 611 813 625 778 q 550 847 597 847 m 394 -58 q 494 -85 456 -58 q 533 -164 533 -112 q 492 -243 533 -217 q 389 -269 450 -269 q 288 -243 328 -269 q 247 -167 247 -217 q 290 -86 247 -114 q 394 -58 333 -58 z "},"Ò":{"ha":958,"x_min":31,"x_max":928,"o":"m 567 944 q 835 851 742 944 q 928 560 928 758 q 893 334 928 440 q 790 147 858 228 q 622 19 722 65 q 392 -28 522 -28 q 124 65 217 -28 q 31 357 31 158 q 65 583 31 476 q 168 770 100 689 q 336 898 236 851 q 567 944 436 944 m 550 847 q 430 749 476 847 q 354 433 383 651 q 340 310 347 379 q 333 190 333 240 q 347 106 333 140 q 408 71 361 71 q 494 114 458 71 q 558 248 531 157 q 604 485 585 339 q 618 608 611 539 q 625 728 625 678 q 611 813 625 778 q 550 847 597 847 m 729 1056 l 713 988 l 547 993 q 410 1022 471 994 q 350 1122 350 1050 q 389 1197 350 1169 l 729 1056 z "},"Ő":{"ha":958,"x_min":31,"x_max":958,"o":"m 567 944 q 835 851 742 944 q 928 560 928 758 q 893 334 928 440 q 790 147 858 228 q 622 19 722 65 q 392 -28 522 -28 q 124 65 217 -28 q 31 357 31 158 q 65 583 31 476 q 168 770 100 689 q 336 898 236 851 q 567 944 436 944 m 550 847 q 430 749 476 847 q 354 433 383 651 q 340 310 347 379 q 333 190 333 240 q 347 106 333 140 q 408 71 361 71 q 494 114 458 71 q 558 248 531 157 q 604 485 585 339 q 618 608 611 539 q 625 728 625 678 q 611 813 625 778 q 550 847 597 847 m 335 1015 l 593 1190 q 654 1114 654 1163 q 616 1038 654 1061 q 497 996 578 1014 l 374 968 l 335 1015 m 639 1015 l 899 1190 q 958 1115 958 1161 q 920 1038 958 1063 q 801 996 882 1014 l 679 968 l 639 1015 z "},"Ō":{"ha":958,"x_min":31,"x_max":928,"o":"m 567 944 q 835 851 742 944 q 928 560 928 758 q 893 334 928 440 q 790 147 858 228 q 622 19 722 65 q 392 -28 522 -28 q 124 65 217 -28 q 31 357 31 158 q 65 583 31 476 q 168 770 100 689 q 336 898 236 851 q 567 944 436 944 m 550 847 q 430 749 476 847 q 354 433 383 651 q 340 310 347 379 q 333 190 333 240 q 347 106 333 140 q 408 71 361 71 q 494 114 458 71 q 558 248 531 157 q 604 485 585 339 q 618 608 611 539 q 625 728 625 678 q 611 813 625 778 q 550 847 597 847 m 793 1156 q 799 1117 799 1133 q 772 1053 799 1079 q 693 1028 746 1028 l 368 1028 q 365 1048 365 1038 q 364 1065 364 1058 q 392 1131 365 1106 q 458 1156 418 1156 l 793 1156 z "},"Ǫ":{"ha":958,"x_min":31,"x_max":928,"o":"m 567 944 q 835 851 742 944 q 928 560 928 758 q 893 334 928 440 q 790 147 858 228 q 622 19 722 65 q 392 -28 522 -28 q 124 65 217 -28 q 31 357 31 158 q 65 583 31 476 q 168 770 100 689 q 336 898 236 851 q 567 944 436 944 m 550 847 q 430 749 476 847 q 354 433 383 651 q 340 310 347 379 q 333 190 333 240 q 347 106 333 140 q 408 71 361 71 q 494 114 458 71 q 558 248 531 157 q 604 485 585 339 q 618 608 611 539 q 625 728 625 678 q 611 813 625 778 q 550 847 597 847 m 607 22 l 607 14 q 518 -70 556 -21 q 481 -171 481 -119 q 546 -242 481 -242 q 593 -233 571 -242 q 632 -207 615 -225 q 657 -272 657 -239 q 619 -333 657 -307 q 507 -358 581 -358 q 374 -319 422 -358 q 325 -203 325 -281 q 392 -51 325 -108 q 546 31 458 6 l 607 22 z "},"Ø":{"ha":958,"x_min":13,"x_max":928,"o":"m 838 1001 q 892 973 868 1001 q 917 908 917 944 q 881 825 917 864 l 867 810 q 928 560 928 717 q 893 334 928 440 q 790 147 858 228 q 622 19 722 65 q 392 -28 522 -28 q 113 75 204 -28 l 239 90 l 194 50 q 135 -17 163 19 q 92 -81 107 -53 q 13 3 15 -81 q 46 90 13 53 l 79 128 q 31 357 31 217 q 65 583 31 476 q 168 770 100 689 q 336 898 236 851 q 567 944 436 944 q 715 924 649 944 q 824 860 781 904 l 714 849 l 758 900 q 804 954 788 933 q 838 1001 821 975 m 608 519 l 267 133 l 333 264 l 333 190 q 347 106 333 140 q 408 71 361 71 q 506 126 468 71 q 564 258 543 181 q 594 409 585 336 q 608 519 604 482 m 550 847 q 430 750 476 847 q 354 435 383 653 q 350 396 353 415 q 346 357 347 376 l 268 343 l 625 747 q 608 819 622 790 q 550 847 593 847 z "},"Ǿ":{"ha":958,"x_min":13,"x_max":928,"o":"m 838 1001 q 892 973 868 1001 q 917 908 917 944 q 881 825 917 864 l 867 810 q 928 560 928 717 q 893 334 928 440 q 790 147 858 228 q 622 19 722 65 q 392 -28 522 -28 q 113 75 204 -28 l 239 90 l 194 50 q 135 -17 163 19 q 92 -81 107 -53 q 13 3 15 -81 q 46 90 13 53 l 79 128 q 31 357 31 217 q 65 583 31 476 q 168 770 100 689 q 336 898 236 851 q 567 944 436 944 q 715 924 649 944 q 824 860 781 904 l 714 849 l 758 900 q 804 954 788 933 q 838 1001 821 975 m 608 519 l 267 133 l 333 264 l 333 190 q 347 106 333 140 q 408 71 361 71 q 506 126 468 71 q 564 258 543 181 q 594 409 585 336 q 608 519 604 482 m 550 847 q 430 750 476 847 q 354 435 383 653 q 350 396 353 415 q 346 357 347 376 l 268 343 l 625 747 q 608 819 622 790 q 550 847 593 847 m 453 986 l 436 1054 l 776 1196 q 805 1165 794 1182 q 815 1121 815 1147 q 755 1022 815 1049 q 618 992 694 994 l 453 986 z "},"Õ":{"ha":958,"x_min":31,"x_max":928,"o":"m 567 944 q 835 851 742 944 q 928 560 928 758 q 893 334 928 440 q 790 147 858 228 q 622 19 722 65 q 392 -28 522 -28 q 124 65 217 -28 q 31 357 31 158 q 65 583 31 476 q 168 770 100 689 q 336 898 236 851 q 567 944 436 944 m 550 847 q 430 749 476 847 q 354 433 383 651 q 340 310 347 379 q 333 190 333 240 q 347 106 333 140 q 408 71 361 71 q 494 114 458 71 q 558 248 531 157 q 604 485 585 339 q 618 608 611 539 q 625 728 625 678 q 611 813 625 778 q 550 847 597 847 m 825 1176 q 851 1106 851 1144 q 718 1003 851 1003 q 627 1009 683 1003 q 516 1022 571 1015 q 433 1028 461 1028 q 378 1020 404 1028 q 340 1004 353 1013 q 313 1083 313 1044 q 450 1176 313 1176 q 545 1170 489 1176 q 656 1158 601 1164 q 742 1153 710 1153 q 825 1176 801 1153 z "},"Œ":{"ha":1210,"x_min":31,"x_max":1250,"o":"m 1147 538 q 1110 422 1147 461 q 1004 382 1072 382 q 936 390 974 382 q 868 414 899 399 q 856 342 861 376 q 851 281 851 308 q 882 193 851 215 q 978 171 913 171 q 1049 176 1011 171 q 1121 193 1088 181 q 1131 157 1128 175 q 1133 125 1133 139 q 1056 2 1133 32 q 896 -28 979 -28 q 672 69 733 -28 q 544 -7 618 14 q 392 -28 469 -28 q 124 65 217 -28 q 31 354 31 158 q 92 647 31 513 q 271 863 153 781 q 558 944 389 944 q 731 917 656 944 l 1250 917 q 1201 783 1250 824 q 1082 743 1153 743 q 1003 752 1047 743 q 918 781 958 761 l 885 538 l 1147 538 m 408 71 q 494 114 458 71 q 558 248 531 157 q 604 485 585 339 q 618 608 611 539 q 625 728 625 678 q 611 813 625 778 q 550 847 597 847 q 464 804 500 847 q 401 669 428 761 q 354 433 374 578 q 340 310 347 379 q 333 190 333 240 q 347 106 333 140 q 408 71 361 71 z "},"P":{"ha":865,"x_min":-8,"x_max":908,"o":"m 293 0 l -8 0 l 167 917 q 258 921 225 919 q 326 924 292 922 q 422 925 361 925 q 686 910 578 925 q 851 842 794 894 q 908 682 908 790 q 814 456 908 536 q 582 376 719 376 q 477 394 525 376 q 413 457 429 411 q 463 463 442 457 q 594 541 547 476 q 640 694 640 606 q 606 801 640 769 q 506 833 572 833 q 477 832 493 833 q 451 829 461 831 l 293 0 z "},"Þ":{"ha":819,"x_min":-10,"x_max":875,"o":"m 471 917 l 438 746 q 462 747 447 747 q 488 747 476 747 q 685 729 597 747 q 824 658 772 711 q 875 501 875 606 q 782 280 875 361 q 549 199 689 199 q 444 216 492 199 q 379 279 396 233 q 397 280 388 279 q 414 282 406 281 q 555 355 503 293 q 607 515 607 417 q 574 624 607 592 q 472 656 540 656 q 445 654 460 656 q 419 651 431 653 l 293 0 l -10 0 l 167 917 l 471 917 z "},"Q":{"ha":961,"x_min":40,"x_max":938,"o":"m 579 944 q 845 851 753 944 q 938 564 938 757 q 872 289 938 417 q 698 78 807 161 q 458 -18 589 -6 q 543 -41 494 -31 q 661 -51 592 -51 q 769 -40 717 -51 q 858 -8 821 -29 q 875 -92 875 -39 q 810 -221 875 -186 q 676 -256 744 -256 q 528 -232 592 -256 q 405 -184 464 -208 q 274 -160 346 -160 q 206 -167 239 -160 q 146 -194 174 -175 q 104 -85 104 -144 q 165 19 104 -3 q 328 53 225 40 q 444 97 389 61 q 544 224 500 133 q 614 485 588 314 q 630 613 625 551 q 635 718 635 675 q 622 809 635 771 q 567 847 610 847 q 485 806 522 847 q 422 696 449 764 q 375 551 394 628 q 351 430 361 492 q 342 317 342 368 q 353 246 342 281 q 407 208 364 211 q 367 141 407 167 q 258 115 328 115 q 93 185 146 115 q 40 386 40 256 q 78 601 40 500 q 186 780 115 703 q 356 901 257 857 q 579 944 456 944 z "},"R":{"ha":890,"x_min":-4,"x_max":890,"o":"m 167 917 q 339 922 263 919 q 486 924 415 924 q 692 908 600 924 q 837 843 783 893 q 890 688 890 793 q 828 501 890 574 q 665 406 767 428 q 757 192 706 276 q 868 82 808 108 q 808 -1 850 26 q 704 -28 765 -28 q 551 37 606 -28 q 465 215 496 101 q 406 474 433 328 q 411 474 408 474 q 415 474 414 474 q 567 528 514 474 q 621 690 621 583 q 594 796 621 758 q 503 833 568 833 q 472 833 485 833 q 453 832 460 833 l 293 0 l -4 0 l 167 917 z "},"Ŕ":{"ha":890,"x_min":-4,"x_max":890,"o":"m 167 917 q 339 922 263 919 q 486 924 415 924 q 692 908 600 924 q 837 843 783 893 q 890 688 890 793 q 828 501 890 574 q 665 406 767 428 q 757 192 706 276 q 868 82 808 108 q 808 -1 850 26 q 704 -28 765 -28 q 551 37 606 -28 q 465 215 496 101 q 406 474 433 328 q 411 474 408 474 q 415 474 414 474 q 567 528 514 474 q 621 690 621 583 q 594 796 621 758 q 503 833 568 833 q 472 833 485 833 q 453 832 460 833 l 293 0 l -4 0 l 167 917 m 424 986 l 407 1054 l 747 1196 q 776 1165 765 1182 q 786 1121 786 1147 q 726 1022 786 1049 q 589 992 665 994 l 424 986 z "},"Ř":{"ha":890,"x_min":-4,"x_max":890,"o":"m 167 917 q 339 922 263 919 q 486 924 415 924 q 692 908 600 924 q 837 843 783 893 q 890 688 890 793 q 828 501 890 574 q 665 406 767 428 q 757 192 706 276 q 868 82 808 108 q 808 -1 850 26 q 704 -28 765 -28 q 551 37 606 -28 q 465 215 496 101 q 406 474 433 328 q 411 474 408 474 q 415 474 414 474 q 567 528 514 474 q 621 690 621 583 q 594 796 621 758 q 503 833 568 833 q 472 833 485 833 q 453 832 460 833 l 293 0 l -4 0 l 167 917 m 318 1122 l 388 1186 l 550 1114 l 756 1186 l 799 1122 l 581 961 l 489 961 l 318 1122 z "},"Ŗ":{"ha":890,"x_min":-4,"x_max":890,"o":"m 167 917 q 339 922 263 919 q 486 924 415 924 q 692 908 600 924 q 837 843 783 893 q 890 688 890 793 q 828 501 890 574 q 665 406 767 428 q 757 192 706 276 q 868 82 808 108 q 808 -1 850 26 q 704 -28 765 -28 q 551 37 606 -28 q 465 215 496 101 q 406 474 433 328 q 411 474 408 474 q 415 474 414 474 q 567 528 514 474 q 621 690 621 583 q 594 796 621 758 q 503 833 568 833 q 472 833 485 833 q 453 832 460 833 l 293 0 l -4 0 l 167 917 m 501 -165 q 465 -271 501 -228 q 376 -336 428 -314 q 281 -358 325 -358 q 226 -353 246 -358 q 292 -265 269 -306 q 315 -162 315 -224 q 301 -92 315 -122 q 340 -78 313 -85 q 388 -71 368 -71 q 472 -98 442 -71 q 501 -165 501 -125 z "},"Ṛ":{"ha":890,"x_min":-4,"x_max":890,"o":"m 167 917 q 339 922 263 919 q 486 924 415 924 q 692 908 600 924 q 837 843 783 893 q 890 688 890 793 q 828 501 890 574 q 665 406 767 428 q 757 192 706 276 q 868 82 808 108 q 808 -1 850 26 q 704 -28 765 -28 q 551 37 606 -28 q 465 215 496 101 q 406 474 433 328 q 411 474 408 474 q 415 474 414 474 q 567 528 514 474 q 621 690 621 583 q 594 796 621 758 q 503 833 568 833 q 472 833 485 833 q 453 832 460 833 l 293 0 l -4 0 l 167 917 m 392 -58 q 492 -85 453 -58 q 531 -164 531 -112 q 489 -243 531 -217 q 386 -269 447 -269 q 285 -243 325 -269 q 244 -167 244 -217 q 288 -86 244 -114 q 392 -58 331 -58 z "},"S":{"ha":806,"x_min":-3,"x_max":808,"o":"m 536 944 q 660 931 597 944 q 766 882 724 918 q 808 778 808 846 q 756 664 808 700 q 640 628 703 628 q 599 632 619 628 q 560 642 578 636 q 576 697 571 667 q 581 750 581 726 q 563 827 581 797 q 501 857 544 857 q 405 815 447 857 q 363 719 363 772 q 428 613 363 651 q 567 531 493 575 q 681 440 631 493 q 732 297 732 388 q 666 122 732 194 q 493 11 600 50 q 265 -28 386 -28 q 146 -15 208 -28 q 40 35 83 -3 q -3 146 -3 72 q 39 259 -3 214 q 158 304 81 304 q 206 300 181 304 q 257 286 232 296 q 235 165 235 229 q 251 93 235 119 q 314 67 267 67 q 408 98 367 67 q 450 182 450 129 q 385 292 450 250 q 250 376 319 333 q 137 471 186 417 q 88 619 88 525 q 216 856 88 767 q 536 944 344 944 z "},"Ś":{"ha":806,"x_min":-3,"x_max":811,"o":"m 536 944 q 660 931 597 944 q 766 882 724 918 q 808 778 808 846 q 756 664 808 700 q 640 628 703 628 q 599 632 619 628 q 560 642 578 636 q 576 697 571 667 q 581 750 581 726 q 563 827 581 797 q 501 857 544 857 q 405 815 447 857 q 363 719 363 772 q 428 613 363 651 q 567 531 493 575 q 681 440 631 493 q 732 297 732 388 q 666 122 732 194 q 493 11 600 50 q 265 -28 386 -28 q 146 -15 208 -28 q 40 35 83 -3 q -3 146 -3 72 q 39 259 -3 214 q 158 304 81 304 q 206 300 181 304 q 257 286 232 296 q 235 165 235 229 q 251 93 235 119 q 314 67 267 67 q 408 98 367 67 q 450 182 450 129 q 385 292 450 250 q 250 376 319 333 q 137 471 186 417 q 88 619 88 525 q 216 856 88 767 q 536 944 344 944 m 449 986 l 432 1054 l 772 1196 q 801 1165 790 1182 q 811 1121 811 1147 q 751 1022 811 1049 q 614 992 690 994 l 449 986 z "},"Š":{"ha":806,"x_min":-3,"x_max":824,"o":"m 536 944 q 660 931 597 944 q 766 882 724 918 q 808 778 808 846 q 756 664 808 700 q 640 628 703 628 q 599 632 619 628 q 560 642 578 636 q 576 697 571 667 q 581 750 581 726 q 563 827 581 797 q 501 857 544 857 q 405 815 447 857 q 363 719 363 772 q 428 613 363 651 q 567 531 493 575 q 681 440 631 493 q 732 297 732 388 q 666 122 732 194 q 493 11 600 50 q 265 -28 386 -28 q 146 -15 208 -28 q 40 35 83 -3 q -3 146 -3 72 q 39 259 -3 214 q 158 304 81 304 q 206 300 181 304 q 257 286 232 296 q 235 165 235 229 q 251 93 235 119 q 314 67 267 67 q 408 98 367 67 q 450 182 450 129 q 385 292 450 250 q 250 376 319 333 q 137 471 186 417 q 88 619 88 525 q 216 856 88 767 q 536 944 344 944 m 343 1122 l 413 1186 l 575 1114 l 781 1186 l 824 1122 l 606 961 l 514 961 l 343 1122 z "},"Ş":{"ha":806,"x_min":-3,"x_max":808,"o":"m 536 944 q 660 931 597 944 q 766 882 724 918 q 808 778 808 846 q 756 664 808 700 q 640 628 703 628 q 599 632 619 628 q 560 642 578 636 q 576 697 571 667 q 581 750 581 726 q 563 827 581 797 q 501 857 544 857 q 405 815 447 857 q 363 719 363 772 q 428 613 363 651 q 567 531 493 575 q 681 440 631 493 q 732 297 732 388 q 666 122 732 194 q 493 11 600 50 q 265 -28 386 -28 q 146 -15 208 -28 q 40 35 83 -3 q -3 146 -3 72 q 39 259 -3 214 q 158 304 81 304 q 206 300 181 304 q 257 286 232 296 q 235 165 235 229 q 251 93 235 119 q 314 67 267 67 q 408 98 367 67 q 450 182 450 129 q 385 292 450 250 q 250 376 319 333 q 137 471 186 417 q 88 619 88 525 q 216 856 88 767 q 536 944 344 944 m 363 15 l 328 -101 l 313 -83 q 341 -80 318 -81 q 379 -79 364 -79 q 487 -105 442 -79 q 532 -192 532 -131 q 464 -312 532 -265 q 300 -358 396 -358 q 203 -339 239 -358 q 168 -285 168 -319 q 193 -219 168 -242 q 230 -252 207 -240 q 293 -264 253 -264 q 344 -250 325 -264 q 364 -204 364 -236 q 338 -162 364 -172 q 283 -153 311 -153 q 253 -153 267 -153 q 225 -156 239 -154 l 276 15 l 363 15 z "},"Ŝ":{"ha":806,"x_min":-3,"x_max":808,"o":"m 536 944 q 660 931 597 944 q 766 882 724 918 q 808 778 808 846 q 756 664 808 700 q 640 628 703 628 q 599 632 619 628 q 560 642 578 636 q 576 697 571 667 q 581 750 581 726 q 563 827 581 797 q 501 857 544 857 q 405 815 447 857 q 363 719 363 772 q 428 613 363 651 q 567 531 493 575 q 681 440 631 493 q 732 297 732 388 q 666 122 732 194 q 493 11 600 50 q 265 -28 386 -28 q 146 -15 208 -28 q 40 35 83 -3 q -3 146 -3 72 q 39 259 -3 214 q 158 304 81 304 q 206 300 181 304 q 257 286 232 296 q 235 165 235 229 q 251 93 235 119 q 314 67 267 67 q 408 98 367 67 q 450 182 450 129 q 385 292 450 250 q 250 376 319 333 q 137 471 186 417 q 88 619 88 525 q 216 856 88 767 q 536 944 344 944 z "},"Ș":{"ha":806,"x_min":-3,"x_max":808,"o":"m 536 944 q 660 931 597 944 q 766 882 724 918 q 808 778 808 846 q 756 664 808 700 q 640 628 703 628 q 599 632 619 628 q 560 642 578 636 q 576 697 571 667 q 581 750 581 726 q 563 827 581 797 q 501 857 544 857 q 405 815 447 857 q 363 719 363 772 q 428 613 363 651 q 567 531 493 575 q 681 440 631 493 q 732 297 732 388 q 666 122 732 194 q 493 11 600 50 q 265 -28 386 -28 q 146 -15 208 -28 q 40 35 83 -3 q -3 146 -3 72 q 39 259 -3 214 q 158 304 81 304 q 206 300 181 304 q 257 286 232 296 q 235 165 235 229 q 251 93 235 119 q 314 67 267 67 q 408 98 367 67 q 450 182 450 129 q 385 292 450 250 q 250 376 319 333 q 137 471 186 417 q 88 619 88 525 q 216 856 88 767 q 536 944 344 944 m 408 -165 q 372 -271 408 -228 q 283 -336 335 -314 q 188 -358 232 -358 q 133 -353 153 -358 q 199 -265 176 -306 q 222 -162 222 -224 q 208 -92 222 -122 q 247 -78 219 -85 q 294 -71 275 -71 q 378 -98 349 -71 q 408 -165 408 -125 z "},"Ṣ":{"ha":806,"x_min":-3,"x_max":808,"o":"m 536 944 q 660 931 597 944 q 766 882 724 918 q 808 778 808 846 q 756 664 808 700 q 640 628 703 628 q 599 632 619 628 q 560 642 578 636 q 576 697 571 667 q 581 750 581 726 q 563 827 581 797 q 501 857 544 857 q 405 815 447 857 q 363 719 363 772 q 428 613 363 651 q 567 531 493 575 q 681 440 631 493 q 732 297 732 388 q 666 122 732 194 q 493 11 600 50 q 265 -28 386 -28 q 146 -15 208 -28 q 40 35 83 -3 q -3 146 -3 72 q 39 259 -3 214 q 158 304 81 304 q 206 300 181 304 q 257 286 232 296 q 235 165 235 229 q 251 93 235 119 q 314 67 267 67 q 408 98 367 67 q 450 182 450 129 q 385 292 450 250 q 250 376 319 333 q 137 471 186 417 q 88 619 88 525 q 216 856 88 767 q 536 944 344 944 m 299 -58 q 399 -85 360 -58 q 438 -164 438 -112 q 396 -243 438 -217 q 293 -269 354 -269 q 192 -243 232 -269 q 151 -167 151 -217 q 194 -86 151 -114 q 299 -58 238 -58 z "},"ẞ":{"ha":1051,"x_min":-21,"x_max":1013,"o":"m -21 0 l 69 460 q 194 765 108 661 q 395 907 281 869 q 636 944 510 944 q 871 909 781 944 q 1013 807 961 874 q 944 773 1000 801 q 838 700 889 744 q 788 600 788 656 q 817 531 788 558 q 887 476 847 504 q 956 403 926 447 q 986 283 986 358 q 931 116 986 186 q 786 9 875 46 q 594 -28 697 -28 q 495 -17 547 -28 q 406 26 443 -6 q 369 121 369 58 q 401 212 369 175 q 490 249 433 249 q 568 231 532 249 q 556 188 561 208 q 551 143 551 167 q 565 88 551 110 q 615 67 579 67 q 690 106 668 67 q 711 172 711 144 q 681 241 711 213 q 610 298 650 269 q 539 369 569 326 q 508 481 508 411 q 548 615 508 556 q 652 723 588 675 q 789 808 717 771 q 733 858 769 836 q 643 881 696 881 q 472 771 532 881 q 375 475 411 661 l 282 0 l -21 0 z "},"Ə":{"ha":819,"x_min":-21,"x_max":789,"o":"m 243 -36 q 60 5 140 -36 q -21 176 -21 46 q 83 388 -21 308 q 397 481 188 468 q 439 482 418 482 q 482 482 460 482 q 489 567 489 531 q 460 689 489 646 q 358 732 432 732 q 234 702 297 732 q 136 617 171 672 q 108 650 117 631 q 100 696 100 669 q 153 829 100 774 q 289 915 206 885 q 464 944 372 944 q 703 851 618 944 q 789 556 789 757 q 728 265 789 400 q 547 47 668 131 q 243 -36 425 -36 m 282 40 q 353 79 318 40 q 418 201 388 118 q 471 419 449 285 q 339 384 394 419 q 253 287 283 349 q 222 146 222 225 q 235 69 222 99 q 282 40 247 40 z "},"T":{"ha":633,"x_min":31,"x_max":735,"o":"m 578 917 q 660 921 625 917 q 714 931 694 925 q 730 894 725 917 q 735 851 735 871 q 690 769 735 788 q 581 750 644 750 l 511 750 l 407 222 q 398 162 401 193 q 394 107 394 131 q 400 56 394 81 q 413 19 406 32 q 336 -16 378 -4 q 254 -28 294 -28 q 143 10 178 -28 q 108 114 108 49 q 117 218 108 150 q 149 396 125 286 l 222 750 l 132 750 q 81 749 104 750 q 36 744 58 747 q 32 774 33 757 q 31 803 31 792 q 68 892 31 867 q 169 917 106 917 l 578 917 z "},"Ŧ":{"ha":633,"x_min":-4,"x_max":735,"o":"m 714 931 q 730 894 725 917 q 735 851 735 871 q 690 769 735 788 q 581 750 644 750 l 511 750 l 467 526 l 647 526 q 653 488 653 504 q 626 424 653 450 q 547 399 600 399 l 442 399 l 407 222 q 398 162 401 193 q 394 107 394 131 q 400 56 394 81 q 413 19 406 32 q 336 -16 378 -4 q 254 -28 294 -28 q 143 10 178 -28 q 108 114 108 49 q 113 179 108 139 q 128 279 117 219 l 149 399 l 0 399 q -3 419 -3 408 q -4 436 -4 429 q 24 501 -3 476 q 90 526 50 526 l 176 526 l 222 750 l 132 750 q 81 749 104 750 q 36 744 58 747 q 32 774 33 757 q 31 803 31 792 q 68 892 31 867 q 169 917 106 917 l 578 917 q 660 921 625 917 q 714 931 694 925 z "},"Ť":{"ha":633,"x_min":31,"x_max":735,"o":"m 578 917 q 660 921 625 917 q 714 931 694 925 q 730 894 725 917 q 735 851 735 871 q 690 769 735 788 q 581 750 644 750 l 511 750 l 407 222 q 398 162 401 193 q 394 107 394 131 q 400 56 394 81 q 413 19 406 32 q 336 -16 378 -4 q 254 -28 294 -28 q 143 10 178 -28 q 108 114 108 49 q 117 218 108 150 q 149 396 125 286 l 222 750 l 132 750 q 81 749 104 750 q 36 744 58 747 q 32 774 33 757 q 31 803 31 792 q 68 892 31 867 q 169 917 106 917 l 578 917 m 197 1122 l 267 1186 l 429 1114 l 635 1186 l 678 1122 l 460 961 l 368 961 l 197 1122 z "},"Ţ":{"ha":633,"x_min":31,"x_max":735,"o":"m 578 917 q 660 921 625 917 q 714 931 694 925 q 730 894 725 917 q 735 851 735 871 q 690 769 735 788 q 581 750 644 750 l 511 750 l 407 222 q 398 162 401 193 q 394 107 394 131 q 400 56 394 81 q 413 19 406 32 q 336 -16 378 -4 q 254 -28 294 -28 q 143 10 178 -28 q 108 114 108 49 q 117 218 108 150 q 149 396 125 286 l 222 750 l 132 750 q 81 749 104 750 q 36 744 58 747 q 32 774 33 757 q 31 803 31 792 q 68 892 31 867 q 169 917 106 917 l 578 917 m 278 15 l 243 -101 l 228 -83 q 256 -80 233 -81 q 294 -79 279 -79 q 402 -105 357 -79 q 447 -192 447 -131 q 379 -312 447 -265 q 215 -358 311 -358 q 119 -339 154 -358 q 83 -285 83 -319 q 108 -219 83 -242 q 145 -252 122 -240 q 208 -264 168 -264 q 260 -250 240 -264 q 279 -204 279 -236 q 253 -162 279 -172 q 199 -153 226 -153 q 168 -153 182 -153 q 140 -156 154 -154 l 192 15 l 278 15 z "},"Ț":{"ha":633,"x_min":31,"x_max":735,"o":"m 578 917 q 660 921 625 917 q 714 931 694 925 q 730 894 725 917 q 735 851 735 871 q 690 769 735 788 q 581 750 644 750 l 511 750 l 407 222 q 398 162 401 193 q 394 107 394 131 q 400 56 394 81 q 413 19 406 32 q 336 -16 378 -4 q 254 -28 294 -28 q 143 10 178 -28 q 108 114 108 49 q 117 218 108 150 q 149 396 125 286 l 222 750 l 132 750 q 81 749 104 750 q 36 744 58 747 q 32 774 33 757 q 31 803 31 792 q 68 892 31 867 q 169 917 106 917 l 578 917 m 324 -165 q 287 -271 324 -228 q 199 -336 250 -314 q 103 -358 147 -358 q 49 -353 68 -358 q 115 -265 92 -306 q 138 -162 138 -224 q 124 -92 138 -122 q 163 -78 135 -85 q 210 -71 190 -71 q 294 -98 264 -71 q 324 -165 324 -125 z "},"Ṭ":{"ha":633,"x_min":31,"x_max":735,"o":"m 578 917 q 660 921 625 917 q 714 931 694 925 q 730 894 725 917 q 735 851 735 871 q 690 769 735 788 q 581 750 644 750 l 511 750 l 407 222 q 398 162 401 193 q 394 107 394 131 q 400 56 394 81 q 413 19 406 32 q 336 -16 378 -4 q 254 -28 294 -28 q 143 10 178 -28 q 108 114 108 49 q 117 218 108 150 q 149 396 125 286 l 222 750 l 132 750 q 81 749 104 750 q 36 744 58 747 q 32 774 33 757 q 31 803 31 792 q 68 892 31 867 q 169 917 106 917 l 578 917 m 214 -58 q 314 -85 275 -58 q 353 -164 353 -112 q 311 -243 353 -217 q 208 -269 269 -269 q 107 -243 147 -269 q 67 -167 67 -217 q 110 -86 67 -114 q 214 -58 153 -58 z "},"U":{"ha":897,"x_min":36,"x_max":911,"o":"m 911 917 l 804 354 q 665 67 768 161 q 364 -28 561 -28 q 132 22 228 -28 q 36 197 36 72 q 42 274 36 228 q 54 357 47 321 l 163 917 l 469 917 l 361 339 q 350 266 356 307 q 344 199 344 225 q 431 100 344 100 q 541 168 510 100 q 592 339 572 236 l 701 917 l 911 917 z "},"Ú":{"ha":897,"x_min":36,"x_max":911,"o":"m 911 917 l 804 354 q 665 67 768 161 q 364 -28 561 -28 q 132 22 228 -28 q 36 197 36 72 q 42 274 36 228 q 54 357 47 321 l 163 917 l 469 917 l 361 339 q 350 266 356 307 q 344 199 344 225 q 431 100 344 100 q 541 168 510 100 q 592 339 572 236 l 701 917 l 911 917 m 479 986 l 463 1054 l 803 1196 q 831 1165 821 1182 q 842 1121 842 1147 q 781 1022 842 1049 q 644 992 721 994 l 479 986 z "},"Ŭ":{"ha":897,"x_min":36,"x_max":911,"o":"m 911 917 l 804 354 q 665 67 768 161 q 364 -28 561 -28 q 132 22 228 -28 q 36 197 36 72 q 42 274 36 228 q 54 357 47 321 l 163 917 l 469 917 l 361 339 q 350 266 356 307 q 344 199 344 225 q 431 100 344 100 q 541 168 510 100 q 592 339 572 236 l 701 917 l 911 917 m 550 1158 q 546 1131 547 1144 q 544 1106 544 1118 q 551 1066 544 1090 q 594 1042 558 1042 q 662 1081 646 1042 q 688 1158 678 1119 l 888 1158 q 798 1028 871 1082 q 581 974 725 974 q 398 1018 458 974 q 338 1121 338 1063 q 342 1158 338 1138 l 550 1158 z "},"Û":{"ha":897,"x_min":36,"x_max":911,"o":"m 911 917 l 804 354 q 665 67 768 161 q 364 -28 561 -28 q 132 22 228 -28 q 36 197 36 72 q 42 274 36 228 q 54 357 47 321 l 163 917 l 469 917 l 361 339 q 350 266 356 307 q 344 199 344 225 q 431 100 344 100 q 541 168 510 100 q 592 339 572 236 l 701 917 l 911 917 z "},"Ü":{"ha":897,"x_min":36,"x_max":911,"o":"m 911 917 l 804 354 q 665 67 768 161 q 364 -28 561 -28 q 132 22 228 -28 q 36 197 36 72 q 42 274 36 228 q 54 357 47 321 l 163 917 l 469 917 l 361 339 q 350 266 356 307 q 344 199 344 225 q 431 100 344 100 q 541 168 510 100 q 592 339 572 236 l 701 917 l 911 917 z "},"Ụ":{"ha":897,"x_min":36,"x_max":911,"o":"m 911 917 l 804 354 q 665 67 768 161 q 364 -28 561 -28 q 132 22 228 -28 q 36 197 36 72 q 42 274 36 228 q 54 357 47 321 l 163 917 l 469 917 l 361 339 q 350 266 356 307 q 344 199 344 225 q 431 100 344 100 q 541 168 510 100 q 592 339 572 236 l 701 917 l 911 917 m 367 -58 q 467 -85 428 -58 q 506 -164 506 -112 q 464 -243 506 -217 q 361 -269 422 -269 q 260 -243 300 -269 q 219 -167 219 -217 q 263 -86 219 -114 q 367 -58 306 -58 z "},"Ù":{"ha":897,"x_min":36,"x_max":911,"o":"m 911 917 l 804 354 q 665 67 768 161 q 364 -28 561 -28 q 132 22 228 -28 q 36 197 36 72 q 42 274 36 228 q 54 357 47 321 l 163 917 l 469 917 l 361 339 q 350 266 356 307 q 344 199 344 225 q 431 100 344 100 q 541 168 510 100 q 592 339 572 236 l 701 917 l 911 917 m 736 1056 l 719 988 l 554 993 q 417 1022 478 994 q 357 1122 357 1050 q 396 1197 357 1169 l 736 1056 z "},"Ű":{"ha":897,"x_min":36,"x_max":965,"o":"m 911 917 l 804 354 q 665 67 768 161 q 364 -28 561 -28 q 132 22 228 -28 q 36 197 36 72 q 42 274 36 228 q 54 357 47 321 l 163 917 l 469 917 l 361 339 q 350 266 356 307 q 344 199 344 225 q 431 100 344 100 q 541 168 510 100 q 592 339 572 236 l 701 917 l 911 917 m 342 1015 l 600 1190 q 661 1114 661 1163 q 623 1038 661 1061 q 504 996 585 1014 l 381 968 l 342 1015 m 646 1015 l 906 1190 q 965 1115 965 1161 q 927 1038 965 1063 q 808 996 889 1014 l 686 968 l 646 1015 z "},"Ū":{"ha":897,"x_min":36,"x_max":911,"o":"m 911 917 l 804 354 q 665 67 768 161 q 364 -28 561 -28 q 132 22 228 -28 q 36 197 36 72 q 42 274 36 228 q 54 357 47 321 l 163 917 l 469 917 l 361 339 q 350 266 356 307 q 344 199 344 225 q 431 100 344 100 q 541 168 510 100 q 592 339 572 236 l 701 917 l 911 917 m 800 1156 q 806 1117 806 1133 q 779 1053 806 1079 q 700 1028 753 1028 l 375 1028 q 372 1048 372 1038 q 371 1065 371 1058 q 399 1131 372 1106 q 465 1156 425 1156 l 800 1156 z "},"Ų":{"ha":897,"x_min":36,"x_max":911,"o":"m 911 917 l 804 354 q 665 67 768 161 q 364 -28 561 -28 q 132 22 228 -28 q 36 197 36 72 q 42 274 36 228 q 54 357 47 321 l 163 917 l 469 917 l 361 339 q 350 266 356 307 q 344 199 344 225 q 431 100 344 100 q 541 168 510 100 q 592 339 572 236 l 701 917 l 911 917 m 582 22 l 582 14 q 493 -70 531 -21 q 456 -171 456 -119 q 521 -242 456 -242 q 568 -233 546 -242 q 607 -207 590 -225 q 632 -272 632 -239 q 594 -333 632 -307 q 482 -358 556 -358 q 349 -319 397 -358 q 300 -203 300 -281 q 367 -51 300 -108 q 521 31 433 6 l 582 22 z "},"Ů":{"ha":897,"x_min":36,"x_max":911,"o":"m 911 917 l 804 354 q 665 67 768 161 q 364 -28 561 -28 q 132 22 228 -28 q 36 197 36 72 q 42 274 36 228 q 54 357 47 321 l 163 917 l 469 917 l 361 339 q 350 266 356 307 q 344 199 344 225 q 431 100 344 100 q 541 168 510 100 q 592 339 572 236 l 701 917 l 911 917 m 758 1090 q 703 993 758 1028 q 579 958 649 958 q 487 983 522 958 q 451 1054 451 1008 q 508 1151 451 1115 q 633 1186 564 1186 q 724 1162 690 1186 q 758 1090 758 1138 m 664 1086 q 619 1132 664 1132 q 565 1110 585 1132 q 546 1054 546 1089 q 590 1008 546 1008 q 645 1030 626 1008 q 664 1086 664 1051 z "},"Ũ":{"ha":897,"x_min":36,"x_max":911,"o":"m 911 917 l 804 354 q 665 67 768 161 q 364 -28 561 -28 q 132 22 228 -28 q 36 197 36 72 q 42 274 36 228 q 54 357 47 321 l 163 917 l 469 917 l 361 339 q 350 266 356 307 q 344 199 344 225 q 431 100 344 100 q 541 168 510 100 q 592 339 572 236 l 701 917 l 911 917 m 832 1176 q 858 1106 858 1144 q 725 1003 858 1003 q 634 1009 690 1003 q 523 1022 578 1015 q 440 1028 468 1028 q 385 1020 411 1028 q 347 1004 360 1013 q 319 1083 319 1044 q 457 1176 319 1176 q 552 1170 496 1176 q 663 1158 608 1164 q 749 1153 717 1153 q 832 1176 808 1153 z "},"V":{"ha":751,"x_min":11,"x_max":882,"o":"m 83 667 q 60 789 78 742 q 11 861 42 836 q 178 944 56 944 q 342 863 306 944 q 379 653 379 782 l 379 171 l 711 917 l 882 917 l 450 0 l 125 0 l 83 667 z "},"W":{"ha":1260,"x_min":11,"x_max":1390,"o":"m 83 667 q 60 789 78 742 q 11 861 42 836 q 178 944 56 944 q 342 863 306 944 q 379 653 379 782 l 379 171 l 689 917 l 854 917 l 897 171 l 1219 917 l 1390 917 l 968 0 l 671 0 l 643 438 l 450 0 l 125 0 l 83 667 z "},"Ẃ":{"ha":1260,"x_min":11,"x_max":1390,"o":"m 83 667 q 60 789 78 742 q 11 861 42 836 q 178 944 56 944 q 342 863 306 944 q 379 653 379 782 l 379 171 l 689 917 l 854 917 l 897 171 l 1219 917 l 1390 917 l 968 0 l 671 0 l 643 438 l 450 0 l 125 0 l 83 667 m 697 986 l 681 1054 l 1021 1196 q 1049 1165 1039 1182 q 1060 1121 1060 1147 q 999 1022 1060 1049 q 863 992 939 994 l 697 986 z "},"Ŵ":{"ha":1260,"x_min":11,"x_max":1390,"o":"m 83 667 q 60 789 78 742 q 11 861 42 836 q 178 944 56 944 q 342 863 306 944 q 379 653 379 782 l 379 171 l 689 917 l 854 917 l 897 171 l 1219 917 l 1390 917 l 968 0 l 671 0 l 643 438 l 450 0 l 125 0 l 83 667 z "},"Ẅ":{"ha":1260,"x_min":11,"x_max":1390,"o":"m 83 667 q 60 789 78 742 q 11 861 42 836 q 178 944 56 944 q 342 863 306 944 q 379 653 379 782 l 379 171 l 689 917 l 854 917 l 897 171 l 1219 917 l 1390 917 l 968 0 l 671 0 l 643 438 l 450 0 l 125 0 l 83 667 z "},"Ẁ":{"ha":1260,"x_min":11,"x_max":1390,"o":"m 83 667 q 60 789 78 742 q 11 861 42 836 q 178 944 56 944 q 342 863 306 944 q 379 653 379 782 l 379 171 l 689 917 l 854 917 l 897 171 l 1219 917 l 1390 917 l 968 0 l 671 0 l 643 438 l 450 0 l 125 0 l 83 667 m 954 1056 l 938 988 l 772 993 q 635 1022 696 994 q 575 1122 575 1050 q 614 1197 575 1169 l 954 1056 z "},"X":{"ha":771,"x_min":-94,"x_max":869,"o":"m 138 722 q 93 815 115 783 q 36 865 71 847 q 115 922 68 900 q 229 943 163 943 q 348 908 307 943 q 418 789 389 874 l 476 624 l 686 917 l 869 917 l 533 464 l 621 217 q 674 119 640 161 q 739 72 708 78 q 664 -4 717 19 q 554 -28 611 -28 q 416 26 463 -28 q 339 167 369 81 l 296 286 l 89 0 l -94 0 l 238 446 l 138 722 z "},"Y":{"ha":764,"x_min":33,"x_max":906,"o":"m 438 481 q 604 835 521 725 q 794 944 688 944 q 906 869 886 944 q 685 683 796 822 q 507 354 575 544 l 438 0 l 135 0 l 215 408 q 170 656 194 565 q 113 792 146 746 q 33 865 81 839 q 109 923 63 901 q 217 944 156 944 q 386 857 335 944 q 438 581 438 769 l 438 481 z "},"Ý":{"ha":764,"x_min":33,"x_max":906,"o":"m 438 481 q 604 835 521 725 q 794 944 688 944 q 906 869 886 944 q 685 683 796 822 q 507 354 575 544 l 438 0 l 135 0 l 215 408 q 170 656 194 565 q 113 792 146 746 q 33 865 81 839 q 109 923 63 901 q 217 944 156 944 q 386 857 335 944 q 438 581 438 769 l 438 481 m 418 986 l 401 1054 l 742 1196 q 770 1165 760 1182 q 781 1121 781 1147 q 720 1022 781 1049 q 583 992 660 994 l 418 986 z "},"Ŷ":{"ha":764,"x_min":33,"x_max":906,"o":"m 438 481 q 604 835 521 725 q 794 944 688 944 q 906 869 886 944 q 685 683 796 822 q 507 354 575 544 l 438 0 l 135 0 l 215 408 q 170 656 194 565 q 113 792 146 746 q 33 865 81 839 q 109 923 63 901 q 217 944 156 944 q 386 857 335 944 q 438 581 438 769 l 438 481 z "},"Ÿ":{"ha":764,"x_min":33,"x_max":906,"o":"m 438 481 q 604 835 521 725 q 794 944 688 944 q 906 869 886 944 q 685 683 796 822 q 507 354 575 544 l 438 0 l 135 0 l 215 408 q 170 656 194 565 q 113 792 146 746 q 33 865 81 839 q 109 923 63 901 q 217 944 156 944 q 386 857 335 944 q 438 581 438 769 l 438 481 z "},"Ỳ":{"ha":764,"x_min":33,"x_max":906,"o":"m 438 481 q 604 835 521 725 q 794 944 688 944 q 906 869 886 944 q 685 683 796 822 q 507 354 575 544 l 438 0 l 135 0 l 215 408 q 170 656 194 565 q 113 792 146 746 q 33 865 81 839 q 109 923 63 901 q 217 944 156 944 q 386 857 335 944 q 438 581 438 769 l 438 481 m 675 1056 l 658 988 l 493 993 q 356 1022 417 994 q 296 1122 296 1050 q 335 1197 296 1169 l 675 1056 z "},"Ỹ":{"ha":764,"x_min":33,"x_max":906,"o":"m 438 481 q 604 835 521 725 q 794 944 688 944 q 906 869 886 944 q 685 683 796 822 q 507 354 575 544 l 438 0 l 135 0 l 215 408 q 170 656 194 565 q 113 792 146 746 q 33 865 81 839 q 109 923 63 901 q 217 944 156 944 q 386 857 335 944 q 438 581 438 769 l 438 481 m 771 1176 q 797 1106 797 1144 q 664 1003 797 1003 q 573 1009 629 1003 q 462 1022 517 1015 q 379 1028 407 1028 q 324 1020 350 1028 q 286 1004 299 1013 q 258 1083 258 1044 q 396 1176 258 1176 q 491 1170 435 1176 q 601 1158 547 1164 q 688 1153 656 1153 q 771 1176 747 1153 z "},"Z":{"ha":749,"x_min":-10,"x_max":781,"o":"m 513 665 q 343 689 394 683 q 268 694 292 694 q 192 685 232 694 q 122 663 151 676 q 95 721 106 689 q 85 788 85 753 q 138 902 85 867 q 278 938 190 938 q 440 920 356 938 q 604 903 525 903 q 663 906 631 903 q 725 917 696 910 q 769 855 757 889 q 781 786 781 821 q 757 692 781 731 q 686 615 733 653 l 239 253 q 366 231 299 238 q 489 224 433 224 q 575 231 535 224 q 644 267 615 239 q 674 212 667 239 q 681 156 681 185 q 633 31 681 78 q 454 -17 586 -17 q 267 2 356 -17 q 117 21 179 21 q 44 0 68 21 q 6 60 22 19 q -10 144 -10 100 q 10 225 -10 186 q 76 303 29 264 l 513 665 z "},"Ź":{"ha":749,"x_min":-10,"x_max":781,"o":"m 513 665 q 343 689 394 683 q 268 694 292 694 q 192 685 232 694 q 122 663 151 676 q 95 721 106 689 q 85 788 85 753 q 138 902 85 867 q 278 938 190 938 q 440 920 356 938 q 604 903 525 903 q 663 906 631 903 q 725 917 696 910 q 769 855 757 889 q 781 786 781 821 q 757 692 781 731 q 686 615 733 653 l 239 253 q 366 231 299 238 q 489 224 433 224 q 575 231 535 224 q 644 267 615 239 q 674 212 667 239 q 681 156 681 185 q 633 31 681 78 q 454 -17 586 -17 q 267 2 356 -17 q 117 21 179 21 q 44 0 68 21 q 6 60 22 19 q -10 144 -10 100 q 10 225 -10 186 q 76 303 29 264 l 513 665 m 343 986 l 326 1054 l 667 1196 q 695 1165 685 1182 q 706 1121 706 1147 q 645 1022 706 1049 q 508 992 585 994 l 343 986 z "},"Ž":{"ha":749,"x_min":-10,"x_max":781,"o":"m 513 665 q 343 689 394 683 q 268 694 292 694 q 192 685 232 694 q 122 663 151 676 q 95 721 106 689 q 85 788 85 753 q 138 902 85 867 q 278 938 190 938 q 440 920 356 938 q 604 903 525 903 q 663 906 631 903 q 725 917 696 910 q 769 855 757 889 q 781 786 781 821 q 757 692 781 731 q 686 615 733 653 l 239 253 q 366 231 299 238 q 489 224 433 224 q 575 231 535 224 q 644 267 615 239 q 674 212 667 239 q 681 156 681 185 q 633 31 681 78 q 454 -17 586 -17 q 267 2 356 -17 q 117 21 179 21 q 44 0 68 21 q 6 60 22 19 q -10 144 -10 100 q 10 225 -10 186 q 76 303 29 264 l 513 665 m 238 1122 l 307 1186 l 469 1114 l 675 1186 l 718 1122 l 500 961 l 408 961 l 238 1122 z "},"Ż":{"ha":749,"x_min":-10,"x_max":781,"o":"m 513 665 q 343 689 394 683 q 268 694 292 694 q 192 685 232 694 q 122 663 151 676 q 95 721 106 689 q 85 788 85 753 q 138 902 85 867 q 278 938 190 938 q 440 920 356 938 q 604 903 525 903 q 663 906 631 903 q 725 917 696 910 q 769 855 757 889 q 781 786 781 821 q 757 692 781 731 q 686 615 733 653 l 239 253 q 366 231 299 238 q 489 224 433 224 q 575 231 535 224 q 644 267 615 239 q 674 212 667 239 q 681 156 681 185 q 633 31 681 78 q 454 -17 586 -17 q 267 2 356 -17 q 117 21 179 21 q 44 0 68 21 q 6 60 22 19 q -10 144 -10 100 q 10 225 -10 186 q 76 303 29 264 l 513 665 m 454 1169 q 554 1142 515 1169 q 593 1064 593 1115 q 551 985 593 1011 q 449 958 510 958 q 347 985 388 958 q 307 1061 307 1011 q 350 1142 307 1114 q 454 1169 393 1169 z "},"Ẓ":{"ha":749,"x_min":-10,"x_max":781,"o":"m 513 665 q 343 689 394 683 q 268 694 292 694 q 192 685 232 694 q 122 663 151 676 q 95 721 106 689 q 85 788 85 753 q 138 902 85 867 q 278 938 190 938 q 440 920 356 938 q 604 903 525 903 q 663 906 631 903 q 725 917 696 910 q 769 855 757 889 q 781 786 781 821 q 757 692 781 731 q 686 615 733 653 l 239 253 q 366 231 299 238 q 489 224 433 224 q 575 231 535 224 q 644 267 615 239 q 674 212 667 239 q 681 156 681 185 q 633 31 681 78 q 454 -17 586 -17 q 267 2 356 -17 q 117 21 179 21 q 44 0 68 21 q 6 60 22 19 q -10 144 -10 100 q 10 225 -10 186 q 76 303 29 264 l 513 665 m 311 -58 q 411 -85 372 -58 q 450 -164 450 -112 q 408 -243 450 -217 q 306 -269 367 -269 q 204 -243 244 -269 q 164 -167 164 -217 q 207 -86 164 -114 q 311 -58 250 -58 z "},"a":{"ha":833,"x_min":18,"x_max":813,"o":"m 813 736 l 713 208 q 708 181 711 197 q 706 150 706 164 q 721 100 706 122 q 771 75 736 78 q 701 -3 754 22 q 594 -28 647 -28 q 509 -8 549 -28 q 454 51 469 11 q 364 -6 419 15 q 240 -28 308 -28 q 68 44 118 -28 q 18 246 18 117 q 69 497 18 386 q 217 672 119 607 q 453 736 314 736 q 526 731 490 736 q 593 710 563 725 l 813 736 m 519 628 q 483 647 504 642 q 446 653 463 653 q 383 624 410 653 q 335 526 356 596 q 296 335 314 457 q 284 237 289 285 q 279 149 279 189 q 288 88 279 114 q 331 61 296 61 q 413 120 386 61 q 450 235 440 179 l 519 628 z "},"á":{"ha":833,"x_min":18,"x_max":813,"o":"m 813 736 l 713 208 q 708 181 711 197 q 706 150 706 164 q 721 100 706 122 q 771 75 736 78 q 701 -3 754 22 q 594 -28 647 -28 q 509 -8 549 -28 q 454 51 469 11 q 364 -6 419 15 q 240 -28 308 -28 q 68 44 118 -28 q 18 246 18 117 q 69 497 18 386 q 217 672 119 607 q 453 736 314 736 q 526 731 490 736 q 593 710 563 725 l 813 736 m 519 628 q 483 647 504 642 q 446 653 463 653 q 383 624 410 653 q 335 526 356 596 q 296 335 314 457 q 284 237 289 285 q 279 149 279 189 q 288 88 279 114 q 331 61 296 61 q 413 120 386 61 q 450 235 440 179 l 519 628 m 379 875 l 707 1078 q 745 1042 733 1067 q 757 986 757 1017 q 703 884 757 914 q 579 840 650 854 l 408 808 l 379 875 z "},"ă":{"ha":833,"x_min":18,"x_max":839,"o":"m 813 736 l 713 208 q 708 181 711 197 q 706 150 706 164 q 721 100 706 122 q 771 75 736 78 q 701 -3 754 22 q 594 -28 647 -28 q 509 -8 549 -28 q 454 51 469 11 q 364 -6 419 15 q 240 -28 308 -28 q 68 44 118 -28 q 18 246 18 117 q 69 497 18 386 q 217 672 119 607 q 453 736 314 736 q 526 731 490 736 q 593 710 563 725 l 813 736 m 519 628 q 483 647 504 642 q 446 653 463 653 q 383 624 410 653 q 335 526 356 596 q 296 335 314 457 q 284 237 289 285 q 279 149 279 189 q 288 88 279 114 q 331 61 296 61 q 413 120 386 61 q 450 235 440 179 l 519 628 m 501 1032 q 497 1008 499 1017 q 496 990 496 1000 q 497 923 496 958 q 542 888 497 888 q 613 936 596 888 q 639 1032 629 985 l 839 1032 q 749 881 822 943 q 528 819 675 819 q 349 872 408 819 q 289 994 289 925 q 293 1032 289 1011 l 501 1032 z "},"â":{"ha":833,"x_min":18,"x_max":813,"o":"m 813 736 l 713 208 q 708 181 711 197 q 706 150 706 164 q 721 100 706 122 q 771 75 736 78 q 701 -3 754 22 q 594 -28 647 -28 q 509 -8 549 -28 q 454 51 469 11 q 364 -6 419 15 q 240 -28 308 -28 q 68 44 118 -28 q 18 246 18 117 q 69 497 18 386 q 217 672 119 607 q 453 736 314 736 q 526 731 490 736 q 593 710 563 725 l 813 736 m 519 628 q 483 647 504 642 q 446 653 463 653 q 383 624 410 653 q 335 526 356 596 q 296 335 314 457 q 284 237 289 285 q 279 149 279 189 q 288 88 279 114 q 331 61 296 61 q 413 120 386 61 q 450 235 440 179 l 519 628 m 774 881 l 704 817 l 542 889 l 336 817 l 293 881 l 525 1042 l 589 1042 l 774 881 z "},"ä":{"ha":833,"x_min":18,"x_max":867,"o":"m 813 736 l 713 208 q 708 181 711 197 q 706 150 706 164 q 721 100 706 122 q 771 75 736 78 q 701 -3 754 22 q 594 -28 647 -28 q 509 -8 549 -28 q 454 51 469 11 q 364 -6 419 15 q 240 -28 308 -28 q 68 44 118 -28 q 18 246 18 117 q 69 497 18 386 q 217 672 119 607 q 453 736 314 736 q 526 731 490 736 q 593 710 563 725 l 813 736 m 519 628 q 483 647 504 642 q 446 653 463 653 q 383 624 410 653 q 335 526 356 596 q 296 335 314 457 q 284 237 289 285 q 279 149 279 189 q 288 88 279 114 q 331 61 296 61 q 413 120 386 61 q 450 235 440 179 l 519 628 z "},"à":{"ha":833,"x_min":18,"x_max":813,"o":"m 813 736 l 713 208 q 708 181 711 197 q 706 150 706 164 q 721 100 706 122 q 771 75 736 78 q 701 -3 754 22 q 594 -28 647 -28 q 509 -8 549 -28 q 454 51 469 11 q 364 -6 419 15 q 240 -28 308 -28 q 68 44 118 -28 q 18 246 18 117 q 69 497 18 386 q 217 672 119 607 q 453 736 314 736 q 526 731 490 736 q 593 710 563 725 l 813 736 m 519 628 q 483 647 504 642 q 446 653 463 653 q 383 624 410 653 q 335 526 356 596 q 296 335 314 457 q 284 237 289 285 q 279 149 279 189 q 288 88 279 114 q 331 61 296 61 q 413 120 386 61 q 450 235 440 179 l 519 628 m 635 808 l 464 840 q 340 884 393 854 q 286 986 286 914 q 298 1042 286 1017 q 336 1078 310 1067 l 664 875 l 635 808 z "},"ā":{"ha":833,"x_min":18,"x_max":813,"o":"m 813 736 l 713 208 q 708 181 711 197 q 706 150 706 164 q 721 100 706 122 q 771 75 736 78 q 701 -3 754 22 q 594 -28 647 -28 q 509 -8 549 -28 q 454 51 469 11 q 364 -6 419 15 q 240 -28 308 -28 q 68 44 118 -28 q 18 246 18 117 q 69 497 18 386 q 217 672 119 607 q 453 736 314 736 q 526 731 490 736 q 593 710 563 725 l 813 736 m 519 628 q 483 647 504 642 q 446 653 463 653 q 383 624 410 653 q 335 526 356 596 q 296 335 314 457 q 284 237 289 285 q 279 149 279 189 q 288 88 279 114 q 331 61 296 61 q 413 120 386 61 q 450 235 440 179 l 519 628 m 771 992 q 776 953 776 969 q 750 890 776 915 q 671 864 724 864 l 346 864 q 342 884 343 874 q 342 901 342 894 q 369 967 343 942 q 436 992 396 992 l 771 992 z "},"ą":{"ha":833,"x_min":18,"x_max":813,"o":"m 813 736 l 713 208 q 708 181 711 197 q 706 150 706 164 q 721 100 706 122 q 771 75 736 78 q 701 -3 754 22 q 594 -28 647 -28 q 509 -8 549 -28 q 454 51 469 11 q 364 -6 419 15 q 240 -28 308 -28 q 68 44 118 -28 q 18 246 18 117 q 69 497 18 386 q 217 672 119 607 q 453 736 314 736 q 526 731 490 736 q 593 710 563 725 l 813 736 m 519 628 q 483 647 504 642 q 446 653 463 653 q 383 624 410 653 q 335 526 356 596 q 296 335 314 457 q 284 237 289 285 q 279 149 279 189 q 288 88 279 114 q 331 61 296 61 q 413 120 386 61 q 450 235 440 179 l 519 628 m 729 22 l 729 14 q 640 -70 678 -21 q 603 -171 603 -119 q 668 -242 603 -242 q 715 -233 693 -242 q 754 -207 738 -225 q 779 -272 779 -239 q 741 -333 779 -307 q 629 -358 703 -358 q 496 -319 544 -358 q 447 -203 447 -281 q 514 -51 447 -108 q 668 31 581 6 l 729 22 z "},"å":{"ha":833,"x_min":18,"x_max":813,"o":"m 813 736 l 713 208 q 708 181 711 197 q 706 150 706 164 q 721 100 706 122 q 771 75 736 78 q 701 -3 754 22 q 594 -28 647 -28 q 509 -8 549 -28 q 454 51 469 11 q 364 -6 419 15 q 240 -28 308 -28 q 68 44 118 -28 q 18 246 18 117 q 69 497 18 386 q 217 672 119 607 q 453 736 314 736 q 526 731 490 736 q 593 710 563 725 l 813 736 m 519 628 q 483 647 504 642 q 446 653 463 653 q 383 624 410 653 q 335 526 356 596 q 296 335 314 457 q 284 237 289 285 q 279 149 279 189 q 288 88 279 114 q 331 61 296 61 q 413 120 386 61 q 450 235 440 179 l 519 628 m 514 789 q 417 817 453 789 q 381 900 381 844 q 439 1014 381 972 q 572 1056 497 1056 q 701 944 701 1056 q 645 831 701 872 q 514 789 589 789 m 528 842 q 581 870 558 842 q 604 938 604 899 q 554 999 604 999 q 502 969 522 999 q 482 901 482 940 q 528 842 482 842 z "},"ǻ":{"ha":833,"x_min":18,"x_max":813,"o":"m 439 1067 l 422 1135 l 763 1276 q 791 1245 781 1263 q 801 1201 801 1228 q 741 1102 801 1129 q 604 1072 681 1075 l 439 1067 m 813 736 l 713 208 q 708 181 711 197 q 706 150 706 164 q 721 100 706 122 q 771 75 736 78 q 701 -3 754 22 q 594 -28 647 -28 q 509 -8 549 -28 q 454 51 469 11 q 364 -6 419 15 q 240 -28 308 -28 q 68 44 118 -28 q 18 246 18 117 q 69 497 18 386 q 217 672 119 607 q 453 736 314 736 q 526 731 490 736 q 593 710 563 725 l 813 736 m 519 628 q 483 647 504 642 q 446 653 463 653 q 383 624 410 653 q 335 526 356 596 q 296 335 314 457 q 284 237 289 285 q 279 149 279 189 q 288 88 279 114 q 331 61 296 61 q 413 120 386 61 q 450 235 440 179 l 519 628 m 521 771 q 424 799 461 771 q 388 882 388 826 q 446 997 388 956 q 579 1038 504 1038 q 708 926 708 1038 q 652 812 708 853 q 521 771 596 771 m 535 824 q 589 852 567 824 q 611 919 611 881 q 561 981 611 981 q 509 951 529 981 q 489 883 489 922 q 535 824 489 824 z "},"ã":{"ha":833,"x_min":18,"x_max":813,"o":"m 813 736 l 713 208 q 708 181 711 197 q 706 150 706 164 q 721 100 706 122 q 771 75 736 78 q 701 -3 754 22 q 594 -28 647 -28 q 509 -8 549 -28 q 454 51 469 11 q 364 -6 419 15 q 240 -28 308 -28 q 68 44 118 -28 q 18 246 18 117 q 69 497 18 386 q 217 672 119 607 q 453 736 314 736 q 526 731 490 736 q 593 710 563 725 l 813 736 m 519 628 q 483 647 504 642 q 446 653 463 653 q 383 624 410 653 q 335 526 356 596 q 296 335 314 457 q 284 237 289 285 q 279 149 279 189 q 288 88 279 114 q 331 61 296 61 q 413 120 386 61 q 450 235 440 179 l 519 628 m 783 1010 q 810 939 810 978 q 676 836 810 836 q 585 842 642 836 q 474 855 529 849 q 392 861 419 861 q 337 853 363 861 q 299 838 311 846 q 271 917 271 878 q 408 1010 271 1010 q 503 1003 447 1010 q 614 992 560 997 q 700 986 668 986 q 749 992 726 986 q 783 1010 771 997 z "},"æ":{"ha":1119,"x_min":18,"x_max":1156,"o":"m 910 736 q 1084 703 1013 736 q 1156 567 1156 669 q 1071 402 1156 460 q 824 331 986 344 q 776 327 800 328 q 728 326 753 326 q 724 268 724 297 q 749 178 724 210 q 838 147 775 147 q 944 169 889 147 q 1026 235 1000 192 q 1053 208 1044 224 q 1061 168 1061 192 q 972 28 1061 83 q 743 -28 882 -28 q 605 -7 682 -28 q 478 88 528 14 q 382 -1 442 25 q 249 -28 322 -28 q 69 42 121 -28 q 18 243 18 113 q 67 492 18 381 q 209 670 115 604 q 438 736 303 736 q 551 722 496 736 q 654 678 607 708 q 778 723 719 710 q 910 736 838 736 m 892 665 q 832 637 861 665 q 778 547 803 608 q 738 386 754 486 q 888 444 835 386 q 942 590 942 503 q 931 644 942 624 q 892 665 921 665 m 519 628 q 483 647 504 642 q 446 653 463 653 q 383 624 410 653 q 335 526 356 596 q 296 335 314 457 q 284 237 289 285 q 279 149 279 189 q 288 88 279 114 q 331 61 296 61 q 413 120 386 61 q 450 235 440 179 l 519 628 z "},"ǽ":{"ha":1119,"x_min":18,"x_max":1156,"o":"m 910 736 q 1084 703 1013 736 q 1156 567 1156 669 q 1071 402 1156 460 q 824 331 986 344 q 776 327 800 328 q 728 326 753 326 q 724 268 724 297 q 749 178 724 210 q 838 147 775 147 q 944 169 889 147 q 1026 235 1000 192 q 1053 208 1044 224 q 1061 168 1061 192 q 972 28 1061 83 q 743 -28 882 -28 q 605 -7 682 -28 q 478 88 528 14 q 382 -1 442 25 q 249 -28 322 -28 q 69 42 121 -28 q 18 243 18 113 q 67 492 18 381 q 209 670 115 604 q 438 736 303 736 q 551 722 496 736 q 654 678 607 708 q 778 723 719 710 q 910 736 838 736 m 892 665 q 832 637 861 665 q 778 547 803 608 q 738 386 754 486 q 888 444 835 386 q 942 590 942 503 q 931 644 942 624 q 892 665 921 665 m 519 628 q 483 647 504 642 q 446 653 463 653 q 383 624 410 653 q 335 526 356 596 q 296 335 314 457 q 284 237 289 285 q 279 149 279 189 q 288 88 279 114 q 331 61 296 61 q 413 120 386 61 q 450 235 440 179 l 519 628 m 535 875 l 863 1078 q 901 1042 889 1067 q 913 986 913 1017 q 859 884 913 914 q 735 840 806 854 l 564 808 l 535 875 z "},"b":{"ha":803,"x_min":3,"x_max":785,"o":"m 454 1000 l 422 838 q 403 752 417 804 q 371 658 389 700 q 579 736 449 736 q 740 667 694 736 q 785 474 785 597 q 734 219 785 332 q 584 39 683 106 q 338 -28 485 -28 q 162 -7 264 -28 q 3 67 60 14 l 175 972 l 454 1000 m 276 81 q 313 61 292 67 q 351 56 333 56 q 413 81 385 56 q 463 174 440 107 q 504 367 486 242 q 516 459 511 410 q 521 551 521 508 q 513 613 521 586 q 469 639 504 639 q 402 603 428 639 q 363 517 376 567 q 342 431 349 468 l 276 81 z "},"c":{"ha":667,"x_min":22,"x_max":706,"o":"m 479 736 q 640 703 574 736 q 706 586 706 669 q 656 480 706 513 q 539 447 606 447 q 508 449 526 447 q 476 458 489 451 q 494 526 486 486 q 501 597 501 567 q 461 654 501 654 q 367 583 406 654 q 307 423 328 513 q 286 274 286 333 q 310 182 286 217 q 393 147 333 147 q 497 176 447 147 q 569 258 547 206 q 622 174 622 231 q 577 64 622 108 q 460 -4 532 19 q 311 -28 389 -28 q 99 47 175 -28 q 22 279 22 122 q 78 517 22 414 q 236 678 133 619 q 479 736 339 736 z "},"ć":{"ha":667,"x_min":22,"x_max":719,"o":"m 479 736 q 640 703 574 736 q 706 586 706 669 q 656 480 706 513 q 539 447 606 447 q 508 449 526 447 q 476 458 489 451 q 494 526 486 486 q 501 597 501 567 q 461 654 501 654 q 367 583 406 654 q 307 423 328 513 q 286 274 286 333 q 310 182 286 217 q 393 147 333 147 q 497 176 447 147 q 569 258 547 206 q 622 174 622 231 q 577 64 622 108 q 460 -4 532 19 q 311 -28 389 -28 q 99 47 175 -28 q 22 279 22 122 q 78 517 22 414 q 236 678 133 619 q 479 736 339 736 m 342 875 l 669 1078 q 708 1042 696 1067 q 719 986 719 1017 q 666 884 719 914 q 542 840 613 854 l 371 808 l 342 875 z "},"č":{"ha":667,"x_min":22,"x_max":750,"o":"m 479 736 q 640 703 574 736 q 706 586 706 669 q 656 480 706 513 q 539 447 606 447 q 508 449 526 447 q 476 458 489 451 q 494 526 486 486 q 501 597 501 567 q 461 654 501 654 q 367 583 406 654 q 307 423 328 513 q 286 274 286 333 q 310 182 286 217 q 393 147 333 147 q 497 176 447 147 q 569 258 547 206 q 622 174 622 231 q 577 64 622 108 q 460 -4 532 19 q 311 -28 389 -28 q 99 47 175 -28 q 22 279 22 122 q 78 517 22 414 q 236 678 133 619 q 479 736 339 736 m 269 1018 l 339 1082 l 501 982 l 707 1082 l 750 1018 l 532 829 l 440 829 l 269 1018 z "},"ç":{"ha":667,"x_min":22,"x_max":706,"o":"m 479 736 q 640 703 574 736 q 706 586 706 669 q 656 480 706 513 q 539 447 606 447 q 508 449 526 447 q 476 458 489 451 q 494 526 486 486 q 501 597 501 567 q 461 654 501 654 q 367 583 406 654 q 307 423 328 513 q 286 274 286 333 q 310 182 286 217 q 393 147 333 147 q 497 176 447 147 q 569 258 547 206 q 622 174 622 231 q 577 64 622 108 q 460 -4 532 19 q 311 -28 389 -28 q 99 47 175 -28 q 22 279 22 122 q 78 517 22 414 q 236 678 133 619 q 479 736 339 736 m 374 15 l 339 -101 l 324 -83 q 352 -80 329 -81 q 390 -79 375 -79 q 498 -105 453 -79 q 543 -192 543 -131 q 475 -312 543 -265 q 311 -358 407 -358 q 215 -339 250 -358 q 179 -285 179 -319 q 204 -219 179 -242 q 241 -252 218 -240 q 304 -264 264 -264 q 356 -250 336 -264 q 375 -204 375 -236 q 349 -162 375 -172 q 294 -153 322 -153 q 264 -153 278 -153 q 236 -156 250 -154 l 288 15 l 374 15 z "},"ĉ":{"ha":667,"x_min":22,"x_max":736,"o":"m 479 736 q 640 703 574 736 q 706 586 706 669 q 656 480 706 513 q 539 447 606 447 q 508 449 526 447 q 476 458 489 451 q 494 526 486 486 q 501 597 501 567 q 461 654 501 654 q 367 583 406 654 q 307 423 328 513 q 286 274 286 333 q 310 182 286 217 q 393 147 333 147 q 497 176 447 147 q 569 258 547 206 q 622 174 622 231 q 577 64 622 108 q 460 -4 532 19 q 311 -28 389 -28 q 99 47 175 -28 q 22 279 22 122 q 78 517 22 414 q 236 678 133 619 q 479 736 339 736 m 736 881 l 667 817 l 504 889 l 299 817 l 256 881 l 488 1042 l 551 1042 l 736 881 z "},"ċ":{"ha":667,"x_min":22,"x_max":706,"o":"m 479 736 q 640 703 574 736 q 706 586 706 669 q 656 480 706 513 q 539 447 606 447 q 508 449 526 447 q 476 458 489 451 q 494 526 486 486 q 501 597 501 567 q 461 654 501 654 q 367 583 406 654 q 307 423 328 513 q 286 274 286 333 q 310 182 286 217 q 393 147 333 147 q 497 176 447 147 q 569 258 547 206 q 622 174 622 231 q 577 64 622 108 q 460 -4 532 19 q 311 -28 389 -28 q 99 47 175 -28 q 22 279 22 122 q 78 517 22 414 q 236 678 133 619 q 479 736 339 736 m 514 1042 q 619 1013 578 1042 q 660 931 660 983 q 616 847 660 875 q 508 819 572 819 q 402 847 444 819 q 360 928 360 875 q 405 1013 360 983 q 514 1042 450 1042 z "},"d":{"ha":833,"x_min":18,"x_max":863,"o":"m 863 1000 l 713 208 q 708 181 711 197 q 706 150 706 164 q 721 100 706 122 q 771 75 736 78 q 701 -3 754 22 q 594 -28 647 -28 q 509 -8 549 -28 q 454 51 469 11 q 364 -6 419 15 q 240 -28 308 -28 q 68 44 118 -28 q 18 246 18 117 q 69 496 18 385 q 217 672 119 607 q 453 736 314 736 q 499 734 476 736 q 542 726 522 732 l 586 972 l 863 1000 m 519 628 q 483 647 504 642 q 446 653 463 653 q 383 624 410 653 q 335 526 356 596 q 296 335 314 457 q 284 237 289 285 q 279 149 279 189 q 288 88 279 114 q 331 61 296 61 q 413 120 386 61 q 450 235 440 179 l 519 628 z "},"ð":{"ha":813,"x_min":19,"x_max":849,"o":"m 511 883 q 446 904 483 904 q 415 899 428 904 q 397 892 401 894 q 392 917 392 900 q 431 978 392 956 q 531 1000 469 1000 q 609 988 572 1000 q 681 944 646 975 l 831 1000 q 849 950 849 983 q 779 882 849 907 l 739 868 q 774 770 764 819 q 783 658 783 721 q 760 443 783 561 q 681 218 736 325 q 533 42 626 111 q 297 -28 439 -28 q 92 44 164 -28 q 19 263 19 115 q 73 496 19 392 q 220 660 126 600 q 438 721 314 721 q 499 717 469 721 q 544 706 529 713 q 551 771 550 739 q 542 835 553 803 l 619 826 l 407 750 q 386 797 386 771 q 432 854 386 839 l 511 883 m 331 54 q 385 87 358 54 q 435 189 411 119 q 483 372 460 258 q 504 478 492 413 q 528 613 517 543 q 489 632 514 625 q 442 639 464 639 q 382 617 406 639 q 342 549 358 596 q 310 424 325 501 q 286 270 292 333 q 281 169 281 207 q 292 82 281 110 q 331 54 303 54 z "},"ď":{"ha":833,"x_min":18,"x_max":1085,"o":"m 863 1000 l 713 208 q 708 181 711 197 q 706 150 706 164 q 721 100 706 122 q 771 75 736 78 q 701 -3 754 22 q 594 -28 647 -28 q 509 -8 549 -28 q 454 51 469 11 q 364 -6 419 15 q 240 -28 308 -28 q 68 44 118 -28 q 18 246 18 117 q 69 496 18 385 q 217 672 119 607 q 453 736 314 736 q 499 734 476 736 q 542 726 522 732 l 586 972 l 863 1000 m 519 628 q 483 647 504 642 q 446 653 463 653 q 383 624 410 653 q 335 526 356 596 q 296 335 314 457 q 284 237 289 285 q 279 149 279 189 q 288 88 279 114 q 331 61 296 61 q 413 120 386 61 q 450 235 440 179 l 519 628 m 903 978 q 940 990 915 983 q 988 997 965 997 q 1058 969 1031 997 q 1085 889 1085 940 q 1033 782 1085 836 q 897 728 981 728 q 869 731 881 728 q 849 736 858 733 q 903 824 890 783 q 915 900 915 864 q 913 941 915 924 q 903 978 910 958 z "},"đ":{"ha":836,"x_min":25,"x_max":956,"o":"m 950 907 q 956 868 956 885 q 929 805 956 831 q 850 779 903 779 l 828 779 l 719 208 q 715 181 717 197 q 713 150 713 164 q 728 100 713 122 q 778 75 743 78 q 707 -3 761 22 q 601 -28 653 -28 q 515 -8 556 -28 q 461 51 475 11 q 371 -6 426 15 q 247 -28 315 -28 q 75 44 125 -28 q 25 246 25 117 q 76 496 25 385 q 223 672 126 607 q 460 736 319 736 q 506 734 483 736 q 549 726 529 732 l 558 779 l 414 779 q 410 799 411 789 q 410 817 410 810 q 438 882 411 857 q 504 907 464 907 l 582 907 l 593 972 l 869 1000 l 851 907 l 950 907 m 526 628 q 490 647 511 642 q 453 653 469 653 q 390 624 417 653 q 342 526 363 596 q 303 335 321 457 q 291 237 296 285 q 286 149 286 189 q 294 88 286 114 q 338 61 303 61 q 420 120 393 61 q 457 235 447 179 l 526 628 z "},"ḍ":{"ha":833,"x_min":18,"x_max":863,"o":"m 863 1000 l 713 208 q 708 181 711 197 q 706 150 706 164 q 721 100 706 122 q 771 75 736 78 q 701 -3 754 22 q 594 -28 647 -28 q 509 -8 549 -28 q 454 51 469 11 q 364 -6 419 15 q 240 -28 308 -28 q 68 44 118 -28 q 18 246 18 117 q 69 496 18 385 q 217 672 119 607 q 453 736 314 736 q 499 734 476 736 q 542 726 522 732 l 586 972 l 863 1000 m 519 628 q 483 647 504 642 q 446 653 463 653 q 383 624 410 653 q 335 526 356 596 q 296 335 314 457 q 284 237 289 285 q 279 149 279 189 q 288 88 279 114 q 331 61 296 61 q 413 120 386 61 q 450 235 440 179 l 519 628 m 346 -58 q 446 -85 407 -58 q 485 -164 485 -112 q 443 -243 485 -217 q 340 -269 401 -269 q 239 -243 279 -269 q 199 -167 199 -217 q 242 -86 199 -114 q 346 -58 285 -58 z "},"ǳ":{"ha":1463,"x_min":18,"x_max":1492,"o":"m 863 1000 l 713 208 q 708 181 711 197 q 706 150 706 164 q 721 100 706 122 q 771 75 736 78 q 701 -3 754 22 q 594 -28 647 -28 q 509 -8 549 -28 q 454 51 469 11 q 364 -6 419 15 q 240 -28 308 -28 q 68 44 118 -28 q 18 246 18 117 q 69 496 18 385 q 217 672 119 607 q 453 736 314 736 q 499 734 476 736 q 542 726 522 732 l 586 972 l 863 1000 m 519 628 q 483 647 504 642 q 446 653 463 653 q 383 624 410 653 q 335 526 356 596 q 296 335 314 457 q 284 237 289 285 q 279 149 279 189 q 288 88 279 114 q 331 61 296 61 q 413 120 386 61 q 450 235 440 179 l 519 628 m 1246 492 q 1151 512 1201 504 q 1064 519 1100 519 q 983 504 1014 519 q 936 458 951 489 q 901 523 914 485 q 889 599 889 561 q 939 706 889 675 q 1063 736 989 736 q 1224 719 1133 736 q 1378 701 1314 701 q 1456 717 1429 701 q 1485 675 1478 696 q 1492 633 1492 654 q 1466 552 1492 586 q 1403 490 1440 518 l 1061 235 q 1158 212 1108 221 q 1243 203 1207 203 q 1323 215 1282 203 q 1392 258 1364 228 q 1431 143 1431 214 q 1378 14 1431 56 q 1240 -28 1325 -28 q 1096 -8 1168 -28 q 954 13 1024 13 q 907 9 928 13 q 867 -1 886 6 q 833 35 846 13 q 819 94 819 58 q 843 178 819 142 q 903 244 867 215 l 1246 492 z "},"ǆ":{"ha":1463,"x_min":18,"x_max":1497,"o":"m 863 1000 l 713 208 q 708 181 711 197 q 706 150 706 164 q 721 100 706 122 q 771 75 736 78 q 701 -3 754 22 q 594 -28 647 -28 q 509 -8 549 -28 q 454 51 469 11 q 364 -6 419 15 q 240 -28 308 -28 q 68 44 118 -28 q 18 246 18 117 q 69 496 18 385 q 217 672 119 607 q 453 736 314 736 q 499 734 476 736 q 542 726 522 732 l 586 972 l 863 1000 m 519 628 q 483 647 504 642 q 446 653 463 653 q 383 624 410 653 q 335 526 356 596 q 296 335 314 457 q 284 237 289 285 q 279 149 279 189 q 288 88 279 114 q 331 61 296 61 q 413 120 386 61 q 450 235 440 179 l 519 628 m 1246 492 q 1151 512 1201 504 q 1064 519 1100 519 q 983 504 1014 519 q 936 458 951 489 q 901 523 914 485 q 889 599 889 561 q 939 706 889 675 q 1063 736 989 736 q 1224 719 1133 736 q 1378 701 1314 701 q 1456 717 1429 701 q 1485 675 1478 696 q 1492 633 1492 654 q 1466 552 1492 586 q 1403 490 1440 518 l 1061 235 q 1158 212 1108 221 q 1243 203 1207 203 q 1323 215 1282 203 q 1392 258 1364 228 q 1431 143 1431 214 q 1378 14 1431 56 q 1240 -28 1325 -28 q 1096 -8 1168 -28 q 954 13 1024 13 q 907 9 928 13 q 867 -1 886 6 q 833 35 846 13 q 819 94 819 58 q 843 178 819 142 q 903 244 867 215 l 1246 492 m 1017 1018 l 1086 1082 l 1249 982 l 1454 1082 l 1497 1018 l 1279 829 l 1188 829 l 1017 1018 z "},"e":{"ha":700,"x_min":22,"x_max":717,"o":"m 483 736 q 644 703 572 736 q 717 567 717 669 q 629 400 717 463 q 360 328 542 338 q 326 326 343 326 q 289 326 308 326 q 285 268 285 297 q 310 178 285 210 q 399 147 336 147 q 506 169 450 147 q 588 235 561 192 q 614 208 606 224 q 622 168 622 192 q 578 63 622 107 q 463 -4 533 19 q 313 -28 392 -28 q 100 46 178 -28 q 22 276 22 119 q 72 502 22 397 q 223 672 121 607 q 483 736 325 736 m 453 665 q 393 637 422 665 q 340 547 364 608 q 299 386 315 486 q 449 444 396 386 q 503 590 503 503 q 453 665 503 665 z "},"é":{"ha":700,"x_min":22,"x_max":721,"o":"m 483 736 q 644 703 572 736 q 717 567 717 669 q 629 400 717 463 q 360 328 542 338 q 326 326 343 326 q 289 326 308 326 q 285 268 285 297 q 310 178 285 210 q 399 147 336 147 q 506 169 450 147 q 588 235 561 192 q 614 208 606 224 q 622 168 622 192 q 578 63 622 107 q 463 -4 533 19 q 313 -28 392 -28 q 100 46 178 -28 q 22 276 22 119 q 72 502 22 397 q 223 672 121 607 q 483 736 325 736 m 453 665 q 393 637 422 665 q 340 547 364 608 q 299 386 315 486 q 449 444 396 386 q 503 590 503 503 q 453 665 503 665 m 343 875 l 671 1078 q 709 1042 697 1067 q 721 986 721 1017 q 667 884 721 914 q 543 840 614 854 l 372 808 l 343 875 z "},"ĕ":{"ha":700,"x_min":22,"x_max":803,"o":"m 483 736 q 644 703 572 736 q 717 567 717 669 q 629 400 717 463 q 360 328 542 338 q 326 326 343 326 q 289 326 308 326 q 285 268 285 297 q 310 178 285 210 q 399 147 336 147 q 506 169 450 147 q 588 235 561 192 q 614 208 606 224 q 622 168 622 192 q 578 63 622 107 q 463 -4 533 19 q 313 -28 392 -28 q 100 46 178 -28 q 22 276 22 119 q 72 502 22 397 q 223 672 121 607 q 483 736 325 736 m 453 665 q 393 637 422 665 q 340 547 364 608 q 299 386 315 486 q 449 444 396 386 q 503 590 503 503 q 453 665 503 665 m 465 1032 q 461 1008 463 1017 q 460 990 460 1000 q 460 923 460 958 q 506 888 461 888 q 576 936 560 888 q 603 1032 593 985 l 803 1032 q 713 881 786 943 q 492 819 639 819 q 313 872 372 819 q 253 994 253 925 q 257 1032 253 1011 l 465 1032 z "},"ě":{"ha":700,"x_min":22,"x_max":751,"o":"m 483 736 q 644 703 572 736 q 717 567 717 669 q 629 400 717 463 q 360 328 542 338 q 326 326 343 326 q 289 326 308 326 q 285 268 285 297 q 310 178 285 210 q 399 147 336 147 q 506 169 450 147 q 588 235 561 192 q 614 208 606 224 q 622 168 622 192 q 578 63 622 107 q 463 -4 533 19 q 313 -28 392 -28 q 100 46 178 -28 q 22 276 22 119 q 72 502 22 397 q 223 672 121 607 q 483 736 325 736 m 453 665 q 393 637 422 665 q 340 547 364 608 q 299 386 315 486 q 449 444 396 386 q 503 590 503 503 q 453 665 503 665 m 271 1018 l 340 1082 l 503 982 l 708 1082 l 751 1018 l 533 829 l 442 829 l 271 1018 z "},"ê":{"ha":700,"x_min":22,"x_max":738,"o":"m 483 736 q 644 703 572 736 q 717 567 717 669 q 629 400 717 463 q 360 328 542 338 q 326 326 343 326 q 289 326 308 326 q 285 268 285 297 q 310 178 285 210 q 399 147 336 147 q 506 169 450 147 q 588 235 561 192 q 614 208 606 224 q 622 168 622 192 q 578 63 622 107 q 463 -4 533 19 q 313 -28 392 -28 q 100 46 178 -28 q 22 276 22 119 q 72 502 22 397 q 223 672 121 607 q 483 736 325 736 m 453 665 q 393 637 422 665 q 340 547 364 608 q 299 386 315 486 q 449 444 396 386 q 503 590 503 503 q 453 665 503 665 m 738 881 l 668 817 l 506 889 l 300 817 l 257 881 l 489 1042 l 553 1042 l 738 881 z "},"ë":{"ha":700,"x_min":22,"x_max":831,"o":"m 483 736 q 644 703 572 736 q 717 567 717 669 q 629 400 717 463 q 360 328 542 338 q 326 326 343 326 q 289 326 308 326 q 285 268 285 297 q 310 178 285 210 q 399 147 336 147 q 506 169 450 147 q 588 235 561 192 q 614 208 606 224 q 622 168 622 192 q 578 63 622 107 q 463 -4 533 19 q 313 -28 392 -28 q 100 46 178 -28 q 22 276 22 119 q 72 502 22 397 q 223 672 121 607 q 483 736 325 736 m 453 665 q 393 637 422 665 q 340 547 364 608 q 299 386 315 486 q 449 444 396 386 q 503 590 503 503 q 453 665 503 665 z "},"ė":{"ha":700,"x_min":22,"x_max":717,"o":"m 483 736 q 644 703 572 736 q 717 567 717 669 q 629 400 717 463 q 360 328 542 338 q 326 326 343 326 q 289 326 308 326 q 285 268 285 297 q 310 178 285 210 q 399 147 336 147 q 506 169 450 147 q 588 235 561 192 q 614 208 606 224 q 622 168 622 192 q 578 63 622 107 q 463 -4 533 19 q 313 -28 392 -28 q 100 46 178 -28 q 22 276 22 119 q 72 502 22 397 q 223 672 121 607 q 483 736 325 736 m 453 665 q 393 637 422 665 q 340 547 364 608 q 299 386 315 486 q 449 444 396 386 q 503 590 503 503 q 453 665 503 665 m 515 1042 q 620 1013 579 1042 q 661 931 661 983 q 617 847 661 875 q 510 819 574 819 q 403 847 446 819 q 361 928 361 875 q 406 1013 361 983 q 515 1042 451 1042 z "},"ẹ":{"ha":700,"x_min":22,"x_max":717,"o":"m 483 736 q 644 703 572 736 q 717 567 717 669 q 629 400 717 463 q 360 328 542 338 q 326 326 343 326 q 289 326 308 326 q 285 268 285 297 q 310 178 285 210 q 399 147 336 147 q 506 169 450 147 q 588 235 561 192 q 614 208 606 224 q 622 168 622 192 q 578 63 622 107 q 463 -4 533 19 q 313 -28 392 -28 q 100 46 178 -28 q 22 276 22 119 q 72 502 22 397 q 223 672 121 607 q 483 736 325 736 m 453 665 q 393 637 422 665 q 340 547 364 608 q 299 386 315 486 q 449 444 396 386 q 503 590 503 503 q 453 665 503 665 m 317 -58 q 417 -85 378 -58 q 456 -164 456 -112 q 414 -243 456 -217 q 311 -269 372 -269 q 210 -243 250 -269 q 169 -167 169 -217 q 213 -86 169 -114 q 317 -58 256 -58 z "},"è":{"ha":700,"x_min":22,"x_max":717,"o":"m 483 736 q 644 703 572 736 q 717 567 717 669 q 629 400 717 463 q 360 328 542 338 q 326 326 343 326 q 289 326 308 326 q 285 268 285 297 q 310 178 285 210 q 399 147 336 147 q 506 169 450 147 q 588 235 561 192 q 614 208 606 224 q 622 168 622 192 q 578 63 622 107 q 463 -4 533 19 q 313 -28 392 -28 q 100 46 178 -28 q 22 276 22 119 q 72 502 22 397 q 223 672 121 607 q 483 736 325 736 m 453 665 q 393 637 422 665 q 340 547 364 608 q 299 386 315 486 q 449 444 396 386 q 503 590 503 503 q 453 665 503 665 m 599 808 l 428 840 q 303 884 357 854 q 250 986 250 914 q 262 1042 250 1017 q 300 1078 274 1067 l 628 875 l 599 808 z "},"ē":{"ha":700,"x_min":22,"x_max":740,"o":"m 483 736 q 644 703 572 736 q 717 567 717 669 q 629 400 717 463 q 360 328 542 338 q 326 326 343 326 q 289 326 308 326 q 285 268 285 297 q 310 178 285 210 q 399 147 336 147 q 506 169 450 147 q 588 235 561 192 q 614 208 606 224 q 622 168 622 192 q 578 63 622 107 q 463 -4 533 19 q 313 -28 392 -28 q 100 46 178 -28 q 22 276 22 119 q 72 502 22 397 q 223 672 121 607 q 483 736 325 736 m 453 665 q 393 637 422 665 q 340 547 364 608 q 299 386 315 486 q 449 444 396 386 q 503 590 503 503 q 453 665 503 665 m 735 992 q 740 953 740 969 q 714 890 740 915 q 635 864 688 864 l 310 864 q 306 884 307 874 q 306 901 306 894 q 333 967 307 942 q 400 992 360 992 l 735 992 z "},"ę":{"ha":700,"x_min":22,"x_max":717,"o":"m 483 736 q 644 703 572 736 q 717 567 717 669 q 629 400 717 463 q 360 328 542 338 q 326 326 343 326 q 289 326 308 326 q 285 268 285 297 q 310 178 285 210 q 399 147 336 147 q 506 169 450 147 q 588 235 561 192 q 614 208 606 224 q 622 168 622 192 q 578 63 622 107 q 463 -4 533 19 q 313 -28 392 -28 q 100 46 178 -28 q 22 276 22 119 q 72 502 22 397 q 223 672 121 607 q 483 736 325 736 m 453 665 q 393 637 422 665 q 340 547 364 608 q 299 386 315 486 q 449 444 396 386 q 503 590 503 503 q 453 665 503 665 m 507 22 l 507 14 q 418 -70 456 -21 q 381 -171 381 -119 q 446 -242 381 -242 q 493 -233 471 -242 q 532 -207 515 -225 q 557 -272 557 -239 q 519 -333 557 -307 q 407 -358 481 -358 q 274 -319 322 -358 q 225 -203 225 -281 q 292 -51 225 -108 q 446 31 358 6 l 507 22 z "},"ẽ":{"ha":700,"x_min":22,"x_max":774,"o":"m 483 736 q 644 703 572 736 q 717 567 717 669 q 629 400 717 463 q 360 328 542 338 q 326 326 343 326 q 289 326 308 326 q 285 268 285 297 q 310 178 285 210 q 399 147 336 147 q 506 169 450 147 q 588 235 561 192 q 614 208 606 224 q 622 168 622 192 q 578 63 622 107 q 463 -4 533 19 q 313 -28 392 -28 q 100 46 178 -28 q 22 276 22 119 q 72 502 22 397 q 223 672 121 607 q 483 736 325 736 m 453 665 q 393 637 422 665 q 340 547 364 608 q 299 386 315 486 q 449 444 396 386 q 503 590 503 503 q 453 665 503 665 m 747 1010 q 774 939 774 978 q 640 836 774 836 q 549 842 606 836 q 438 855 493 849 q 356 861 383 861 q 301 853 326 861 q 263 838 275 846 q 235 917 235 878 q 372 1010 235 1010 q 467 1003 411 1010 q 578 992 524 997 q 664 986 632 986 q 713 992 690 986 q 747 1010 735 997 z "},"ə":{"ha":718,"x_min":-8,"x_max":686,"o":"m 225 -28 q 64 6 136 -28 q -8 142 -8 39 q 79 308 -8 246 q 349 381 167 371 q 383 382 365 382 q 419 382 400 382 q 424 440 424 411 q 398 530 424 499 q 310 561 372 561 q 203 539 258 561 q 121 474 147 517 q 94 501 103 485 q 86 540 86 517 q 131 645 86 601 q 246 713 175 689 q 396 736 317 736 q 608 663 531 736 q 686 432 686 589 q 637 206 686 311 q 485 37 588 101 q 225 -28 383 -28 m 256 43 q 315 72 286 43 q 369 161 344 100 q 410 322 393 222 q 259 264 313 322 q 206 118 206 206 q 256 43 206 43 z "},"f":{"ha":444,"x_min":3,"x_max":761,"o":"m 165 790 q 239 921 186 875 q 364 983 292 967 q 513 1000 436 1000 q 623 992 565 1000 q 721 958 681 983 q 761 885 761 933 q 719 812 761 835 q 625 789 676 789 q 583 792 606 789 q 543 806 561 796 q 558 847 553 822 q 563 890 563 872 q 524 939 563 939 q 465 901 485 939 q 435 803 444 864 l 418 708 l 544 708 l 536 646 l 406 646 l 290 0 l 3 -28 l 133 646 l 35 646 l 47 708 l 144 708 l 165 790 z "},"g":{"ha":803,"x_min":-44,"x_max":813,"o":"m 813 735 l 708 190 q 632 -65 679 39 q 498 -224 585 -169 q 260 -278 411 -278 q 122 -264 192 -278 q 3 -215 51 -250 q -44 -118 -44 -181 q 0 -23 -44 -57 q 106 11 44 11 q 185 -3 146 11 q 250 -49 225 -17 q 228 -80 239 -61 q 218 -121 218 -99 q 230 -161 218 -140 q 271 -182 242 -182 q 373 -101 331 -182 q 447 167 415 -19 q 349 102 408 124 q 228 81 290 81 q 85 129 139 81 q 32 296 32 178 q 84 511 32 411 q 232 674 136 611 q 458 736 328 736 q 526 731 494 736 q 586 713 558 725 l 813 735 m 522 633 q 492 649 508 644 q 463 653 475 653 q 383 611 414 653 q 333 508 351 569 q 308 381 315 446 q 301 271 301 317 q 309 213 301 238 q 351 188 317 188 q 433 244 407 188 q 469 357 458 301 l 522 633 z "},"ğ":{"ha":803,"x_min":-44,"x_max":813,"o":"m 813 735 l 708 190 q 632 -65 679 39 q 498 -224 585 -169 q 260 -278 411 -278 q 122 -264 192 -278 q 3 -215 51 -250 q -44 -118 -44 -181 q 0 -23 -44 -57 q 106 11 44 11 q 185 -3 146 11 q 250 -49 225 -17 q 228 -80 239 -61 q 218 -121 218 -99 q 230 -161 218 -140 q 271 -182 242 -182 q 373 -101 331 -182 q 447 167 415 -19 q 349 102 408 124 q 228 81 290 81 q 85 129 139 81 q 32 296 32 178 q 84 511 32 411 q 232 674 136 611 q 458 736 328 736 q 526 731 494 736 q 586 713 558 725 l 813 735 m 522 633 q 492 649 508 644 q 463 653 475 653 q 383 611 414 653 q 333 508 351 569 q 308 381 315 446 q 301 271 301 317 q 309 213 301 238 q 351 188 317 188 q 433 244 407 188 q 469 357 458 301 l 522 633 m 464 1032 q 460 1008 461 1017 q 458 990 458 1000 q 459 923 458 958 q 504 888 460 888 q 575 936 558 888 q 601 1032 592 985 l 801 1032 q 711 881 785 943 q 490 819 638 819 q 311 872 371 819 q 251 994 251 925 q 256 1032 251 1011 l 464 1032 z "},"ĝ":{"ha":803,"x_min":-44,"x_max":813,"o":"m 813 735 l 708 190 q 632 -65 679 39 q 498 -224 585 -169 q 260 -278 411 -278 q 122 -264 192 -278 q 3 -215 51 -250 q -44 -118 -44 -181 q 0 -23 -44 -57 q 106 11 44 11 q 185 -3 146 11 q 250 -49 225 -17 q 228 -80 239 -61 q 218 -121 218 -99 q 230 -161 218 -140 q 271 -182 242 -182 q 373 -101 331 -182 q 447 167 415 -19 q 349 102 408 124 q 228 81 290 81 q 85 129 139 81 q 32 296 32 178 q 84 511 32 411 q 232 674 136 611 q 458 736 328 736 q 526 731 494 736 q 586 713 558 725 l 813 735 m 522 633 q 492 649 508 644 q 463 653 475 653 q 383 611 414 653 q 333 508 351 569 q 308 381 315 446 q 301 271 301 317 q 309 213 301 238 q 351 188 317 188 q 433 244 407 188 q 469 357 458 301 l 522 633 m 736 881 l 667 817 l 504 889 l 299 817 l 256 881 l 488 1042 l 551 1042 l 736 881 z "},"ģ":{"ha":803,"x_min":-44,"x_max":813,"o":"m 813 735 l 708 190 q 632 -65 679 39 q 498 -224 585 -169 q 260 -278 411 -278 q 122 -264 192 -278 q 3 -215 51 -250 q -44 -118 -44 -181 q 0 -23 -44 -57 q 106 11 44 11 q 185 -3 146 11 q 250 -49 225 -17 q 228 -80 239 -61 q 218 -121 218 -99 q 230 -161 218 -140 q 271 -182 242 -182 q 373 -101 331 -182 q 447 167 415 -19 q 349 102 408 124 q 228 81 290 81 q 85 129 139 81 q 32 296 32 178 q 84 511 32 411 q 232 674 136 611 q 458 736 328 736 q 526 731 494 736 q 586 713 558 725 l 813 735 m 522 633 q 492 649 508 644 q 463 653 475 653 q 383 611 414 653 q 333 508 351 569 q 308 381 315 446 q 301 271 301 317 q 309 213 301 238 q 351 188 317 188 q 433 244 407 188 q 469 357 458 301 l 522 633 m 585 1075 q 614 1074 600 1075 q 639 1069 628 1072 q 569 970 588 1017 q 550 879 550 924 q 564 808 550 840 q 521 793 550 799 q 468 788 492 788 q 384 807 411 788 q 357 867 357 826 q 417 1001 357 928 q 585 1075 478 1075 z "},"ġ":{"ha":803,"x_min":-44,"x_max":813,"o":"m 813 735 l 708 190 q 632 -65 679 39 q 498 -224 585 -169 q 260 -278 411 -278 q 122 -264 192 -278 q 3 -215 51 -250 q -44 -118 -44 -181 q 0 -23 -44 -57 q 106 11 44 11 q 185 -3 146 11 q 250 -49 225 -17 q 228 -80 239 -61 q 218 -121 218 -99 q 230 -161 218 -140 q 271 -182 242 -182 q 373 -101 331 -182 q 447 167 415 -19 q 349 102 408 124 q 228 81 290 81 q 85 129 139 81 q 32 296 32 178 q 84 511 32 411 q 232 674 136 611 q 458 736 328 736 q 526 731 494 736 q 586 713 558 725 l 813 735 m 522 633 q 492 649 508 644 q 463 653 475 653 q 383 611 414 653 q 333 508 351 569 q 308 381 315 446 q 301 271 301 317 q 309 213 301 238 q 351 188 317 188 q 433 244 407 188 q 469 357 458 301 l 522 633 m 514 1042 q 619 1013 578 1042 q 660 931 660 983 q 616 847 660 875 q 508 819 572 819 q 402 847 444 819 q 360 928 360 875 q 405 1013 360 983 q 514 1042 450 1042 z "},"h":{"ha":836,"x_min":-6,"x_max":800,"o":"m 469 1000 l 438 838 q 418 752 431 804 q 386 658 406 700 q 485 718 428 700 q 604 736 542 736 q 746 699 692 736 q 800 572 800 661 q 781 434 800 514 q 742 278 761 354 q 724 156 724 203 q 789 75 724 83 q 719 -3 772 22 q 608 -28 665 -28 q 494 8 539 -28 q 449 115 449 43 q 469 251 449 167 q 509 421 489 336 q 529 561 529 506 q 520 608 529 588 q 481 629 511 629 q 397 559 425 629 q 356 422 369 489 l 274 0 l -6 -28 l 190 972 l 469 1000 z "},"ħ":{"ha":836,"x_min":-6,"x_max":800,"o":"m 424 774 q 407 715 417 744 q 386 658 397 685 q 485 718 428 700 q 604 736 542 736 q 746 699 692 736 q 800 572 800 661 q 781 434 800 514 q 742 278 761 354 q 724 156 724 203 q 789 75 724 83 q 719 -3 772 22 q 608 -28 665 -28 q 494 8 539 -28 q 449 115 449 43 q 469 251 449 167 q 509 421 489 336 q 529 561 529 506 q 520 608 529 588 q 481 629 511 629 q 397 559 425 629 q 356 422 369 489 l 274 0 l -6 -28 l 151 774 l 72 774 q 69 794 69 783 q 68 811 68 804 q 96 876 69 851 q 163 901 122 901 l 176 901 l 190 972 l 469 1000 l 450 901 l 608 901 q 614 863 614 879 q 588 799 614 825 q 508 774 561 774 l 424 774 z "},"ĥ":{"ha":836,"x_min":-6,"x_max":800,"o":"m 469 1000 l 438 838 q 418 752 431 804 q 386 658 406 700 q 485 718 428 700 q 604 736 542 736 q 746 699 692 736 q 800 572 800 661 q 781 434 800 514 q 742 278 761 354 q 724 156 724 203 q 789 75 724 83 q 719 -3 772 22 q 608 -28 665 -28 q 494 8 539 -28 q 449 115 449 43 q 469 251 449 167 q 509 421 489 336 q 529 561 529 506 q 520 608 529 588 q 481 629 511 629 q 397 559 425 629 q 356 422 369 489 l 274 0 l -6 -28 l 190 972 l 469 1000 z "},"ḥ":{"ha":836,"x_min":-6,"x_max":800,"o":"m 469 1000 l 438 838 q 418 752 431 804 q 386 658 406 700 q 485 718 428 700 q 604 736 542 736 q 746 699 692 736 q 800 572 800 661 q 781 434 800 514 q 742 278 761 354 q 724 156 724 203 q 789 75 724 83 q 719 -3 772 22 q 608 -28 665 -28 q 494 8 539 -28 q 449 115 449 43 q 469 251 449 167 q 509 421 489 336 q 529 561 529 506 q 520 608 529 588 q 481 629 511 629 q 397 559 425 629 q 356 422 369 489 l 274 0 l -6 -28 l 190 972 l 469 1000 m 367 -58 q 467 -85 428 -58 q 506 -164 506 -112 q 464 -243 506 -217 q 361 -269 422 -269 q 260 -243 300 -269 q 219 -167 219 -217 q 263 -86 219 -114 q 367 -58 306 -58 z "},"i":{"ha":438,"x_min":35,"x_max":469,"o":"m 419 736 l 317 208 q 312 181 314 197 q 310 150 310 164 q 325 100 310 122 q 375 75 340 78 q 305 -3 358 22 q 194 -28 251 -28 q 80 8 125 -28 q 35 115 35 43 q 44 215 35 151 q 67 340 54 278 q 86 439 79 403 l 139 708 l 419 736 m 324 1042 q 429 1013 389 1042 q 469 931 469 983 q 426 847 469 875 q 318 819 383 819 q 211 847 253 819 q 169 928 169 875 q 214 1013 169 983 q 324 1042 258 1042 z "},"ı":{"ha":421,"x_min":35,"x_max":419,"o":"m 317 208 q 312 181 314 197 q 310 150 310 164 q 325 100 310 122 q 375 75 340 78 q 305 -3 358 22 q 194 -28 251 -28 q 80 8 125 -28 q 35 115 35 43 q 44 215 35 151 q 67 340 54 278 q 86 439 79 403 l 139 708 l 419 736 l 317 208 z "},"í":{"ha":421,"x_min":35,"x_max":526,"o":"m 317 208 q 312 181 314 197 q 310 150 310 164 q 325 100 310 122 q 375 75 340 78 q 305 -3 358 22 q 194 -28 251 -28 q 80 8 125 -28 q 35 115 35 43 q 44 215 35 151 q 67 340 54 278 q 86 439 79 403 l 139 708 l 419 736 l 317 208 m 149 875 l 476 1078 q 515 1042 503 1067 q 526 986 526 1017 q 473 884 526 914 q 349 840 419 854 l 178 808 l 149 875 z "},"ĭ":{"ha":421,"x_min":35,"x_max":608,"o":"m 317 208 q 312 181 314 197 q 310 150 310 164 q 325 100 310 122 q 375 75 340 78 q 305 -3 358 22 q 194 -28 251 -28 q 80 8 125 -28 q 35 115 35 43 q 44 215 35 151 q 67 340 54 278 q 86 439 79 403 l 139 708 l 419 736 l 317 208 m 271 1032 q 267 1008 268 1017 q 265 990 265 1000 q 266 923 265 958 q 311 888 267 888 q 382 936 365 888 q 408 1032 399 985 l 608 1032 q 518 881 592 943 q 297 819 444 819 q 118 872 178 819 q 58 994 58 925 q 63 1032 58 1011 l 271 1032 z "},"î":{"ha":421,"x_min":35,"x_max":543,"o":"m 317 208 q 312 181 314 197 q 310 150 310 164 q 325 100 310 122 q 375 75 340 78 q 305 -3 358 22 q 194 -28 251 -28 q 80 8 125 -28 q 35 115 35 43 q 44 215 35 151 q 67 340 54 278 q 86 439 79 403 l 139 708 l 419 736 l 317 208 m 543 881 l 474 817 l 311 889 l 106 817 l 63 881 l 294 1042 l 358 1042 l 543 881 z "},"ï":{"ha":421,"x_min":1,"x_max":636,"o":"m 317 208 q 312 181 314 197 q 310 150 310 164 q 325 100 310 122 q 375 75 340 78 q 305 -3 358 22 q 194 -28 251 -28 q 80 8 125 -28 q 35 115 35 43 q 44 215 35 151 q 67 340 54 278 q 86 439 79 403 l 139 708 l 419 736 l 317 208 z "},"ị":{"ha":438,"x_min":-3,"x_max":469,"o":"m 419 736 l 317 208 q 312 181 314 197 q 310 150 310 164 q 325 100 310 122 q 375 75 340 78 q 305 -3 358 22 q 194 -28 251 -28 q 80 8 125 -28 q 35 115 35 43 q 44 215 35 151 q 67 340 54 278 q 86 439 79 403 l 139 708 l 419 736 m 324 1042 q 429 1013 389 1042 q 469 931 469 983 q 426 847 469 875 q 318 819 383 819 q 211 847 253 819 q 169 928 169 875 q 214 1013 169 983 q 324 1042 258 1042 m 144 -58 q 244 -85 206 -58 q 283 -164 283 -112 q 242 -243 283 -217 q 139 -269 200 -269 q 38 -243 78 -269 q -3 -167 -3 -217 q 40 -86 -3 -114 q 144 -58 83 -58 z "},"ì":{"ha":421,"x_min":35,"x_max":433,"o":"m 317 208 q 312 181 314 197 q 310 150 310 164 q 325 100 310 122 q 375 75 340 78 q 305 -3 358 22 q 194 -28 251 -28 q 80 8 125 -28 q 35 115 35 43 q 44 215 35 151 q 67 340 54 278 q 86 439 79 403 l 139 708 l 419 736 l 317 208 m 404 808 l 233 840 q 109 884 163 854 q 56 986 56 914 q 67 1042 56 1017 q 106 1078 79 1067 l 433 875 l 404 808 z "},"ĳ":{"ha":858,"x_min":35,"x_max":894,"o":"m 419 736 l 317 208 q 312 181 314 197 q 310 150 310 164 q 325 100 310 122 q 375 75 340 78 q 305 -3 358 22 q 194 -28 251 -28 q 80 8 125 -28 q 35 115 35 43 q 44 215 35 151 q 67 340 54 278 q 86 439 79 403 l 139 708 l 419 736 m 324 1042 q 429 1013 389 1042 q 469 931 469 983 q 426 847 469 875 q 318 819 383 819 q 211 847 253 819 q 169 928 169 875 q 214 1013 169 983 q 324 1042 258 1042 m 857 736 l 739 128 q 632 -177 699 -76 q 439 -278 565 -278 q 334 -254 381 -278 q 274 -175 288 -231 q 396 -97 356 -172 q 471 156 436 -21 l 578 708 l 857 736 m 749 1042 q 853 1013 813 1042 q 894 931 894 983 q 851 847 894 875 q 743 819 807 819 q 637 847 679 819 q 594 928 594 875 q 640 1013 594 983 q 749 1042 685 1042 z "},"ī":{"ha":421,"x_min":35,"x_max":546,"o":"m 317 208 q 312 181 314 197 q 310 150 310 164 q 325 100 310 122 q 375 75 340 78 q 305 -3 358 22 q 194 -28 251 -28 q 80 8 125 -28 q 35 115 35 43 q 44 215 35 151 q 67 340 54 278 q 86 439 79 403 l 139 708 l 419 736 l 317 208 m 540 992 q 546 953 546 969 q 519 890 546 915 q 440 864 493 864 l 115 864 q 112 884 113 874 q 111 901 111 894 q 139 967 113 942 q 206 992 165 992 l 540 992 z "},"į":{"ha":421,"x_min":35,"x_max":467,"o":"m 317 208 q 312 181 314 197 q 310 150 310 164 q 325 100 310 122 q 375 75 340 78 q 305 -3 358 22 q 194 -28 251 -28 q 80 8 125 -28 q 35 115 35 43 q 44 215 35 151 q 67 340 54 278 q 86 439 79 403 l 139 708 l 419 736 l 317 208 m 321 1042 q 426 1013 385 1042 q 467 931 467 983 q 423 847 467 875 q 315 819 379 819 q 209 847 251 819 q 167 928 167 875 q 212 1013 167 983 q 321 1042 257 1042 m 329 22 l 329 14 q 240 -70 278 -21 q 203 -171 203 -119 q 268 -242 203 -242 q 315 -233 293 -242 q 354 -207 338 -225 q 379 -272 379 -239 q 341 -333 379 -307 q 229 -358 303 -358 q 96 -319 144 -358 q 47 -203 47 -281 q 114 -51 47 -108 q 268 31 181 6 l 329 22 z "},"ĩ":{"ha":421,"x_min":35,"x_max":579,"o":"m 317 208 q 312 181 314 197 q 310 150 310 164 q 325 100 310 122 q 375 75 340 78 q 305 -3 358 22 q 194 -28 251 -28 q 80 8 125 -28 q 35 115 35 43 q 44 215 35 151 q 67 340 54 278 q 86 439 79 403 l 139 708 l 419 736 l 317 208 m 553 1010 q 579 939 579 978 q 446 836 579 836 q 355 842 411 836 q 244 855 299 849 q 161 861 189 861 q 106 853 132 861 q 68 838 81 846 q 40 917 40 878 q 178 1010 40 1010 q 273 1003 217 1010 q 383 992 329 997 q 469 986 438 986 q 518 992 496 986 q 553 1010 540 997 z "},"j":{"ha":421,"x_min":-164,"x_max":457,"o":"m 419 736 l 301 128 q 194 -177 261 -76 q 1 -278 128 -278 q -103 -254 -57 -278 q -164 -175 -150 -231 q -42 -97 -82 -172 q 33 156 -1 -21 l 140 708 l 419 736 m 311 1042 q 416 1013 375 1042 q 457 931 457 983 q 413 847 457 875 q 306 819 369 819 q 199 847 242 819 q 157 928 157 875 q 202 1013 157 983 q 311 1042 247 1042 z "},"ȷ":{"ha":421,"x_min":-164,"x_max":419,"o":"m 419 736 l 301 128 q 194 -177 261 -76 q 1 -278 128 -278 q -103 -254 -57 -278 q -164 -175 -150 -231 q -42 -97 -82 -172 q 33 156 -1 -21 l 140 708 l 419 736 z "},"ĵ":{"ha":421,"x_min":-164,"x_max":535,"o":"m 419 736 l 301 128 q 194 -177 261 -76 q 1 -278 128 -278 q -103 -254 -57 -278 q -164 -175 -150 -231 q -42 -97 -82 -172 q 33 156 -1 -21 l 140 708 l 419 736 m 535 881 l 465 817 l 303 889 l 97 817 l 54 881 l 286 1042 l 350 1042 l 535 881 z "},"k":{"ha":760,"x_min":-19,"x_max":789,"o":"m 456 1000 l 424 838 q 404 752 417 804 q 372 658 392 700 q 475 719 417 703 q 589 736 533 736 q 737 693 685 736 q 789 561 789 650 q 738 412 789 472 q 597 326 686 351 l 653 182 q 689 115 667 143 q 746 85 711 88 q 680 0 729 28 q 574 -28 631 -28 q 442 27 489 -28 q 376 163 396 82 q 353 326 357 244 q 469 408 419 344 q 519 551 519 471 q 467 629 519 629 q 383 558 411 629 q 342 422 354 486 l 260 0 l -19 -28 l 176 972 l 456 1000 z "},"ķ":{"ha":760,"x_min":-19,"x_max":789,"o":"m 456 1000 l 424 838 q 404 752 417 804 q 372 658 392 700 q 475 719 417 703 q 589 736 533 736 q 737 693 685 736 q 789 561 789 650 q 738 412 789 472 q 597 326 686 351 l 653 182 q 689 115 667 143 q 746 85 711 88 q 680 0 729 28 q 574 -28 631 -28 q 442 27 489 -28 q 376 163 396 82 q 353 326 357 244 q 469 408 419 344 q 519 551 519 471 q 467 629 519 629 q 383 558 411 629 q 342 422 354 486 l 260 0 l -19 -28 l 176 972 l 456 1000 m 460 -165 q 423 -271 460 -228 q 335 -336 386 -314 q 239 -358 283 -358 q 185 -353 204 -358 q 251 -265 228 -306 q 274 -162 274 -224 q 260 -92 274 -122 q 299 -78 271 -85 q 346 -71 326 -71 q 430 -98 400 -71 q 460 -165 460 -125 z "},"ĸ":{"ha":774,"x_min":-6,"x_max":803,"o":"m 367 736 l 344 599 q 421 689 375 660 q 516 727 467 718 q 603 736 565 736 q 751 693 699 736 q 803 561 803 650 q 751 412 803 472 q 611 326 700 351 l 667 182 q 703 115 681 143 q 760 85 725 88 q 694 0 743 28 q 588 -28 644 -28 q 456 27 503 -28 q 390 163 410 82 q 367 326 371 244 q 483 408 433 344 q 533 551 533 471 q 481 629 533 629 q 397 558 425 629 q 356 422 368 486 l 274 0 l -6 -28 l 139 708 l 367 736 z "},"l":{"ha":425,"x_min":22,"x_max":457,"o":"m 457 1000 l 304 208 q 300 181 303 197 q 297 150 297 164 q 313 100 297 122 q 363 75 328 78 q 292 -3 346 22 q 182 -28 239 -28 q 67 8 113 -28 q 22 115 22 43 q 32 215 22 151 q 54 340 42 278 q 74 439 67 403 l 175 972 l 457 1000 z "},"ĺ":{"ha":425,"x_min":22,"x_max":547,"o":"m 457 1000 l 304 208 q 300 181 303 197 q 297 150 297 164 q 313 100 297 122 q 363 75 328 78 q 292 -3 346 22 q 182 -28 239 -28 q 67 8 113 -28 q 22 115 22 43 q 32 215 22 151 q 54 340 42 278 q 74 439 67 403 l 175 972 l 457 1000 m 185 1014 l 168 1082 l 508 1224 q 537 1192 526 1210 q 547 1149 547 1175 q 487 1049 547 1076 q 350 1019 426 1022 l 185 1014 z "},"ľ":{"ha":425,"x_min":22,"x_max":661,"o":"m 457 1000 l 304 208 q 300 181 303 197 q 297 150 297 164 q 313 100 297 122 q 363 75 328 78 q 292 -3 346 22 q 182 -28 239 -28 q 67 8 113 -28 q 22 115 22 43 q 32 215 22 151 q 54 340 42 278 q 74 439 67 403 l 175 972 l 457 1000 m 479 981 q 517 993 492 986 q 564 1000 542 1000 q 634 972 607 1000 q 661 892 661 943 q 609 785 661 839 q 474 731 557 731 q 446 733 457 731 q 425 739 435 736 q 479 826 467 786 q 492 903 492 867 q 489 944 492 926 q 479 981 486 961 z "},"ļ":{"ha":425,"x_min":18,"x_max":457,"o":"m 457 1000 l 304 208 q 300 181 303 197 q 297 150 297 164 q 313 100 297 122 q 363 75 328 78 q 292 -3 346 22 q 182 -28 239 -28 q 67 8 113 -28 q 22 115 22 43 q 32 215 22 151 q 54 340 42 278 q 74 439 67 403 l 175 972 l 457 1000 m 293 -165 q 256 -271 293 -228 q 168 -336 219 -314 q 72 -358 117 -358 q 18 -353 38 -358 q 84 -265 61 -306 q 107 -162 107 -224 q 93 -92 107 -122 q 132 -78 104 -85 q 179 -71 160 -71 q 263 -98 233 -71 q 293 -165 293 -125 z "},"ŀ":{"ha":494,"x_min":22,"x_max":565,"o":"m 486 560 q 547 534 528 560 q 557 464 565 508 q 517 393 547 419 q 443 367 486 367 q 381 392 400 367 q 369 460 361 418 q 411 533 379 506 q 486 560 443 560 m 457 1000 l 304 208 q 300 181 303 197 q 297 150 297 164 q 313 100 297 122 q 363 75 328 78 q 292 -3 346 22 q 182 -28 239 -28 q 67 8 113 -28 q 22 115 22 43 q 32 215 22 151 q 54 340 42 278 q 74 439 67 403 l 175 972 l 457 1000 z "},"ǉ":{"ha":425,"x_min":-157,"x_max":464,"o":"m 457 1000 l 304 208 q 300 181 303 197 q 297 150 297 164 q 313 100 297 122 q 363 75 328 78 q 292 -3 346 22 q 182 -28 239 -28 q 67 8 113 -28 q 22 115 22 43 q 32 215 22 151 q 54 340 42 278 q 74 439 67 403 l 175 972 l 457 1000 m 426 972 l 308 364 q 201 59 268 160 q 8 -42 135 -42 q -97 -18 -50 -42 q -157 61 -143 6 q -35 140 -75 64 q 40 392 6 215 l 147 944 l 426 972 m 318 1278 q 423 1249 382 1278 q 464 1167 464 1219 q 420 1083 464 1111 q 313 1056 376 1056 q 206 1083 249 1056 q 164 1164 164 1111 q 209 1249 164 1219 q 318 1278 254 1278 z "},"ł":{"ha":546,"x_min":-14,"x_max":560,"o":"m 533 626 q 553 594 547 614 q 560 558 560 574 q 463 463 560 496 l 413 444 l 367 208 q 362 181 364 197 q 360 150 360 164 q 375 100 360 122 q 425 75 390 78 q 355 -3 408 22 q 244 -28 301 -28 q 130 8 175 -28 q 85 115 85 43 q 90 174 85 139 q 100 247 94 208 q 108 292 104 269 q 117 338 113 315 l 15 301 q -6 328 3 313 q -14 365 -14 344 q 0 412 -14 389 q 49 447 14 435 l 144 482 l 238 972 l 519 1000 l 440 592 l 533 626 z "},"m":{"ha":1250,"x_min":-6,"x_max":1214,"o":"m 344 600 q 447 705 382 674 q 592 736 511 736 q 710 712 660 736 q 779 625 760 688 q 881 711 819 686 q 1015 736 942 736 q 1160 699 1106 736 q 1214 572 1214 661 q 1194 434 1214 514 q 1156 278 1175 354 q 1138 156 1138 203 q 1203 75 1138 83 q 1133 -3 1186 22 q 1022 -28 1079 -28 q 908 8 953 -28 q 863 115 863 43 q 883 251 863 167 q 923 421 903 336 q 943 560 943 506 q 934 608 943 586 q 896 629 925 629 q 833 590 857 629 q 794 502 808 551 q 775 422 781 453 l 693 0 l 414 -28 l 492 339 q 514 447 499 371 q 529 564 529 524 q 520 608 529 586 q 481 629 511 629 q 416 593 442 629 q 376 508 390 557 q 356 422 363 458 l 274 0 l -6 -28 l 139 708 l 367 736 l 344 600 z "},"n":{"ha":836,"x_min":-6,"x_max":800,"o":"m 344 600 q 450 705 383 674 q 600 736 517 736 q 746 699 692 736 q 800 574 800 663 q 781 434 800 514 q 742 278 761 354 q 724 156 724 203 q 789 75 724 83 q 719 -3 772 22 q 608 -28 665 -28 q 494 8 539 -28 q 449 115 449 43 q 469 251 449 167 q 509 421 489 336 q 529 561 529 506 q 520 608 529 588 q 481 629 511 629 q 397 559 425 629 q 356 422 369 489 l 274 0 l -6 -28 l 139 708 l 367 736 l 344 600 z "},"ń":{"ha":836,"x_min":-6,"x_max":800,"o":"m 344 600 q 450 705 383 674 q 600 736 517 736 q 746 699 692 736 q 800 574 800 663 q 781 434 800 514 q 742 278 761 354 q 724 156 724 203 q 789 75 724 83 q 719 -3 772 22 q 608 -28 665 -28 q 494 8 539 -28 q 449 115 449 43 q 469 251 449 167 q 509 421 489 336 q 529 561 529 506 q 520 608 529 588 q 481 629 511 629 q 397 559 425 629 q 356 422 369 489 l 274 0 l -6 -28 l 139 708 l 367 736 l 344 600 m 351 875 l 679 1078 q 717 1042 706 1067 q 729 986 729 1017 q 676 884 729 914 q 551 840 622 854 l 381 808 l 351 875 z "},"ŉ":{"ha":836,"x_min":-96,"x_max":800,"o":"m 600 736 q 746 699 692 736 q 800 574 800 663 q 781 434 800 514 q 742 278 761 354 q 724 156 724 203 q 789 75 724 83 q 719 -3 772 22 q 608 -28 665 -28 q 494 8 539 -28 q 449 115 449 43 q 469 251 449 167 q 509 421 489 336 q 529 561 529 506 q 520 608 529 588 q 481 629 511 629 q 397 559 425 629 q 356 422 369 489 l 274 0 l -6 -28 l 139 708 l 367 736 l 344 600 q 450 705 383 674 q 600 736 517 736 m 88 1015 q 182 988 146 1015 q 218 893 218 960 q 187 797 218 846 q 99 714 156 747 q -32 681 43 681 q -69 683 -54 681 q -96 689 -83 686 q -24 802 -40 749 q -8 894 -8 856 q -12 947 -8 925 q -24 989 -17 969 q 26 1008 -7 1000 q 88 1015 60 1015 z "},"ň":{"ha":836,"x_min":-6,"x_max":800,"o":"m 344 600 q 450 705 383 674 q 600 736 517 736 q 746 699 692 736 q 800 574 800 663 q 781 434 800 514 q 742 278 761 354 q 724 156 724 203 q 789 75 724 83 q 719 -3 772 22 q 608 -28 665 -28 q 494 8 539 -28 q 449 115 449 43 q 469 251 449 167 q 509 421 489 336 q 529 561 529 506 q 520 608 529 588 q 481 629 511 629 q 397 559 425 629 q 356 422 369 489 l 274 0 l -6 -28 l 139 708 l 367 736 l 344 600 m 279 1018 l 349 1082 l 511 982 l 717 1082 l 760 1018 l 542 829 l 450 829 l 279 1018 z "},"ņ":{"ha":836,"x_min":-6,"x_max":800,"o":"m 344 600 q 450 705 383 674 q 600 736 517 736 q 746 699 692 736 q 800 574 800 663 q 781 434 800 514 q 742 278 761 354 q 724 156 724 203 q 789 75 724 83 q 719 -3 772 22 q 608 -28 665 -28 q 494 8 539 -28 q 449 115 449 43 q 469 251 449 167 q 509 421 489 336 q 529 561 529 506 q 520 608 529 588 q 481 629 511 629 q 397 559 425 629 q 356 422 369 489 l 274 0 l -6 -28 l 139 708 l 367 736 l 344 600 m 463 -165 q 426 -271 463 -228 q 338 -336 389 -314 q 242 -358 286 -358 q 188 -353 207 -358 q 253 -265 231 -306 q 276 -162 276 -224 q 263 -92 276 -122 q 301 -78 274 -85 q 349 -71 329 -71 q 433 -98 403 -71 q 463 -165 463 -125 z "},"ṅ":{"ha":836,"x_min":-6,"x_max":800,"o":"m 344 600 q 450 705 383 674 q 600 736 517 736 q 746 699 692 736 q 800 574 800 663 q 781 434 800 514 q 742 278 761 354 q 724 156 724 203 q 789 75 724 83 q 719 -3 772 22 q 608 -28 665 -28 q 494 8 539 -28 q 449 115 449 43 q 469 251 449 167 q 509 421 489 336 q 529 561 529 506 q 520 608 529 588 q 481 629 511 629 q 397 559 425 629 q 356 422 369 489 l 274 0 l -6 -28 l 139 708 l 367 736 l 344 600 m 524 1042 q 628 1013 588 1042 q 669 931 669 983 q 626 847 669 875 q 518 819 582 819 q 412 847 454 819 q 369 928 369 875 q 415 1013 369 983 q 524 1042 460 1042 z "},"ŋ":{"ha":836,"x_min":-6,"x_max":800,"o":"m 139 708 l 367 736 l 344 600 q 450 705 383 674 q 600 736 517 736 q 746 699 692 736 q 800 571 800 661 q 798 534 800 554 q 792 492 796 514 l 719 128 q 615 -175 681 -72 q 419 -278 549 -278 q 315 -254 361 -278 q 254 -175 269 -231 q 378 -97 338 -171 q 461 156 419 -24 q 507 376 485 258 q 529 557 529 493 q 520 608 529 588 q 482 629 511 629 q 396 557 424 629 q 356 422 368 485 l 274 0 l -6 -28 l 139 708 z "},"ǌ":{"ha":1257,"x_min":-6,"x_max":1293,"o":"m 344 600 q 450 705 383 674 q 600 736 517 736 q 746 699 692 736 q 800 574 800 663 q 781 434 800 514 q 742 278 761 354 q 724 156 724 203 q 789 75 724 83 q 719 -3 772 22 q 608 -28 665 -28 q 494 8 539 -28 q 449 115 449 43 q 469 251 449 167 q 509 421 489 336 q 529 561 529 506 q 520 608 529 588 q 481 629 511 629 q 397 559 425 629 q 356 422 369 489 l 274 0 l -6 -28 l 139 708 l 367 736 l 344 600 m 1256 736 l 1138 128 q 1031 -177 1097 -76 q 838 -278 964 -278 q 733 -254 779 -278 q 672 -175 686 -231 q 794 -97 754 -172 q 869 156 835 -21 l 976 708 l 1256 736 m 1147 1042 q 1252 1013 1211 1042 q 1293 931 1293 983 q 1249 847 1293 875 q 1142 819 1206 819 q 1035 847 1078 819 q 993 928 993 875 q 1038 1013 993 983 q 1147 1042 1083 1042 z "},"ñ":{"ha":836,"x_min":-6,"x_max":800,"o":"m 344 600 q 450 705 383 674 q 600 736 517 736 q 746 699 692 736 q 800 574 800 663 q 781 434 800 514 q 742 278 761 354 q 724 156 724 203 q 789 75 724 83 q 719 -3 772 22 q 608 -28 665 -28 q 494 8 539 -28 q 449 115 449 43 q 469 251 449 167 q 509 421 489 336 q 529 561 529 506 q 520 608 529 588 q 481 629 511 629 q 397 559 425 629 q 356 422 369 489 l 274 0 l -6 -28 l 139 708 l 367 736 l 344 600 m 756 1010 q 782 939 782 978 q 649 836 782 836 q 558 842 614 836 q 447 855 501 849 q 364 861 392 861 q 309 853 335 861 q 271 838 283 846 q 243 917 243 878 q 381 1010 243 1010 q 476 1003 419 1010 q 586 992 532 997 q 672 986 640 986 q 721 992 699 986 q 756 1010 743 997 z "},"o":{"ha":786,"x_min":22,"x_max":764,"o":"m 469 736 q 688 665 611 736 q 764 438 764 594 q 711 203 764 308 q 558 35 658 97 q 318 -28 458 -28 q 100 44 178 -28 q 22 275 22 117 q 75 510 22 406 q 228 675 128 614 q 469 736 328 736 m 447 653 q 383 621 410 653 q 336 519 356 589 q 300 335 317 449 q 289 239 294 290 q 283 147 283 188 q 293 81 283 107 q 339 56 303 56 q 403 88 376 56 q 450 190 431 119 q 486 374 469 260 q 497 469 492 418 q 503 561 503 521 q 493 627 503 601 q 447 653 483 653 z "},"ó":{"ha":786,"x_min":22,"x_max":764,"o":"m 469 736 q 688 665 611 736 q 764 438 764 594 q 711 203 764 308 q 558 35 658 97 q 318 -28 458 -28 q 100 44 178 -28 q 22 275 22 117 q 75 510 22 406 q 228 675 128 614 q 469 736 328 736 m 447 653 q 383 621 410 653 q 336 519 356 589 q 300 335 317 449 q 289 239 294 290 q 283 147 283 188 q 293 81 283 107 q 339 56 303 56 q 403 88 376 56 q 450 190 431 119 q 486 374 469 260 q 497 469 492 418 q 503 561 503 521 q 493 627 503 601 q 447 653 483 653 m 350 875 l 678 1078 q 716 1042 704 1067 q 728 986 728 1017 q 674 884 728 914 q 550 840 621 854 l 379 808 l 350 875 z "},"ŏ":{"ha":786,"x_min":22,"x_max":810,"o":"m 469 736 q 688 665 611 736 q 764 438 764 594 q 711 203 764 308 q 558 35 658 97 q 318 -28 458 -28 q 100 44 178 -28 q 22 275 22 117 q 75 510 22 406 q 228 675 128 614 q 469 736 328 736 m 447 653 q 383 621 410 653 q 336 519 356 589 q 300 335 317 449 q 289 239 294 290 q 283 147 283 188 q 293 81 283 107 q 339 56 303 56 q 403 88 376 56 q 450 190 431 119 q 486 374 469 260 q 497 469 492 418 q 503 561 503 521 q 493 627 503 601 q 447 653 483 653 m 472 1032 q 468 1008 469 1017 q 467 990 467 1000 q 467 923 467 958 q 513 888 468 888 q 583 936 567 888 q 610 1032 600 985 l 810 1032 q 719 881 793 943 q 499 819 646 819 q 319 872 379 819 q 260 994 260 925 q 264 1032 260 1011 l 472 1032 z "},"ô":{"ha":786,"x_min":22,"x_max":764,"o":"m 469 736 q 688 665 611 736 q 764 438 764 594 q 711 203 764 308 q 558 35 658 97 q 318 -28 458 -28 q 100 44 178 -28 q 22 275 22 117 q 75 510 22 406 q 228 675 128 614 q 469 736 328 736 m 447 653 q 383 621 410 653 q 336 519 356 589 q 300 335 317 449 q 289 239 294 290 q 283 147 283 188 q 293 81 283 107 q 339 56 303 56 q 403 88 376 56 q 450 190 431 119 q 486 374 469 260 q 497 469 492 418 q 503 561 503 521 q 493 627 503 601 q 447 653 483 653 m 744 881 l 675 817 l 513 889 l 307 817 l 264 881 l 496 1042 l 560 1042 l 744 881 z "},"ö":{"ha":786,"x_min":22,"x_max":838,"o":"m 469 736 q 688 665 611 736 q 764 438 764 594 q 711 203 764 308 q 558 35 658 97 q 318 -28 458 -28 q 100 44 178 -28 q 22 275 22 117 q 75 510 22 406 q 228 675 128 614 q 469 736 328 736 m 447 653 q 383 621 410 653 q 336 519 356 589 q 300 335 317 449 q 289 239 294 290 q 283 147 283 188 q 293 81 283 107 q 339 56 303 56 q 403 88 376 56 q 450 190 431 119 q 486 374 469 260 q 497 469 492 418 q 503 561 503 521 q 493 627 503 601 q 447 653 483 653 z "},"ọ":{"ha":786,"x_min":22,"x_max":764,"o":"m 469 736 q 688 665 611 736 q 764 438 764 594 q 711 203 764 308 q 558 35 658 97 q 318 -28 458 -28 q 100 44 178 -28 q 22 275 22 117 q 75 510 22 406 q 228 675 128 614 q 469 736 328 736 m 447 653 q 383 621 410 653 q 336 519 356 589 q 300 335 317 449 q 289 239 294 290 q 283 147 283 188 q 293 81 283 107 q 339 56 303 56 q 403 88 376 56 q 450 190 431 119 q 486 374 469 260 q 497 469 492 418 q 503 561 503 521 q 493 627 503 601 q 447 653 483 653 m 339 -58 q 439 -85 400 -58 q 478 -164 478 -112 q 436 -243 478 -217 q 333 -269 394 -269 q 232 -243 272 -269 q 192 -167 192 -217 q 235 -86 192 -114 q 339 -58 278 -58 z "},"ò":{"ha":786,"x_min":22,"x_max":764,"o":"m 469 736 q 688 665 611 736 q 764 438 764 594 q 711 203 764 308 q 558 35 658 97 q 318 -28 458 -28 q 100 44 178 -28 q 22 275 22 117 q 75 510 22 406 q 228 675 128 614 q 469 736 328 736 m 447 653 q 383 621 410 653 q 336 519 356 589 q 300 335 317 449 q 289 239 294 290 q 283 147 283 188 q 293 81 283 107 q 339 56 303 56 q 403 88 376 56 q 450 190 431 119 q 486 374 469 260 q 497 469 492 418 q 503 561 503 521 q 493 627 503 601 q 447 653 483 653 m 606 808 l 435 840 q 310 884 364 854 q 257 986 257 914 q 269 1042 257 1017 q 307 1078 281 1067 l 635 875 l 606 808 z "},"ő":{"ha":786,"x_min":22,"x_max":885,"o":"m 469 736 q 688 665 611 736 q 764 438 764 594 q 711 203 764 308 q 558 35 658 97 q 318 -28 458 -28 q 100 44 178 -28 q 22 275 22 117 q 75 510 22 406 q 228 675 128 614 q 469 736 328 736 m 447 653 q 383 621 410 653 q 336 519 356 589 q 300 335 317 449 q 289 239 294 290 q 283 147 283 188 q 293 81 283 107 q 339 56 303 56 q 403 88 376 56 q 450 190 431 119 q 486 374 469 260 q 497 469 492 418 q 503 561 503 521 q 493 627 503 601 q 447 653 483 653 m 286 789 l 507 1096 q 578 1067 551 1089 q 606 1013 606 1044 q 567 909 606 961 q 467 824 529 857 l 350 751 l 286 789 m 565 789 l 786 1096 q 857 1067 829 1089 q 885 1013 885 1044 q 847 909 885 961 q 746 824 808 857 l 629 751 l 565 789 z "},"ō":{"ha":786,"x_min":22,"x_max":764,"o":"m 469 736 q 688 665 611 736 q 764 438 764 594 q 711 203 764 308 q 558 35 658 97 q 318 -28 458 -28 q 100 44 178 -28 q 22 275 22 117 q 75 510 22 406 q 228 675 128 614 q 469 736 328 736 m 447 653 q 383 621 410 653 q 336 519 356 589 q 300 335 317 449 q 289 239 294 290 q 283 147 283 188 q 293 81 283 107 q 339 56 303 56 q 403 88 376 56 q 450 190 431 119 q 486 374 469 260 q 497 469 492 418 q 503 561 503 521 q 493 627 503 601 q 447 653 483 653 m 742 992 q 747 953 747 969 q 721 890 747 915 q 642 864 694 864 l 317 864 q 313 884 314 874 q 313 901 313 894 q 340 967 314 942 q 407 992 367 992 l 742 992 z "},"ǫ":{"ha":786,"x_min":22,"x_max":764,"o":"m 469 736 q 688 665 611 736 q 764 438 764 594 q 711 203 764 308 q 558 35 658 97 q 318 -28 458 -28 q 100 44 178 -28 q 22 275 22 117 q 75 510 22 406 q 228 675 128 614 q 469 736 328 736 m 447 653 q 383 621 410 653 q 336 519 356 589 q 300 335 317 449 q 289 239 294 290 q 283 147 283 188 q 293 81 283 107 q 339 56 303 56 q 403 88 376 56 q 450 190 431 119 q 486 374 469 260 q 497 469 492 418 q 503 561 503 521 q 493 627 503 601 q 447 653 483 653 m 513 22 l 513 14 q 424 -70 461 -21 q 386 -171 386 -119 q 451 -242 386 -242 q 499 -233 476 -242 q 538 -207 521 -225 q 563 -272 563 -239 q 524 -333 563 -307 q 413 -358 486 -358 q 279 -319 328 -358 q 231 -203 231 -281 q 297 -51 231 -108 q 451 31 364 6 l 513 22 z "},"ø":{"ha":786,"x_min":10,"x_max":779,"o":"m 713 825 q 756 803 733 825 q 779 747 779 782 q 749 678 779 710 l 711 638 q 751 552 738 601 q 764 438 764 503 q 711 203 764 308 q 558 35 658 97 q 318 -28 458 -28 q 208 -15 258 -28 q 119 26 158 -1 l 164 33 l 149 18 q 106 -34 121 -12 q 76 -81 92 -56 q 27 -59 44 -81 q 10 -10 10 -37 q 38 63 10 31 l 64 92 q 33 172 43 126 q 22 275 22 218 q 75 510 22 406 q 228 675 128 614 q 469 736 328 736 q 551 730 514 736 q 619 710 589 724 l 642 735 q 681 781 665 761 q 713 825 696 800 m 535 442 l 188 60 l 290 257 q 285 201 288 229 q 283 147 283 174 q 293 81 283 107 q 339 56 303 56 q 414 103 385 56 q 460 219 443 150 q 485 353 476 288 q 499 456 493 419 l 535 442 m 447 653 q 376 613 404 653 q 325 481 347 572 q 314 424 319 454 q 303 358 308 394 l 503 579 q 489 633 500 613 q 447 653 478 653 z "},"ǿ":{"ha":786,"x_min":10,"x_max":779,"o":"m 713 825 q 756 803 733 825 q 779 747 779 782 q 749 678 779 710 l 711 638 q 751 552 738 601 q 764 438 764 503 q 711 203 764 308 q 558 35 658 97 q 318 -28 458 -28 q 208 -15 258 -28 q 119 26 158 -1 l 164 33 l 149 18 q 106 -34 121 -12 q 76 -81 92 -56 q 27 -59 44 -81 q 10 -10 10 -37 q 38 63 10 31 l 64 92 q 33 172 43 126 q 22 275 22 218 q 75 510 22 406 q 228 675 128 614 q 469 736 328 736 q 551 730 514 736 q 619 710 589 724 l 642 735 q 681 781 665 761 q 713 825 696 800 m 535 442 l 188 60 l 290 257 q 285 201 288 229 q 283 147 283 174 q 293 81 283 107 q 339 56 303 56 q 414 103 385 56 q 460 219 443 150 q 485 353 476 288 q 499 456 493 419 l 535 442 m 447 653 q 376 613 404 653 q 325 481 347 572 q 314 424 319 454 q 303 358 308 394 l 503 579 q 489 633 500 613 q 447 653 478 653 m 338 875 l 665 1078 q 703 1042 692 1067 q 715 986 715 1017 q 662 884 715 914 q 538 840 608 854 l 367 808 l 338 875 z "},"õ":{"ha":786,"x_min":22,"x_max":781,"o":"m 469 736 q 688 665 611 736 q 764 438 764 594 q 711 203 764 308 q 558 35 658 97 q 318 -28 458 -28 q 100 44 178 -28 q 22 275 22 117 q 75 510 22 406 q 228 675 128 614 q 469 736 328 736 m 447 653 q 383 621 410 653 q 336 519 356 589 q 300 335 317 449 q 289 239 294 290 q 283 147 283 188 q 293 81 283 107 q 339 56 303 56 q 403 88 376 56 q 450 190 431 119 q 486 374 469 260 q 497 469 492 418 q 503 561 503 521 q 493 627 503 601 q 447 653 483 653 m 754 1010 q 781 939 781 978 q 647 836 781 836 q 556 842 613 836 q 445 855 500 849 q 363 861 390 861 q 308 853 333 861 q 269 838 282 846 q 242 917 242 878 q 379 1010 242 1010 q 474 1003 418 1010 q 585 992 531 997 q 671 986 639 986 q 719 992 697 986 q 754 1010 742 997 z "},"œ":{"ha":1131,"x_min":22,"x_max":1167,"o":"m 926 736 q 1094 703 1022 736 q 1167 568 1167 669 q 1081 402 1167 461 q 847 331 996 343 q 795 327 822 328 q 739 326 768 326 q 735 278 735 303 q 758 186 735 225 q 850 147 781 147 q 951 167 894 147 q 1038 235 1007 188 q 1064 208 1056 224 q 1072 168 1072 192 q 1026 62 1072 106 q 909 -5 979 18 q 769 -28 839 -28 q 655 -12 711 -28 q 561 36 599 4 q 453 -11 513 6 q 321 -28 394 -28 q 99 45 175 -28 q 22 274 22 118 q 75 508 22 403 q 226 674 128 613 q 463 736 325 736 q 676 674 600 736 q 788 720 728 704 q 926 736 847 736 m 903 665 q 843 637 872 665 q 790 547 814 608 q 749 386 765 486 q 899 444 846 386 q 953 590 953 503 q 903 665 953 665 m 339 56 q 403 88 376 56 q 450 190 431 119 q 486 374 469 260 q 497 469 492 418 q 503 561 503 521 q 493 627 503 601 q 447 653 483 653 q 383 621 410 653 q 336 519 356 589 q 300 335 317 449 q 289 239 294 290 q 283 147 283 188 q 293 81 283 107 q 339 56 303 56 z "},"p":{"ha":808,"x_min":-51,"x_max":789,"o":"m 347 629 q 437 710 382 682 q 565 738 492 738 q 739 665 689 738 q 789 464 789 593 q 738 214 789 325 q 591 38 688 103 q 354 -26 494 -26 q 308 -24 331 -26 q 265 -17 285 -22 l 225 -250 l -51 -278 l 138 708 l 365 736 l 347 629 m 288 82 q 324 63 303 68 q 361 57 344 57 q 426 85 399 57 q 473 182 453 114 q 510 365 493 250 q 522 457 517 408 q 526 550 526 506 q 518 613 526 586 q 475 639 510 639 q 392 580 419 639 q 356 465 365 521 l 288 82 z "},"þ":{"ha":807,"x_min":-51,"x_max":789,"o":"m 436 838 q 420 765 431 808 q 394 682 410 722 q 469 723 429 708 q 564 738 510 738 q 738 666 688 738 q 789 464 789 594 q 738 213 789 324 q 590 38 688 101 q 354 -26 493 -26 q 308 -24 331 -26 q 265 -17 285 -22 l 225 -250 l -51 -278 l 189 972 l 468 1000 l 436 838 m 288 82 q 324 63 303 68 q 361 57 344 57 q 426 85 399 57 q 473 182 453 114 q 510 365 493 250 q 522 457 517 408 q 526 550 526 506 q 518 613 526 586 q 475 639 510 639 q 392 580 419 639 q 356 465 365 521 l 288 82 z "},"q":{"ha":817,"x_min":17,"x_max":817,"o":"m 817 736 l 636 -250 l 351 -278 l 381 -129 q 399 -44 386 -96 q 431 50 411 8 q 222 -28 353 -28 q 62 42 107 -28 q 17 235 17 111 q 67 489 17 375 q 215 669 117 603 q 460 736 314 736 q 530 731 494 736 q 597 710 565 725 l 817 736 m 525 628 q 489 647 510 642 q 450 653 468 653 q 389 627 417 653 q 339 534 361 601 q 297 342 317 467 q 286 249 292 299 q 281 157 281 200 q 289 96 281 122 q 332 69 297 69 q 400 106 375 69 q 439 191 425 142 q 460 278 453 240 l 525 628 z "},"r":{"ha":681,"x_min":-6,"x_max":729,"o":"m 343 600 q 428 702 375 668 q 557 736 482 736 q 685 694 640 736 q 729 575 729 653 q 676 430 729 486 q 540 374 622 374 q 492 380 517 374 q 456 400 468 386 q 496 481 479 431 q 513 571 513 531 q 504 612 513 594 q 471 629 496 629 q 422 605 444 629 q 380 532 399 581 q 349 408 361 483 l 282 0 l -6 -28 l 136 708 l 365 736 l 343 600 z "},"ŕ":{"ha":681,"x_min":-6,"x_max":729,"o":"m 343 600 q 428 702 375 668 q 557 736 482 736 q 685 694 640 736 q 729 575 729 653 q 676 430 729 486 q 540 374 622 374 q 492 380 517 374 q 456 400 468 386 q 496 481 479 431 q 513 571 513 531 q 504 612 513 594 q 471 629 496 629 q 422 605 444 629 q 380 532 399 581 q 349 408 361 483 l 282 0 l -6 -28 l 136 708 l 365 736 l 343 600 m 128 875 l 456 1078 q 494 1042 482 1067 q 506 986 506 1017 q 452 884 506 914 q 328 840 399 854 l 157 808 l 128 875 z "},"ř":{"ha":681,"x_min":-6,"x_max":729,"o":"m 343 600 q 428 702 375 668 q 557 736 482 736 q 685 694 640 736 q 729 575 729 653 q 676 430 729 486 q 540 374 622 374 q 492 380 517 374 q 456 400 468 386 q 496 481 479 431 q 513 571 513 531 q 504 612 513 594 q 471 629 496 629 q 422 605 444 629 q 380 532 399 581 q 349 408 361 483 l 282 0 l -6 -28 l 136 708 l 365 736 l 343 600 m 56 1018 l 125 1082 l 288 982 l 493 1082 l 536 1018 l 318 829 l 226 829 l 56 1018 z "},"ŗ":{"ha":681,"x_min":-35,"x_max":729,"o":"m 343 600 q 428 702 375 668 q 557 736 482 736 q 685 694 640 736 q 729 575 729 653 q 676 430 729 486 q 540 374 622 374 q 492 380 517 374 q 456 400 468 386 q 496 481 479 431 q 513 571 513 531 q 504 612 513 594 q 471 629 496 629 q 422 605 444 629 q 380 532 399 581 q 349 408 361 483 l 282 0 l -6 -28 l 136 708 l 365 736 l 343 600 m 240 -165 q 203 -271 240 -228 q 115 -336 167 -314 q 19 -358 64 -358 q -35 -353 -15 -358 q 31 -265 8 -306 q 54 -162 54 -224 q 40 -92 54 -122 q 79 -78 51 -85 q 126 -71 107 -71 q 210 -98 181 -71 q 240 -165 240 -125 z "},"ṛ":{"ha":681,"x_min":-17,"x_max":729,"o":"m 343 600 q 428 702 375 668 q 557 736 482 736 q 685 694 640 736 q 729 575 729 653 q 676 430 729 486 q 540 374 622 374 q 492 380 517 374 q 456 400 468 386 q 496 481 479 431 q 513 571 513 531 q 504 612 513 594 q 471 629 496 629 q 422 605 444 629 q 380 532 399 581 q 349 408 361 483 l 282 0 l -6 -28 l 136 708 l 365 736 l 343 600 m 131 -58 q 231 -85 192 -58 q 269 -164 269 -112 q 228 -243 269 -217 q 125 -269 186 -269 q 24 -243 64 -269 q -17 -167 -17 -217 q 26 -86 -17 -114 q 131 -58 69 -58 z "},"s":{"ha":621,"x_min":-29,"x_max":646,"o":"m 350 132 q 308 201 350 172 q 213 267 267 231 q 103 359 136 318 q 69 461 69 400 q 169 656 69 575 q 438 736 269 736 q 586 707 526 736 q 646 600 646 678 q 608 506 646 540 q 500 472 569 472 q 465 476 481 472 q 438 488 450 479 q 452 542 447 517 q 457 586 457 567 q 440 645 457 625 q 394 665 424 665 q 324 630 350 665 q 299 567 299 594 q 340 500 299 529 q 439 432 381 471 q 543 347 507 388 q 579 238 579 306 q 485 49 579 126 q 224 -28 392 -28 q 52 2 133 -28 q -29 111 -29 32 q 12 197 -29 165 q 113 228 53 228 q 203 206 167 228 q 185 128 185 160 q 202 69 185 92 q 256 46 219 46 q 323 73 296 46 q 350 132 350 100 z "},"ś":{"ha":621,"x_min":-29,"x_max":667,"o":"m 350 132 q 308 201 350 172 q 213 267 267 231 q 103 359 136 318 q 69 461 69 400 q 169 656 69 575 q 438 736 269 736 q 586 707 526 736 q 646 600 646 678 q 608 506 646 540 q 500 472 569 472 q 465 476 481 472 q 438 488 450 479 q 452 542 447 517 q 457 586 457 567 q 440 645 457 625 q 394 665 424 665 q 324 630 350 665 q 299 567 299 594 q 340 500 299 529 q 439 432 381 471 q 543 347 507 388 q 579 238 579 306 q 485 49 579 126 q 224 -28 392 -28 q 52 2 133 -28 q -29 111 -29 32 q 12 197 -29 165 q 113 228 53 228 q 203 206 167 228 q 185 128 185 160 q 202 69 185 92 q 256 46 219 46 q 323 73 296 46 q 350 132 350 100 m 289 875 l 617 1078 q 655 1042 643 1067 q 667 986 667 1017 q 613 884 667 914 q 489 840 560 854 l 318 808 l 289 875 z "},"š":{"ha":621,"x_min":-29,"x_max":697,"o":"m 350 132 q 308 201 350 172 q 213 267 267 231 q 103 359 136 318 q 69 461 69 400 q 169 656 69 575 q 438 736 269 736 q 586 707 526 736 q 646 600 646 678 q 608 506 646 540 q 500 472 569 472 q 465 476 481 472 q 438 488 450 479 q 452 542 447 517 q 457 586 457 567 q 440 645 457 625 q 394 665 424 665 q 324 630 350 665 q 299 567 299 594 q 340 500 299 529 q 439 432 381 471 q 543 347 507 388 q 579 238 579 306 q 485 49 579 126 q 224 -28 392 -28 q 52 2 133 -28 q -29 111 -29 32 q 12 197 -29 165 q 113 228 53 228 q 203 206 167 228 q 185 128 185 160 q 202 69 185 92 q 256 46 219 46 q 323 73 296 46 q 350 132 350 100 m 217 1018 l 286 1082 l 449 982 l 654 1082 l 697 1018 l 479 829 l 388 829 l 217 1018 z "},"ş":{"ha":621,"x_min":-29,"x_max":646,"o":"m 350 132 q 308 201 350 172 q 213 267 267 231 q 103 359 136 318 q 69 461 69 400 q 169 656 69 575 q 438 736 269 736 q 586 707 526 736 q 646 600 646 678 q 608 506 646 540 q 500 472 569 472 q 465 476 481 472 q 438 488 450 479 q 452 542 447 517 q 457 586 457 567 q 440 645 457 625 q 394 665 424 665 q 324 630 350 665 q 299 567 299 594 q 340 500 299 529 q 439 432 381 471 q 543 347 507 388 q 579 238 579 306 q 485 49 579 126 q 224 -28 392 -28 q 52 2 133 -28 q -29 111 -29 32 q 12 197 -29 165 q 113 228 53 228 q 203 206 167 228 q 185 128 185 160 q 202 69 185 92 q 256 46 219 46 q 323 73 296 46 q 350 132 350 100 m 301 15 l 267 -101 l 251 -83 q 280 -80 257 -81 q 318 -79 303 -79 q 426 -105 381 -79 q 471 -192 471 -131 q 403 -312 471 -265 q 239 -358 335 -358 q 142 -339 178 -358 q 107 -285 107 -319 q 132 -219 107 -242 q 169 -252 146 -240 q 232 -264 192 -264 q 283 -250 264 -264 q 303 -204 303 -236 q 276 -162 303 -172 q 222 -153 250 -153 q 192 -153 206 -153 q 164 -156 178 -154 l 215 15 l 301 15 z "},"ŝ":{"ha":621,"x_min":-29,"x_max":683,"o":"m 350 132 q 308 201 350 172 q 213 267 267 231 q 103 359 136 318 q 69 461 69 400 q 169 656 69 575 q 438 736 269 736 q 586 707 526 736 q 646 600 646 678 q 608 506 646 540 q 500 472 569 472 q 465 476 481 472 q 438 488 450 479 q 452 542 447 517 q 457 586 457 567 q 440 645 457 625 q 394 665 424 665 q 324 630 350 665 q 299 567 299 594 q 340 500 299 529 q 439 432 381 471 q 543 347 507 388 q 579 238 579 306 q 485 49 579 126 q 224 -28 392 -28 q 52 2 133 -28 q -29 111 -29 32 q 12 197 -29 165 q 113 228 53 228 q 203 206 167 228 q 185 128 185 160 q 202 69 185 92 q 256 46 219 46 q 323 73 296 46 q 350 132 350 100 m 683 881 l 614 817 l 451 889 l 246 817 l 203 881 l 435 1042 l 499 1042 l 683 881 z "},"ș":{"ha":621,"x_min":-29,"x_max":646,"o":"m 350 132 q 308 201 350 172 q 213 267 267 231 q 103 359 136 318 q 69 461 69 400 q 169 656 69 575 q 438 736 269 736 q 586 707 526 736 q 646 600 646 678 q 608 506 646 540 q 500 472 569 472 q 465 476 481 472 q 438 488 450 479 q 452 542 447 517 q 457 586 457 567 q 440 645 457 625 q 394 665 424 665 q 324 630 350 665 q 299 567 299 594 q 340 500 299 529 q 439 432 381 471 q 543 347 507 388 q 579 238 579 306 q 485 49 579 126 q 224 -28 392 -28 q 52 2 133 -28 q -29 111 -29 32 q 12 197 -29 165 q 113 228 53 228 q 203 206 167 228 q 185 128 185 160 q 202 69 185 92 q 256 46 219 46 q 323 73 296 46 q 350 132 350 100 m 347 -165 q 310 -271 347 -228 q 222 -336 274 -314 q 126 -358 171 -358 q 72 -353 92 -358 q 138 -265 115 -306 q 161 -162 161 -224 q 147 -92 161 -122 q 186 -78 158 -85 q 233 -71 214 -71 q 317 -98 288 -71 q 347 -165 347 -125 z "},"ṣ":{"ha":621,"x_min":-29,"x_max":646,"o":"m 350 132 q 308 201 350 172 q 213 267 267 231 q 103 359 136 318 q 69 461 69 400 q 169 656 69 575 q 438 736 269 736 q 586 707 526 736 q 646 600 646 678 q 608 506 646 540 q 500 472 569 472 q 465 476 481 472 q 438 488 450 479 q 452 542 447 517 q 457 586 457 567 q 440 645 457 625 q 394 665 424 665 q 324 630 350 665 q 299 567 299 594 q 340 500 299 529 q 439 432 381 471 q 543 347 507 388 q 579 238 579 306 q 485 49 579 126 q 224 -28 392 -28 q 52 2 133 -28 q -29 111 -29 32 q 12 197 -29 165 q 113 228 53 228 q 203 206 167 228 q 185 128 185 160 q 202 69 185 92 q 256 46 219 46 q 323 73 296 46 q 350 132 350 100 m 238 -58 q 338 -85 299 -58 q 376 -164 376 -112 q 335 -243 376 -217 q 232 -269 293 -269 q 131 -243 171 -269 q 90 -167 90 -217 q 133 -86 90 -114 q 238 -58 176 -58 z "},"ß":{"ha":1039,"x_min":-164,"x_max":1013,"o":"m 157 721 q 297 940 189 879 q 554 1000 406 1000 q 778 958 679 1000 q 876 815 876 917 q 831 713 876 754 q 740 639 786 672 q 694 564 694 606 q 735 502 694 522 q 826 453 775 482 q 952 369 892 417 q 1013 239 1013 322 q 957 101 1013 161 q 817 6 901 40 q 644 -28 732 -28 q 483 8 563 -28 q 404 125 404 44 q 442 213 404 178 q 546 249 481 249 q 636 226 600 249 q 622 166 626 199 q 618 113 618 133 q 674 40 618 40 q 736 62 707 40 q 765 122 765 83 q 712 219 765 175 q 599 311 658 264 q 507 390 547 351 q 467 490 467 429 q 495 574 467 536 q 561 650 524 613 q 627 731 599 688 q 656 833 656 775 q 635 908 656 878 q 569 938 614 938 q 485 890 524 938 q 422 715 447 843 l 292 39 q 189 -192 261 -122 q -3 -261 117 -261 q -102 -242 -65 -261 q -164 -178 -139 -222 q -54 -118 -104 -178 q 17 40 -4 -58 l 157 721 z "},"ſ":{"ha":421,"x_min":-19,"x_max":739,"o":"m 143 790 q 214 922 161 876 q 340 983 267 967 q 490 1000 414 1000 q 601 992 543 1000 q 699 958 658 983 q 739 885 739 933 q 697 812 739 835 q 603 789 654 789 q 561 792 583 789 q 521 806 539 796 q 535 847 531 822 q 540 890 540 872 q 501 939 540 939 q 442 901 463 939 q 413 803 422 864 l 268 0 l -19 -28 l 143 790 z "},"t":{"ha":457,"x_min":46,"x_max":531,"o":"m 456 860 l 422 708 l 531 708 l 518 646 l 411 646 l 328 208 q 323 181 325 197 q 321 150 321 164 q 336 100 321 122 q 386 75 351 78 q 316 -3 369 22 q 206 -28 263 -28 q 91 8 136 -28 q 46 115 46 43 q 56 215 46 151 q 78 340 65 278 q 97 439 90 403 l 138 646 l 56 646 l 61 688 q 389 860 228 738 l 456 860 z "},"ŧ":{"ha":457,"x_min":-22,"x_max":531,"o":"m 518 483 q 524 444 524 461 q 497 381 524 407 q 418 356 471 356 l 356 356 l 328 208 q 323 181 325 197 q 321 150 321 164 q 336 100 321 122 q 386 75 351 78 q 316 -3 369 22 q 206 -28 263 -28 q 91 8 136 -28 q 46 115 46 43 q 58 224 46 154 q 81 356 69 293 l -18 356 q -22 376 -21 365 q -22 393 -22 386 q 6 458 -21 433 q 72 483 32 483 l 106 483 l 138 646 l 56 646 l 61 688 q 389 860 228 738 l 456 860 l 422 708 l 531 708 l 518 646 l 411 646 l 381 483 l 518 483 z "},"ť":{"ha":457,"x_min":46,"x_max":701,"o":"m 519 981 q 557 993 532 986 q 604 1000 582 1000 q 674 972 647 1000 q 701 892 701 943 q 649 785 701 839 q 514 731 597 731 q 486 733 497 731 q 465 739 475 736 q 519 826 507 786 q 532 903 532 867 q 527 951 532 928 q 519 981 522 974 m 456 860 l 422 708 l 531 708 l 518 646 l 411 646 l 328 208 q 323 181 325 197 q 321 150 321 164 q 336 100 321 122 q 386 75 351 78 q 316 -3 369 22 q 206 -28 263 -28 q 91 8 136 -28 q 46 115 46 43 q 56 215 46 151 q 78 340 65 278 q 97 439 90 403 l 138 646 l 56 646 l 61 688 q 389 860 228 738 l 456 860 z "},"ţ":{"ha":457,"x_min":46,"x_max":531,"o":"m 456 860 l 422 708 l 531 708 l 518 646 l 411 646 l 328 208 q 323 181 325 197 q 321 150 321 164 q 336 100 321 122 q 386 75 351 78 q 316 -3 369 22 q 206 -28 263 -28 q 91 8 136 -28 q 46 115 46 43 q 56 215 46 151 q 78 340 65 278 q 97 439 90 403 l 138 646 l 56 646 l 61 688 q 389 860 228 738 l 456 860 m 247 15 l 213 -101 l 197 -83 q 226 -80 203 -81 q 264 -79 249 -79 q 372 -105 326 -79 q 417 -192 417 -131 q 349 -312 417 -265 q 185 -358 281 -358 q 88 -339 124 -358 q 53 -285 53 -319 q 78 -219 53 -242 q 115 -252 92 -240 q 178 -264 138 -264 q 229 -250 210 -264 q 249 -204 249 -236 q 222 -162 249 -172 q 168 -153 196 -153 q 138 -153 151 -153 q 110 -156 124 -154 l 161 15 l 247 15 z "},"ț":{"ha":457,"x_min":18,"x_max":531,"o":"m 456 860 l 422 708 l 531 708 l 518 646 l 411 646 l 328 208 q 323 181 325 197 q 321 150 321 164 q 336 100 321 122 q 386 75 351 78 q 316 -3 369 22 q 206 -28 263 -28 q 91 8 136 -28 q 46 115 46 43 q 56 215 46 151 q 78 340 65 278 q 97 439 90 403 l 138 646 l 56 646 l 61 688 q 389 860 228 738 l 456 860 m 293 -165 q 256 -271 293 -228 q 168 -336 219 -314 q 72 -358 117 -358 q 18 -353 38 -358 q 84 -265 61 -306 q 107 -162 107 -224 q 93 -92 107 -122 q 132 -78 104 -85 q 179 -71 160 -71 q 263 -98 233 -71 q 293 -165 293 -125 z "},"ṭ":{"ha":457,"x_min":36,"x_max":531,"o":"m 456 860 l 422 708 l 531 708 l 518 646 l 411 646 l 328 208 q 323 181 325 197 q 321 150 321 164 q 336 100 321 122 q 386 75 351 78 q 316 -3 369 22 q 206 -28 263 -28 q 91 8 136 -28 q 46 115 46 43 q 56 215 46 151 q 78 340 65 278 q 97 439 90 403 l 138 646 l 56 646 l 61 688 q 389 860 228 738 l 456 860 m 183 -58 q 283 -85 244 -58 q 322 -164 322 -112 q 281 -243 322 -217 q 178 -269 239 -269 q 76 -243 117 -269 q 36 -167 36 -217 q 79 -86 36 -114 q 183 -58 122 -58 z "},"u":{"ha":847,"x_min":35,"x_max":826,"o":"m 826 736 l 726 208 q 722 181 725 197 q 719 150 719 164 q 735 100 719 122 q 785 75 750 78 q 715 -3 768 22 q 608 -28 661 -28 q 523 -8 563 -28 q 468 51 483 11 q 368 -10 425 8 q 244 -28 311 -28 q 94 9 153 -28 q 35 146 35 46 q 47 265 35 194 q 68 389 58 336 l 126 708 l 407 736 l 328 351 q 305 232 314 286 q 296 133 296 178 q 304 83 296 106 q 344 61 313 61 q 427 120 400 61 q 464 235 454 179 l 547 708 l 826 736 z "},"ú":{"ha":847,"x_min":35,"x_max":826,"o":"m 826 736 l 726 208 q 722 181 725 197 q 719 150 719 164 q 735 100 719 122 q 785 75 750 78 q 715 -3 768 22 q 608 -28 661 -28 q 523 -8 563 -28 q 468 51 483 11 q 368 -10 425 8 q 244 -28 311 -28 q 94 9 153 -28 q 35 146 35 46 q 47 265 35 194 q 68 389 58 336 l 126 708 l 407 736 l 328 351 q 305 232 314 286 q 296 133 296 178 q 304 83 296 106 q 344 61 313 61 q 427 120 400 61 q 464 235 454 179 l 547 708 l 826 736 m 350 875 l 678 1078 q 716 1042 704 1067 q 728 986 728 1017 q 674 884 728 914 q 550 840 621 854 l 379 808 l 350 875 z "},"ŭ":{"ha":847,"x_min":35,"x_max":826,"o":"m 826 736 l 726 208 q 722 181 725 197 q 719 150 719 164 q 735 100 719 122 q 785 75 750 78 q 715 -3 768 22 q 608 -28 661 -28 q 523 -8 563 -28 q 468 51 483 11 q 368 -10 425 8 q 244 -28 311 -28 q 94 9 153 -28 q 35 146 35 46 q 47 265 35 194 q 68 389 58 336 l 126 708 l 407 736 l 328 351 q 305 232 314 286 q 296 133 296 178 q 304 83 296 106 q 344 61 313 61 q 427 120 400 61 q 464 235 454 179 l 547 708 l 826 736 m 472 1032 q 468 1008 469 1017 q 467 990 467 1000 q 467 923 467 958 q 513 888 468 888 q 583 936 567 888 q 610 1032 600 985 l 810 1032 q 719 881 793 943 q 499 819 646 819 q 319 872 379 819 q 260 994 260 925 q 264 1032 260 1011 l 472 1032 z "},"û":{"ha":847,"x_min":35,"x_max":826,"o":"m 826 736 l 726 208 q 722 181 725 197 q 719 150 719 164 q 735 100 719 122 q 785 75 750 78 q 715 -3 768 22 q 608 -28 661 -28 q 523 -8 563 -28 q 468 51 483 11 q 368 -10 425 8 q 244 -28 311 -28 q 94 9 153 -28 q 35 146 35 46 q 47 265 35 194 q 68 389 58 336 l 126 708 l 407 736 l 328 351 q 305 232 314 286 q 296 133 296 178 q 304 83 296 106 q 344 61 313 61 q 427 120 400 61 q 464 235 454 179 l 547 708 l 826 736 m 744 881 l 675 817 l 513 889 l 307 817 l 264 881 l 496 1042 l 560 1042 l 744 881 z "},"ü":{"ha":847,"x_min":35,"x_max":838,"o":"m 826 736 l 726 208 q 722 181 725 197 q 719 150 719 164 q 735 100 719 122 q 785 75 750 78 q 715 -3 768 22 q 608 -28 661 -28 q 523 -8 563 -28 q 468 51 483 11 q 368 -10 425 8 q 244 -28 311 -28 q 94 9 153 -28 q 35 146 35 46 q 47 265 35 194 q 68 389 58 336 l 126 708 l 407 736 l 328 351 q 305 232 314 286 q 296 133 296 178 q 304 83 296 106 q 344 61 313 61 q 427 120 400 61 q 464 235 454 179 l 547 708 l 826 736 z "},"ụ":{"ha":847,"x_min":35,"x_max":826,"o":"m 826 736 l 726 208 q 722 181 725 197 q 719 150 719 164 q 735 100 719 122 q 785 75 750 78 q 715 -3 768 22 q 608 -28 661 -28 q 523 -8 563 -28 q 468 51 483 11 q 368 -10 425 8 q 244 -28 311 -28 q 94 9 153 -28 q 35 146 35 46 q 47 265 35 194 q 68 389 58 336 l 126 708 l 407 736 l 328 351 q 305 232 314 286 q 296 133 296 178 q 304 83 296 106 q 344 61 313 61 q 427 120 400 61 q 464 235 454 179 l 547 708 l 826 736 m 339 -58 q 439 -85 400 -58 q 478 -164 478 -112 q 436 -243 478 -217 q 333 -269 394 -269 q 232 -243 272 -269 q 192 -167 192 -217 q 235 -86 192 -114 q 339 -58 278 -58 z "},"ù":{"ha":847,"x_min":35,"x_max":826,"o":"m 826 736 l 726 208 q 722 181 725 197 q 719 150 719 164 q 735 100 719 122 q 785 75 750 78 q 715 -3 768 22 q 608 -28 661 -28 q 523 -8 563 -28 q 468 51 483 11 q 368 -10 425 8 q 244 -28 311 -28 q 94 9 153 -28 q 35 146 35 46 q 47 265 35 194 q 68 389 58 336 l 126 708 l 407 736 l 328 351 q 305 232 314 286 q 296 133 296 178 q 304 83 296 106 q 344 61 313 61 q 427 120 400 61 q 464 235 454 179 l 547 708 l 826 736 m 606 808 l 435 840 q 310 884 364 854 q 257 986 257 914 q 269 1042 257 1017 q 307 1078 281 1067 l 635 875 l 606 808 z "},"ű":{"ha":847,"x_min":35,"x_max":885,"o":"m 826 736 l 726 208 q 722 181 725 197 q 719 150 719 164 q 735 100 719 122 q 785 75 750 78 q 715 -3 768 22 q 608 -28 661 -28 q 523 -8 563 -28 q 468 51 483 11 q 368 -10 425 8 q 244 -28 311 -28 q 94 9 153 -28 q 35 146 35 46 q 47 265 35 194 q 68 389 58 336 l 126 708 l 407 736 l 328 351 q 305 232 314 286 q 296 133 296 178 q 304 83 296 106 q 344 61 313 61 q 427 120 400 61 q 464 235 454 179 l 547 708 l 826 736 m 286 789 l 507 1096 q 578 1067 551 1089 q 606 1013 606 1044 q 567 909 606 961 q 467 824 529 857 l 350 751 l 286 789 m 565 789 l 786 1096 q 857 1067 829 1089 q 885 1013 885 1044 q 847 909 885 961 q 746 824 808 857 l 629 751 l 565 789 z "},"ū":{"ha":847,"x_min":35,"x_max":826,"o":"m 826 736 l 726 208 q 722 181 725 197 q 719 150 719 164 q 735 100 719 122 q 785 75 750 78 q 715 -3 768 22 q 608 -28 661 -28 q 523 -8 563 -28 q 468 51 483 11 q 368 -10 425 8 q 244 -28 311 -28 q 94 9 153 -28 q 35 146 35 46 q 47 265 35 194 q 68 389 58 336 l 126 708 l 407 736 l 328 351 q 305 232 314 286 q 296 133 296 178 q 304 83 296 106 q 344 61 313 61 q 427 120 400 61 q 464 235 454 179 l 547 708 l 826 736 m 742 992 q 747 953 747 969 q 721 890 747 915 q 642 864 694 864 l 317 864 q 313 884 314 874 q 313 901 313 894 q 340 967 314 942 q 407 992 367 992 l 742 992 z "},"ų":{"ha":847,"x_min":35,"x_max":826,"o":"m 826 736 l 726 208 q 722 181 725 197 q 719 150 719 164 q 735 100 719 122 q 785 75 750 78 q 715 -3 768 22 q 608 -28 661 -28 q 523 -8 563 -28 q 468 51 483 11 q 368 -10 425 8 q 244 -28 311 -28 q 94 9 153 -28 q 35 146 35 46 q 47 265 35 194 q 68 389 58 336 l 126 708 l 407 736 l 328 351 q 305 232 314 286 q 296 133 296 178 q 304 83 296 106 q 344 61 313 61 q 427 120 400 61 q 464 235 454 179 l 547 708 l 826 736 m 742 22 l 742 14 q 653 -70 690 -21 q 615 -171 615 -119 q 681 -242 615 -242 q 728 -233 706 -242 q 767 -207 750 -225 q 792 -272 792 -239 q 753 -333 792 -307 q 642 -358 715 -358 q 508 -319 557 -358 q 460 -203 460 -281 q 526 -51 460 -108 q 681 31 593 6 l 742 22 z "},"ů":{"ha":847,"x_min":35,"x_max":826,"o":"m 826 736 l 726 208 q 722 181 725 197 q 719 150 719 164 q 735 100 719 122 q 785 75 750 78 q 715 -3 768 22 q 608 -28 661 -28 q 523 -8 563 -28 q 468 51 483 11 q 368 -10 425 8 q 244 -28 311 -28 q 94 9 153 -28 q 35 146 35 46 q 47 265 35 194 q 68 389 58 336 l 126 708 l 407 736 l 328 351 q 305 232 314 286 q 296 133 296 178 q 304 83 296 106 q 344 61 313 61 q 427 120 400 61 q 464 235 454 179 l 547 708 l 826 736 m 485 789 q 388 817 424 789 q 351 900 351 844 q 410 1014 351 972 q 543 1056 468 1056 q 672 944 672 1056 q 616 831 672 872 q 485 789 560 789 m 499 842 q 552 870 529 842 q 575 938 575 899 q 525 999 575 999 q 473 969 493 999 q 453 901 453 940 q 499 842 453 842 z "},"ũ":{"ha":847,"x_min":35,"x_max":826,"o":"m 826 736 l 726 208 q 722 181 725 197 q 719 150 719 164 q 735 100 719 122 q 785 75 750 78 q 715 -3 768 22 q 608 -28 661 -28 q 523 -8 563 -28 q 468 51 483 11 q 368 -10 425 8 q 244 -28 311 -28 q 94 9 153 -28 q 35 146 35 46 q 47 265 35 194 q 68 389 58 336 l 126 708 l 407 736 l 328 351 q 305 232 314 286 q 296 133 296 178 q 304 83 296 106 q 344 61 313 61 q 427 120 400 61 q 464 235 454 179 l 547 708 l 826 736 m 754 1010 q 781 939 781 978 q 647 836 781 836 q 556 842 613 836 q 445 855 500 849 q 363 861 390 861 q 308 853 333 861 q 269 838 282 846 q 242 917 242 878 q 379 1010 242 1010 q 474 1003 418 1010 q 585 992 531 997 q 671 986 639 986 q 719 992 697 986 q 754 1010 742 997 z "},"v":{"ha":753,"x_min":10,"x_max":758,"o":"m 103 -28 q 90 290 99 142 q 67 542 82 439 q 10 685 50 658 q 84 725 46 714 q 164 736 122 736 q 297 687 261 736 q 340 542 333 638 q 343 475 342 514 q 344 354 344 436 q 344 250 344 311 q 343 108 344 189 q 436 250 397 164 q 497 431 475 336 q 518 606 518 526 q 516 644 518 624 q 508 685 514 664 q 561 722 529 708 q 635 736 593 736 q 721 710 683 736 q 758 619 758 685 q 707 431 758 542 q 592 232 656 321 q 494 115 556 182 q 365 0 433 47 l 103 -28 z "},"w":{"ha":1154,"x_min":10,"x_max":1160,"o":"m 103 -28 q 90 290 99 142 q 67 542 82 439 q 10 685 50 658 q 84 725 46 714 q 165 736 122 736 q 301 685 267 736 q 340 542 335 633 q 343 442 342 510 q 344 331 344 375 q 344 234 344 289 q 343 108 344 179 q 432 251 397 164 q 483 432 467 338 q 499 604 499 526 q 497 644 499 624 q 489 685 494 664 q 542 722 510 708 q 618 736 574 736 q 729 683 703 736 q 761 542 756 631 q 763 497 763 522 q 765 432 764 472 q 765 325 765 392 q 765 231 765 283 q 764 108 765 178 q 852 251 818 164 q 903 432 886 338 q 919 604 919 526 q 918 644 919 624 q 910 685 917 664 q 963 722 931 708 q 1036 736 994 736 q 1122 710 1083 736 q 1160 619 1160 685 q 1109 431 1160 542 q 993 232 1058 321 q 897 115 957 182 q 767 0 836 47 l 563 -26 q 562 104 563 33 q 560 253 561 175 q 468 108 533 181 q 335 0 403 36 l 103 -28 z "},"ẃ":{"ha":1154,"x_min":10,"x_max":1160,"o":"m 103 -28 q 90 290 99 142 q 67 542 82 439 q 10 685 50 658 q 84 725 46 714 q 165 736 122 736 q 301 685 267 736 q 340 542 335 633 q 343 442 342 510 q 344 331 344 375 q 344 234 344 289 q 343 108 344 179 q 432 251 397 164 q 483 432 467 338 q 499 604 499 526 q 497 644 499 624 q 489 685 494 664 q 542 722 510 708 q 618 736 574 736 q 729 683 703 736 q 761 542 756 631 q 763 497 763 522 q 765 432 764 472 q 765 325 765 392 q 765 231 765 283 q 764 108 765 178 q 852 251 818 164 q 903 432 886 338 q 919 604 919 526 q 918 644 919 624 q 910 685 917 664 q 963 722 931 708 q 1036 736 994 736 q 1122 710 1083 736 q 1160 619 1160 685 q 1109 431 1160 542 q 993 232 1058 321 q 897 115 957 182 q 767 0 836 47 l 563 -26 q 562 104 563 33 q 560 253 561 175 q 468 108 533 181 q 335 0 403 36 l 103 -28 m 493 875 l 821 1078 q 859 1042 847 1067 q 871 986 871 1017 q 817 884 871 914 q 693 840 764 854 l 522 808 l 493 875 z "},"ŵ":{"ha":1154,"x_min":10,"x_max":1160,"o":"m 103 -28 q 90 290 99 142 q 67 542 82 439 q 10 685 50 658 q 84 725 46 714 q 165 736 122 736 q 301 685 267 736 q 340 542 335 633 q 343 442 342 510 q 344 331 344 375 q 344 234 344 289 q 343 108 344 179 q 432 251 397 164 q 483 432 467 338 q 499 604 499 526 q 497 644 499 624 q 489 685 494 664 q 542 722 510 708 q 618 736 574 736 q 729 683 703 736 q 761 542 756 631 q 763 497 763 522 q 765 432 764 472 q 765 325 765 392 q 765 231 765 283 q 764 108 765 178 q 852 251 818 164 q 903 432 886 338 q 919 604 919 526 q 918 644 919 624 q 910 685 917 664 q 963 722 931 708 q 1036 736 994 736 q 1122 710 1083 736 q 1160 619 1160 685 q 1109 431 1160 542 q 993 232 1058 321 q 897 115 957 182 q 767 0 836 47 l 563 -26 q 562 104 563 33 q 560 253 561 175 q 468 108 533 181 q 335 0 403 36 l 103 -28 m 888 881 l 818 817 l 656 889 l 450 817 l 407 881 l 639 1042 l 703 1042 l 888 881 z "},"ẅ":{"ha":1154,"x_min":10,"x_max":1160,"o":"m 103 -28 q 90 290 99 142 q 67 542 82 439 q 10 685 50 658 q 84 725 46 714 q 165 736 122 736 q 301 685 267 736 q 340 542 335 633 q 343 442 342 510 q 344 331 344 375 q 344 234 344 289 q 343 108 344 179 q 432 251 397 164 q 483 432 467 338 q 499 604 499 526 q 497 644 499 624 q 489 685 494 664 q 542 722 510 708 q 618 736 574 736 q 729 683 703 736 q 761 542 756 631 q 763 497 763 522 q 765 432 764 472 q 765 325 765 392 q 765 231 765 283 q 764 108 765 178 q 852 251 818 164 q 903 432 886 338 q 919 604 919 526 q 918 644 919 624 q 910 685 917 664 q 963 722 931 708 q 1036 736 994 736 q 1122 710 1083 736 q 1160 619 1160 685 q 1109 431 1160 542 q 993 232 1058 321 q 897 115 957 182 q 767 0 836 47 l 563 -26 q 562 104 563 33 q 560 253 561 175 q 468 108 533 181 q 335 0 403 36 l 103 -28 z "},"ẁ":{"ha":1154,"x_min":10,"x_max":1160,"o":"m 103 -28 q 90 290 99 142 q 67 542 82 439 q 10 685 50 658 q 84 725 46 714 q 165 736 122 736 q 301 685 267 736 q 340 542 335 633 q 343 442 342 510 q 344 331 344 375 q 344 234 344 289 q 343 108 344 179 q 432 251 397 164 q 483 432 467 338 q 499 604 499 526 q 497 644 499 624 q 489 685 494 664 q 542 722 510 708 q 618 736 574 736 q 729 683 703 736 q 761 542 756 631 q 763 497 763 522 q 765 432 764 472 q 765 325 765 392 q 765 231 765 283 q 764 108 765 178 q 852 251 818 164 q 903 432 886 338 q 919 604 919 526 q 918 644 919 624 q 910 685 917 664 q 963 722 931 708 q 1036 736 994 736 q 1122 710 1083 736 q 1160 619 1160 685 q 1109 431 1160 542 q 993 232 1058 321 q 897 115 957 182 q 767 0 836 47 l 563 -26 q 562 104 563 33 q 560 253 561 175 q 468 108 533 181 q 335 0 403 36 l 103 -28 m 749 808 l 578 840 q 453 884 507 854 q 400 986 400 914 q 412 1042 400 1017 q 450 1078 424 1067 l 778 875 l 749 808 z "},"x":{"ha":714,"x_min":-42,"x_max":744,"o":"m 150 526 q 115 590 136 561 q 57 624 94 619 q 124 708 74 681 q 235 736 175 736 q 335 705 300 736 q 394 617 371 674 l 461 461 q 515 515 500 478 q 531 593 531 551 q 497 703 531 658 q 618 736 550 736 q 712 706 679 736 q 744 617 744 676 q 699 492 744 543 q 579 407 653 442 l 496 368 l 568 182 q 605 115 583 143 q 661 85 626 88 q 594 0 644 28 q 483 -28 544 -28 q 383 1 419 -28 q 324 92 347 31 l 256 267 q 192 205 211 247 q 172 115 172 163 q 180 57 172 85 q 206 6 188 29 q 85 -28 153 -28 q -9 3 24 -28 q -42 93 -42 33 q 10 231 -42 175 q 136 321 63 286 l 219 360 l 150 526 z "},"y":{"ha":707,"x_min":19,"x_max":751,"o":"m 78 -156 q 121 -42 78 -92 q 221 44 164 7 l 106 39 q 94 324 100 208 q 76 542 89 439 q 56 638 69 606 q 19 685 43 669 q 94 725 56 714 q 174 736 132 736 q 305 687 272 736 q 344 542 338 638 q 348 475 347 514 q 347 354 349 436 l 346 161 q 464 372 417 254 q 511 606 511 489 q 510 644 511 624 q 501 685 508 664 q 628 736 549 736 q 713 710 675 736 q 751 619 751 685 q 719 488 751 560 q 635 344 686 417 q 531 210 585 272 q 433 106 476 147 q 354 18 388 61 q 321 -89 321 -25 q 340 -158 321 -125 q 388 -214 358 -192 q 306 -262 353 -247 q 211 -278 258 -278 q 114 -247 150 -278 q 78 -156 78 -217 z "},"ý":{"ha":707,"x_min":19,"x_max":751,"o":"m 78 -156 q 121 -42 78 -92 q 221 44 164 7 l 106 39 q 94 324 100 208 q 76 542 89 439 q 56 638 69 606 q 19 685 43 669 q 94 725 56 714 q 174 736 132 736 q 305 687 272 736 q 344 542 338 638 q 348 475 347 514 q 347 354 349 436 l 346 161 q 464 372 417 254 q 511 606 511 489 q 510 644 511 624 q 501 685 508 664 q 628 736 549 736 q 713 710 675 736 q 751 619 751 685 q 719 488 751 560 q 635 344 686 417 q 531 210 585 272 q 433 106 476 147 q 354 18 388 61 q 321 -89 321 -25 q 340 -158 321 -125 q 388 -214 358 -192 q 306 -262 353 -247 q 211 -278 258 -278 q 114 -247 150 -278 q 78 -156 78 -217 m 294 875 l 622 1078 q 660 1042 649 1067 q 672 986 672 1017 q 619 884 672 914 q 494 840 565 854 l 324 808 l 294 875 z "},"ŷ":{"ha":707,"x_min":19,"x_max":751,"o":"m 78 -156 q 121 -42 78 -92 q 221 44 164 7 l 106 39 q 94 324 100 208 q 76 542 89 439 q 56 638 69 606 q 19 685 43 669 q 94 725 56 714 q 174 736 132 736 q 305 687 272 736 q 344 542 338 638 q 348 475 347 514 q 347 354 349 436 l 346 161 q 464 372 417 254 q 511 606 511 489 q 510 644 511 624 q 501 685 508 664 q 628 736 549 736 q 713 710 675 736 q 751 619 751 685 q 719 488 751 560 q 635 344 686 417 q 531 210 585 272 q 433 106 476 147 q 354 18 388 61 q 321 -89 321 -25 q 340 -158 321 -125 q 388 -214 358 -192 q 306 -262 353 -247 q 211 -278 258 -278 q 114 -247 150 -278 q 78 -156 78 -217 m 689 881 l 619 817 l 457 889 l 251 817 l 208 881 l 440 1042 l 504 1042 l 689 881 z "},"ÿ":{"ha":707,"x_min":19,"x_max":782,"o":"m 78 -156 q 121 -42 78 -92 q 221 44 164 7 l 106 39 q 94 324 100 208 q 76 542 89 439 q 56 638 69 606 q 19 685 43 669 q 94 725 56 714 q 174 736 132 736 q 305 687 272 736 q 344 542 338 638 q 348 475 347 514 q 347 354 349 436 l 346 161 q 464 372 417 254 q 511 606 511 489 q 510 644 511 624 q 501 685 508 664 q 628 736 549 736 q 713 710 675 736 q 751 619 751 685 q 719 488 751 560 q 635 344 686 417 q 531 210 585 272 q 433 106 476 147 q 354 18 388 61 q 321 -89 321 -25 q 340 -158 321 -125 q 388 -214 358 -192 q 306 -262 353 -247 q 211 -278 258 -278 q 114 -247 150 -278 q 78 -156 78 -217 z "},"ỳ":{"ha":707,"x_min":19,"x_max":751,"o":"m 78 -156 q 121 -42 78 -92 q 221 44 164 7 l 106 39 q 94 324 100 208 q 76 542 89 439 q 56 638 69 606 q 19 685 43 669 q 94 725 56 714 q 174 736 132 736 q 305 687 272 736 q 344 542 338 638 q 348 475 347 514 q 347 354 349 436 l 346 161 q 464 372 417 254 q 511 606 511 489 q 510 644 511 624 q 501 685 508 664 q 628 736 549 736 q 713 710 675 736 q 751 619 751 685 q 719 488 751 560 q 635 344 686 417 q 531 210 585 272 q 433 106 476 147 q 354 18 388 61 q 321 -89 321 -25 q 340 -158 321 -125 q 388 -214 358 -192 q 306 -262 353 -247 q 211 -278 258 -278 q 114 -247 150 -278 q 78 -156 78 -217 m 550 808 l 379 840 q 255 884 308 854 q 201 986 201 914 q 213 1042 201 1017 q 251 1078 225 1067 l 579 875 l 550 808 z "},"ỹ":{"ha":707,"x_min":19,"x_max":751,"o":"m 78 -156 q 121 -42 78 -92 q 221 44 164 7 l 106 39 q 94 324 100 208 q 76 542 89 439 q 56 638 69 606 q 19 685 43 669 q 94 725 56 714 q 174 736 132 736 q 305 687 272 736 q 344 542 338 638 q 348 475 347 514 q 347 354 349 436 l 346 161 q 464 372 417 254 q 511 606 511 489 q 510 644 511 624 q 501 685 508 664 q 628 736 549 736 q 713 710 675 736 q 751 619 751 685 q 719 488 751 560 q 635 344 686 417 q 531 210 585 272 q 433 106 476 147 q 354 18 388 61 q 321 -89 321 -25 q 340 -158 321 -125 q 388 -214 358 -192 q 306 -262 353 -247 q 211 -278 258 -278 q 114 -247 150 -278 q 78 -156 78 -217 m 699 1010 q 725 939 725 978 q 592 836 725 836 q 501 842 557 836 q 390 855 444 849 q 307 861 335 861 q 252 853 278 861 q 214 838 226 846 q 186 917 186 878 q 324 1010 186 1010 q 419 1003 363 1010 q 529 992 475 997 q 615 986 583 986 q 664 992 642 986 q 699 1010 686 997 z "},"z":{"ha":629,"x_min":-14,"x_max":658,"o":"m 413 492 q 317 512 368 504 q 231 519 267 519 q 149 504 181 519 q 103 458 118 489 q 68 523 81 485 q 56 599 56 561 q 106 706 56 675 q 229 736 156 736 q 390 719 300 736 q 544 701 481 701 q 622 717 596 701 q 651 675 644 696 q 658 633 658 654 q 633 552 658 586 q 569 490 607 518 l 228 235 q 324 212 275 221 q 410 203 374 203 q 490 215 449 203 q 558 258 531 228 q 597 143 597 214 q 544 14 597 56 q 407 -28 492 -28 q 263 -8 335 -28 q 121 13 190 13 q 74 9 94 13 q 33 -1 53 6 q -1 35 13 13 q -14 94 -14 58 q 10 178 -14 142 q 69 244 33 215 l 413 492 z "},"ź":{"ha":629,"x_min":-14,"x_max":658,"o":"m 413 492 q 317 512 368 504 q 231 519 267 519 q 149 504 181 519 q 103 458 118 489 q 68 523 81 485 q 56 599 56 561 q 106 706 56 675 q 229 736 156 736 q 390 719 300 736 q 544 701 481 701 q 622 717 596 701 q 651 675 644 696 q 658 633 658 654 q 633 552 658 586 q 569 490 607 518 l 228 235 q 324 212 275 221 q 410 203 374 203 q 490 215 449 203 q 558 258 531 228 q 597 143 597 214 q 544 14 597 56 q 407 -28 492 -28 q 263 -8 335 -28 q 121 13 190 13 q 74 9 94 13 q 33 -1 53 6 q -1 35 13 13 q -14 94 -14 58 q 10 178 -14 142 q 69 244 33 215 l 413 492 m 256 875 l 583 1078 q 622 1042 610 1067 q 633 986 633 1017 q 580 884 633 914 q 456 840 526 854 l 285 808 l 256 875 z "},"ž":{"ha":629,"x_min":-14,"x_max":664,"o":"m 413 492 q 317 512 368 504 q 231 519 267 519 q 149 504 181 519 q 103 458 118 489 q 68 523 81 485 q 56 599 56 561 q 106 706 56 675 q 229 736 156 736 q 390 719 300 736 q 544 701 481 701 q 622 717 596 701 q 651 675 644 696 q 658 633 658 654 q 633 552 658 586 q 569 490 607 518 l 228 235 q 324 212 275 221 q 410 203 374 203 q 490 215 449 203 q 558 258 531 228 q 597 143 597 214 q 544 14 597 56 q 407 -28 492 -28 q 263 -8 335 -28 q 121 13 190 13 q 74 9 94 13 q 33 -1 53 6 q -1 35 13 13 q -14 94 -14 58 q 10 178 -14 142 q 69 244 33 215 l 413 492 m 183 1018 l 253 1082 l 415 982 l 621 1082 l 664 1018 l 446 829 l 354 829 l 183 1018 z "},"ż":{"ha":629,"x_min":-14,"x_max":658,"o":"m 413 492 q 317 512 368 504 q 231 519 267 519 q 149 504 181 519 q 103 458 118 489 q 68 523 81 485 q 56 599 56 561 q 106 706 56 675 q 229 736 156 736 q 390 719 300 736 q 544 701 481 701 q 622 717 596 701 q 651 675 644 696 q 658 633 658 654 q 633 552 658 586 q 569 490 607 518 l 228 235 q 324 212 275 221 q 410 203 374 203 q 490 215 449 203 q 558 258 531 228 q 597 143 597 214 q 544 14 597 56 q 407 -28 492 -28 q 263 -8 335 -28 q 121 13 190 13 q 74 9 94 13 q 33 -1 53 6 q -1 35 13 13 q -14 94 -14 58 q 10 178 -14 142 q 69 244 33 215 l 413 492 m 428 1042 q 533 1013 492 1042 q 574 931 574 983 q 530 847 574 875 q 422 819 486 819 q 316 847 358 819 q 274 928 274 875 q 319 1013 274 983 q 428 1042 364 1042 z "},"ẓ":{"ha":629,"x_min":-14,"x_max":658,"o":"m 413 492 q 317 512 368 504 q 231 519 267 519 q 149 504 181 519 q 103 458 118 489 q 68 523 81 485 q 56 599 56 561 q 106 706 56 675 q 229 736 156 736 q 390 719 300 736 q 544 701 481 701 q 622 717 596 701 q 651 675 644 696 q 658 633 658 654 q 633 552 658 586 q 569 490 607 518 l 228 235 q 324 212 275 221 q 410 203 374 203 q 490 215 449 203 q 558 258 531 228 q 597 143 597 214 q 544 14 597 56 q 407 -28 492 -28 q 263 -8 335 -28 q 121 13 190 13 q 74 9 94 13 q 33 -1 53 6 q -1 35 13 13 q -14 94 -14 58 q 10 178 -14 142 q 69 244 33 215 l 413 492 m 261 -58 q 361 -85 322 -58 q 400 -164 400 -112 q 358 -243 400 -217 q 256 -269 317 -269 q 154 -243 194 -269 q 114 -167 114 -217 q 157 -86 114 -114 q 261 -58 200 -58 z "},"ﬁ":{"ha":892,"x_min":3,"x_max":901,"o":"m 868 708 l 771 208 q 767 181 769 197 q 764 150 764 164 q 779 100 764 122 q 829 75 794 78 q 759 -3 813 22 q 649 -28 706 -28 q 534 8 579 -28 q 489 115 489 43 q 499 215 489 151 q 521 340 508 278 q 540 439 533 403 l 581 646 l 406 646 l 285 0 l 3 -28 l 133 646 l 35 646 l 47 708 l 147 708 l 174 793 q 322 963 215 925 q 574 1000 428 1000 q 706 992 628 1000 q 842 958 783 985 q 901 869 901 931 q 848 792 901 810 q 746 775 794 775 q 661 788 694 775 q 611 821 628 800 q 626 874 626 847 q 608 919 626 901 q 554 936 589 936 q 480 902 506 936 q 440 808 454 868 l 418 708 l 868 708 z "},"ﬂ":{"ha":893,"x_min":3,"x_max":925,"o":"m 628 893 q 630 903 629 897 q 631 911 631 908 q 608 929 631 922 q 560 936 585 936 q 481 903 506 936 q 440 808 456 871 l 418 708 l 515 708 l 501 646 l 406 646 l 285 0 l 3 -28 l 133 646 l 35 646 l 47 708 l 147 708 l 174 793 q 313 958 210 915 q 550 1000 415 1000 q 652 993 613 1000 q 722 972 692 986 l 925 1000 l 772 208 q 767 181 769 197 q 765 150 765 164 q 781 100 765 122 q 831 75 796 78 q 760 -3 814 22 q 650 -28 707 -28 q 535 8 581 -28 q 490 115 490 43 q 500 215 490 151 q 522 340 510 278 q 542 439 535 403 l 628 893 z "},"ª":{"ha":635,"x_min":71,"x_max":661,"o":"m 661 936 l 590 561 q 585 522 585 539 q 597 481 585 500 q 626 463 608 463 q 580 411 617 433 q 501 389 543 389 q 440 405 467 389 q 404 446 413 421 q 351 406 386 422 q 268 389 315 389 q 136 449 182 389 q 90 611 90 510 q 128 778 90 706 q 234 894 167 851 q 390 936 301 936 q 489 917 446 936 l 661 936 m 557 328 q 561 294 561 311 q 479 219 561 219 l 75 219 q 71 251 71 236 q 92 307 71 286 q 144 328 114 328 l 557 328 m 415 883 q 352 838 382 883 q 304 719 322 792 q 287 622 293 675 q 281 524 281 569 q 287 469 281 492 q 317 447 293 447 q 367 479 344 447 q 399 568 389 511 l 456 868 q 415 883 436 883 z "},"º":{"ha":624,"x_min":51,"x_max":622,"o":"m 622 713 q 581 540 622 613 q 467 428 540 467 q 299 389 394 389 q 139 442 189 389 q 89 600 89 496 q 123 765 89 688 q 226 889 157 842 q 403 936 296 936 q 561 886 500 936 q 622 713 622 836 m 313 447 q 358 480 336 447 q 398 565 381 513 q 425 680 415 618 q 435 800 435 742 q 428 858 435 839 q 403 878 422 878 q 353 844 376 878 q 314 757 331 810 q 288 645 297 704 q 278 535 278 586 q 287 467 278 486 q 313 447 296 447 m 57 219 q 53 235 56 228 q 51 253 51 242 q 73 306 51 285 q 125 328 94 328 l 511 328 q 515 313 514 321 q 517 296 517 306 q 497 242 517 264 q 433 219 476 219 l 57 219 z "},"Δ":{"ha":794,"x_min":-110,"x_max":756,"o":"m 654 917 q 675 692 661 828 q 706 413 689 556 q 738 158 724 271 q 756 0 751 44 l -110 0 l 356 917 l 654 917 m 414 724 q 290 467 344 579 q 194 265 236 354 q 122 101 153 175 l 472 101 l 414 683 l 414 724 z "},"Ω":{"ha":979,"x_min":13,"x_max":943,"o":"m 478 0 l 478 146 q 560 243 525 172 q 617 396 594 314 q 647 540 636 469 q 657 671 657 610 q 639 793 657 740 q 565 846 621 846 q 450 765 497 846 q 379 576 403 683 q 360 461 367 519 q 354 350 354 403 q 369 225 354 269 q 410 146 383 181 l 368 0 l 133 0 q 38 30 64 0 q 13 100 13 60 q 47 208 13 158 q 107 165 71 181 q 215 149 143 149 l 254 149 q 113 253 160 174 q 65 443 65 332 q 101 633 65 543 q 203 794 136 724 q 367 905 271 864 q 583 946 463 946 q 844 861 746 946 q 943 594 943 776 q 858 310 943 431 q 619 150 774 189 l 663 150 q 808 171 756 150 q 874 208 861 192 q 896 126 896 169 q 859 35 896 69 q 731 0 822 0 l 478 0 z "},"μ":{"ha":858,"x_min":-42,"x_max":838,"o":"m 558 708 l 838 736 l 738 208 q 733 181 736 197 q 731 150 731 164 q 746 100 731 122 q 796 75 761 78 q 726 -3 779 22 q 619 -28 672 -28 q 534 -8 574 -28 q 479 51 494 11 q 410 6 449 21 q 329 -18 372 -8 q 300 -24 311 -22 q 275 -26 289 -25 l 238 -250 l -42 -278 l 79 344 q 101 448 86 378 q 115 556 115 518 q 50 633 115 626 q 120 711 67 686 q 231 736 174 736 q 345 701 300 736 q 390 593 390 665 q 370 457 390 542 q 330 288 350 372 q 310 147 310 203 q 319 100 310 121 q 357 79 328 79 q 432 131 400 79 q 483 286 464 183 l 558 708 z "},"π":{"ha":779,"x_min":36,"x_max":799,"o":"m 215 538 q 198 538 207 538 q 178 539 189 539 q 110 528 142 539 q 63 503 78 517 q 52 547 56 526 q 49 586 49 568 q 115 704 49 674 q 260 735 182 735 q 385 726 314 735 q 522 710 456 718 q 633 701 589 701 q 758 738 713 701 q 786 697 774 722 q 799 640 799 671 q 753 547 799 586 q 628 503 708 508 l 608 335 q 603 273 606 308 q 600 214 600 238 q 622 115 600 154 q 701 74 644 75 q 550 -36 665 -36 q 455 -6 492 -36 q 418 94 418 25 q 431 213 418 138 q 454 343 443 289 l 488 511 l 342 525 l 239 0 l 36 -28 l 215 538 z "},"¹":{"ha":443,"x_min":50,"x_max":432,"o":"m 406 914 l 329 499 l 350 499 q 393 501 375 499 q 422 508 411 504 q 428 492 425 503 q 432 463 432 481 q 408 413 432 426 q 335 399 385 399 q 274 400 314 399 q 188 403 235 401 q 103 404 142 404 q 85 403 100 404 q 54 401 71 403 q 51 417 53 407 q 50 429 50 426 q 114 499 50 499 l 165 499 l 231 792 q 157 767 200 767 q 107 790 125 767 q 86 846 89 813 q 213 878 147 856 q 365 939 279 900 l 406 914 z "},"²":{"ha":475,"x_min":89,"x_max":496,"o":"m 331 944 q 445 914 394 944 q 496 811 496 883 q 474 731 496 771 q 394 650 451 690 q 313 595 347 617 q 239 547 279 574 q 306 538 269 542 q 369 535 342 535 q 417 540 396 535 q 454 558 439 544 q 471 526 467 540 q 475 496 475 511 q 432 416 475 435 q 340 397 389 397 q 238 408 282 397 q 157 418 193 418 q 115 407 126 418 q 89 475 89 429 q 122 549 89 514 q 203 619 156 585 q 292 688 250 654 q 346 779 346 731 q 329 821 346 810 q 288 832 313 832 q 176 764 208 832 q 144 781 157 764 q 131 824 131 799 q 196 914 131 883 q 331 944 261 944 z "},"³":{"ha":447,"x_min":64,"x_max":468,"o":"m 203 708 q 287 737 256 718 q 318 786 318 756 q 258 833 318 833 q 203 821 229 833 q 156 785 178 808 q 128 828 128 789 q 195 918 128 890 q 322 946 263 946 q 426 919 383 946 q 468 838 468 893 q 434 751 468 789 q 342 692 400 714 q 417 649 389 681 q 446 565 446 617 q 383 441 446 492 q 214 390 321 390 q 103 415 142 390 q 64 482 64 439 q 74 521 64 504 q 94 547 83 538 q 139 505 111 518 q 200 492 167 492 q 286 567 286 492 q 262 619 286 601 q 189 638 238 638 l 203 708 z "},"⁄":{"ha":400,"x_min":-78,"x_max":490,"o":"m 29 -122 q -14 -126 17 -126 q -78 -86 -78 -126 q -69 -51 -78 -72 l 385 997 q 400 999 392 999 q 422 1000 408 1000 q 490 958 490 1000 q 488 937 490 950 q 478 906 485 924 l 29 -122 z "},"½":{"ha":1121,"x_min":71,"x_max":1050,"o":"m 728 997 q 743 999 735 999 q 765 1000 751 1000 q 833 958 833 1000 q 821 906 833 936 l 372 -122 q 329 -126 360 -126 q 265 -86 265 -126 q 274 -51 265 -72 l 728 997 m 408 913 l 329 490 l 350 490 q 390 493 374 490 q 417 499 407 496 q 425 478 422 490 q 428 453 428 467 q 405 404 428 418 q 333 390 382 390 q 279 392 314 390 q 204 394 244 393 q 132 396 164 396 q 103 395 119 396 q 75 392 88 394 q 71 421 71 406 q 86 470 71 450 q 132 490 101 490 l 174 490 l 239 790 q 206 772 225 776 q 174 767 188 767 q 119 792 136 767 q 99 844 101 818 q 228 878 160 854 q 385 943 296 901 l 408 913 m 846 281 q 885 322 869 300 q 900 372 900 344 q 883 415 900 403 q 842 426 865 426 q 731 357 761 426 q 698 375 711 358 q 685 417 685 392 q 751 507 685 476 q 885 538 817 538 q 1000 508 950 538 q 1050 404 1050 478 q 1024 316 1050 354 q 949 243 997 278 q 874 192 921 222 q 793 140 826 161 q 861 131 825 133 q 924 128 897 128 q 972 132 950 128 q 1008 151 994 136 q 1025 119 1021 133 q 1029 89 1029 104 q 997 16 1029 42 q 894 -10 964 -10 q 793 1 839 -10 q 713 13 747 13 q 669 0 682 13 q 643 72 643 22 q 658 121 643 100 q 699 163 672 142 l 846 281 z "},"⅓":{"ha":1142,"x_min":71,"x_max":1090,"o":"m 728 997 q 743 999 735 999 q 765 1000 751 1000 q 833 958 833 1000 q 821 906 833 936 l 372 -122 q 329 -126 360 -126 q 265 -86 265 -126 q 274 -51 265 -72 l 728 997 m 408 913 l 329 490 l 350 490 q 390 493 374 490 q 417 499 407 496 q 425 478 422 490 q 428 453 428 467 q 405 404 428 418 q 333 390 382 390 q 279 392 314 390 q 204 394 244 393 q 132 396 164 396 q 103 395 119 396 q 75 392 88 394 q 71 421 71 406 q 86 470 71 450 q 132 490 101 490 l 174 490 l 239 790 q 206 772 225 776 q 174 767 188 767 q 119 792 136 767 q 99 844 101 818 q 228 878 160 854 q 385 943 296 901 l 408 913 m 822 308 q 909 338 879 318 q 939 386 939 357 q 878 435 939 435 q 775 385 822 435 q 753 401 758 388 q 747 428 747 414 q 815 519 747 492 q 943 547 883 547 q 1047 521 1004 547 q 1090 439 1090 494 q 1056 351 1090 390 q 963 292 1021 313 q 1042 244 1015 278 q 1068 164 1068 211 q 1006 38 1068 90 q 833 -15 943 -15 q 721 10 760 -15 q 682 78 682 36 q 714 146 682 121 q 758 101 729 115 q 819 88 788 88 q 906 164 906 88 q 883 217 906 199 q 808 236 860 236 l 822 308 z "},"⅔":{"ha":1142,"x_min":57,"x_max":1108,"o":"m 749 997 q 764 999 756 999 q 786 1000 772 1000 q 854 958 854 1000 q 842 906 854 936 l 393 -122 q 350 -126 381 -126 q 286 -86 286 -126 q 294 -51 286 -72 l 749 997 m 260 683 q 299 725 283 703 q 314 775 314 747 q 297 817 314 806 q 256 829 279 829 q 144 760 175 829 q 112 778 125 761 q 99 819 99 794 q 165 910 99 879 q 299 940 231 940 q 414 910 364 940 q 464 807 464 881 q 438 719 464 757 q 363 646 411 681 q 288 594 335 625 q 207 543 240 564 q 275 533 239 536 q 338 531 311 531 q 386 535 364 531 q 422 554 408 539 q 439 522 435 536 q 443 492 443 507 q 410 419 443 444 q 308 393 378 393 q 207 404 253 393 q 126 415 161 415 q 83 403 96 415 q 57 475 57 425 q 72 524 57 503 q 113 565 86 544 l 260 683 m 840 308 q 927 338 897 318 q 957 386 957 357 q 896 435 957 435 q 793 385 842 435 q 771 401 776 388 q 765 428 765 414 q 833 519 765 492 q 961 547 901 547 q 1065 521 1022 547 q 1108 439 1108 494 q 1074 352 1108 390 q 981 292 1039 314 q 1060 244 1033 278 q 1086 164 1086 211 q 1024 38 1086 90 q 851 -15 961 -15 q 739 10 778 -15 q 700 78 700 36 q 732 146 700 121 q 776 101 747 115 q 838 88 806 88 q 901 108 878 88 q 925 164 925 128 q 901 217 925 199 q 826 236 878 236 l 840 308 z "},"¼":{"ha":1118,"x_min":71,"x_max":1047,"o":"m 728 997 q 743 999 735 999 q 765 1000 751 1000 q 833 958 833 1000 q 821 906 833 936 l 372 -122 q 329 -126 360 -126 q 265 -86 265 -126 q 274 -51 265 -72 l 728 997 m 408 913 l 329 490 l 350 490 q 390 493 374 490 q 417 499 407 496 q 425 478 422 490 q 428 453 428 467 q 405 404 428 418 q 333 390 382 390 q 279 392 314 390 q 204 394 244 393 q 132 396 164 396 q 103 395 119 396 q 75 392 88 394 q 71 421 71 406 q 86 470 71 450 q 132 490 101 490 l 174 490 l 239 790 q 206 772 225 776 q 174 767 188 767 q 119 792 136 767 q 99 844 101 818 q 228 878 160 854 q 385 943 296 901 l 408 913 m 914 539 l 1029 528 q 993 370 1011 454 q 961 204 975 286 q 1006 212 990 207 q 1032 224 1021 217 q 1043 199 1039 214 q 1047 168 1047 183 q 942 93 1047 101 l 928 0 q 871 -17 907 -17 q 799 40 799 -17 q 799 54 799 47 q 801 68 800 61 l 806 96 q 716 104 763 97 q 624 122 669 111 l 619 213 l 914 539 m 707 210 q 765 205 735 207 q 825 203 794 203 q 851 313 838 261 q 879 407 864 364 l 707 210 z "},"¾":{"ha":1122,"x_min":43,"x_max":1051,"o":"m 732 997 q 747 999 739 999 q 769 1000 756 1000 q 838 958 838 1000 q 825 906 838 936 l 376 -122 q 333 -126 364 -126 q 269 -86 269 -126 q 278 -51 269 -72 l 732 997 m 183 701 q 270 731 240 711 q 300 779 300 750 q 239 828 300 828 q 136 778 183 828 q 114 794 119 781 q 108 821 108 807 q 176 913 108 886 q 304 940 244 940 q 408 914 365 940 q 451 832 451 888 q 417 744 451 783 q 324 685 382 706 q 403 638 376 671 q 429 557 429 604 q 367 431 429 483 q 194 378 304 378 q 82 403 121 378 q 43 471 43 429 q 75 539 43 514 q 119 494 90 508 q 181 481 149 481 q 267 557 267 481 q 244 610 267 592 q 169 629 221 629 l 183 701 m 918 539 l 1033 528 q 998 370 1015 454 q 965 204 981 286 q 1010 212 994 207 q 1036 224 1025 217 q 1047 199 1042 214 q 1051 168 1051 183 q 946 93 1051 101 l 932 0 q 875 -17 911 -17 q 803 40 803 -17 q 803 54 803 47 q 806 68 804 61 l 810 96 q 720 104 767 97 q 628 122 674 111 l 624 213 l 918 539 m 711 210 q 768 205 739 207 q 829 203 797 203 q 856 313 842 261 q 883 407 869 364 l 711 210 z "},"⅛":{"ha":1139,"x_min":71,"x_max":1086,"o":"m 728 997 q 743 999 735 999 q 765 1000 751 1000 q 833 958 833 1000 q 821 906 833 936 l 372 -122 q 329 -126 360 -126 q 265 -86 265 -126 q 274 -51 265 -72 l 728 997 m 408 913 l 329 490 l 350 490 q 390 493 374 490 q 417 499 407 496 q 425 478 422 490 q 428 453 428 467 q 405 404 428 418 q 333 390 382 390 q 279 392 314 390 q 204 394 244 393 q 132 396 164 396 q 103 395 119 396 q 75 392 88 394 q 71 421 71 406 q 86 470 71 450 q 132 490 101 490 l 174 490 l 239 790 q 206 772 225 776 q 174 767 188 767 q 119 792 136 767 q 99 844 101 818 q 228 878 160 854 q 385 943 296 901 l 408 913 m 1061 168 q 994 36 1061 90 q 829 -18 928 -18 q 710 13 761 -18 q 658 108 658 43 q 688 191 658 153 q 778 258 717 229 q 738 304 750 281 q 725 360 725 328 q 789 487 725 435 q 947 539 853 539 q 1044 515 1003 539 q 1086 433 1086 492 q 1052 347 1086 381 q 975 293 1018 313 q 1042 228 1024 253 q 1061 168 1061 203 m 926 332 q 958 362 946 344 q 971 406 971 379 q 959 444 971 428 q 921 460 947 460 q 879 446 897 460 q 861 408 861 432 q 867 384 861 396 q 885 364 874 372 l 926 332 m 825 215 q 795 178 806 200 q 785 129 785 156 q 836 65 785 65 q 882 84 865 65 q 899 126 899 103 q 892 153 899 143 q 876 171 885 164 l 825 215 z "},"*":{"ha":558,"x_min":68,"x_max":621,"o":"m 565 804 q 607 738 597 772 q 606 674 621 696 q 564 642 592 651 q 425 638 513 626 l 513 501 q 461 440 493 465 q 400 422 425 415 q 357 453 375 429 q 327 513 339 476 q 308 589 315 550 l 203 460 q 129 490 156 469 q 92 542 94 517 q 108 593 90 568 q 156 639 125 617 q 221 679 186 661 l 74 738 q 79 817 68 778 q 117 868 93 858 q 171 868 142 878 q 228 838 197 860 q 286 790 258 817 l 296 949 q 374 968 335 968 q 433 948 417 968 q 450 897 450 928 q 440 834 450 868 q 413 765 429 800 l 565 804 z "},"\\":{"ha":443,"x_min":85,"x_max":358,"o":"m 149 950 q 181 1081 154 1047 q 304 1115 208 1115 q 343 1114 331 1115 q 358 1111 356 1113 l 294 -146 q 260 -248 290 -218 q 153 -278 231 -278 q 109 -276 132 -278 q 85 -272 86 -275 l 149 950 z "},"·":{"ha":356,"x_min":50,"x_max":336,"o":"m 197 433 q 297 406 258 433 q 336 328 336 379 q 294 249 336 275 q 192 222 253 222 q 90 249 131 222 q 50 325 50 275 q 93 406 50 378 q 197 433 136 433 z "},"•":{"ha":458,"x_min":44,"x_max":394,"o":"m 394 361 q 344 251 394 289 q 217 214 293 214 q 92 251 139 214 q 44 356 44 289 q 97 466 44 428 q 225 504 149 504 q 347 467 300 504 q 394 361 394 429 z "},":":{"ha":378,"x_min":15,"x_max":399,"o":"m 260 735 q 360 708 321 735 q 399 629 399 681 q 357 550 399 576 q 254 524 315 524 q 153 550 193 524 q 113 626 113 576 q 156 707 113 679 q 260 735 199 735 m 163 183 q 263 156 224 183 q 301 78 301 129 q 260 -1 301 25 q 157 -28 218 -28 q 56 -1 96 -28 q 15 75 15 25 q 58 156 15 128 q 163 183 101 183 z "},",":{"ha":308,"x_min":-110,"x_max":224,"o":"m 224 64 q 142 -112 224 -36 q -49 -187 60 -187 q -83 -185 -68 -187 q -110 -179 -97 -182 q -22 -37 -40 -104 q -3 75 -3 29 q -7 126 -3 104 q -18 167 -11 147 q 32 185 -1 178 q 94 193 65 193 q 188 160 151 193 q 224 64 224 128 z "},"…":{"ha":972,"x_min":19,"x_max":932,"o":"m 793 183 q 893 156 854 183 q 932 78 932 129 q 890 -1 932 25 q 788 -28 849 -28 q 686 -1 726 -28 q 646 75 646 25 q 689 156 646 128 q 793 183 732 183 m 167 183 q 267 156 228 183 q 306 78 306 129 q 264 -1 306 25 q 161 -28 222 -28 q 60 -1 100 -28 q 19 75 19 25 q 63 156 19 128 q 167 183 106 183 m 482 183 q 582 156 543 183 q 621 78 621 129 q 579 -1 621 25 q 476 -28 538 -28 q 375 -1 415 -28 q 335 75 335 25 q 378 156 335 128 q 482 183 421 183 z "},"!":{"ha":461,"x_min":44,"x_max":453,"o":"m 215 925 q 265 939 238 933 q 319 944 292 944 q 419 908 386 944 q 453 807 453 871 q 417 645 453 731 q 345 469 382 560 q 307 286 308 378 q 266 258 290 267 q 215 250 242 250 q 133 276 163 250 q 104 346 104 303 q 105 356 104 354 q 107 367 106 357 l 215 925 m 192 183 q 292 156 253 183 q 331 78 331 129 q 289 -1 331 25 q 186 -28 247 -28 q 85 -1 125 -28 q 44 75 44 25 q 88 156 44 128 q 192 183 131 183 z "},"¡":{"ha":433,"x_min":-26,"x_max":432,"o":"m 211 -218 q 161 -232 189 -226 q 107 -237 133 -237 q 7 -201 40 -237 q -26 -100 -26 -164 q 9 62 -26 -24 q 81 238 44 147 q 119 421 117 329 q 160 449 136 440 q 211 457 185 457 q 293 431 264 457 q 322 361 322 404 q 322 351 322 353 q 319 340 321 350 l 211 -218 m 293 736 q 393 709 354 736 q 432 631 432 682 q 390 551 432 578 q 288 525 349 525 q 186 551 226 525 q 146 628 146 578 q 189 708 146 681 q 293 736 232 736 z "}}}
